<?xml version="1.0" standalone="no"?>
<!DOCTYPE svg PUBLIC "-//W3C//DTD SVG 20010904//EN"
 "http://www.w3.org/TR/2001/REC-SVG-20010904/DTD/svg10.dtd">
<svg version="1.0" xmlns="http://www.w3.org/2000/svg"
 width="323.000000pt" height="180.000000pt" viewBox="0 0 323.000000 180.000000"
 preserveAspectRatio="xMidYMid meet">

<g transform="translate(0.000000,180.000000) scale(0.100000,-0.100000)"
fill="#000000" stroke="none">
<path d="M0 950 c0 -467 3 -850 6 -850 3 0 34 7 67 16 148 38 225 47 471 51
266 6 339 2 1041 -52 858 -66 1117 -68 1528 -8 l117 17 0 838 0 838 -1615 0
-1615 0 0 -850z m2118 740 c19 -11 756 -371 840 -410 28 -14 52 -28 52 -33 0
-4 -8 -4 -17 1 -10 5 -137 67 -283 138 -437 212 -636 313 -622 313 7 1 20 -3
30 -9z m-803 -104 c28 -7 61 -19 74 -25 28 -15 101 -81 101 -91 0 -4 -28 -28
-62 -55 -50 -39 -64 -46 -77 -36 -34 24 -97 51 -124 51 -39 0 -83 -25 -90 -51
-13 -49 23 -75 149 -104 91 -21 174 -64 201 -103 27 -41 39 -137 23 -201 -29
-123 -174 -210 -331 -199 -84 6 -158 40 -217 101 l-42 43 64 57 c61 54 86 68
86 49 0 -17 83 -54 133 -58 68 -6 101 10 105 53 3 28 -1 34 -35 51 -21 11 -65
25 -98 32 -154 31 -245 126 -245 258 0 165 193 280 385 228z m-633 -24 c78
-28 112 -54 138 -106 31 -65 41 -152 37 -320 -4 -170 -14 -207 -74 -268 -70
-72 -111 -82 -340 -86 l-203 -4 0 407 0 408 193 -5 c160 -4 201 -8 249 -26z
m1339 -67 c28 -87 29 -96 29 -295 l0 -205 465 -239 c256 -131 465 -241 465
-245 0 -4 -7 -16 -16 -27 -8 -10 -13 -13 -9 -7 9 18 3 17 -70 -19 -45 -22 -61
-35 -52 -41 8 -6 7 -7 -5 -3 -25 8 -173 -64 -156 -76 9 -6 6 -7 -8 -3 -15 4
-72 -20 -185 -76 l-164 -81 -113 56 c-62 31 -118 53 -124 50 -6 -4 -8 -3 -5 3
8 13 -70 56 -89 49 -8 -3 -12 -2 -9 4 3 5 -79 51 -182 104 -307 154 -413 210
-413 216 0 3 51 31 113 62 111 56 112 57 70 57 -24 1 -43 3 -43 6 0 3 61 179
135 393 75 213 138 393 140 400 4 9 29 12 101 10 l96 -3 29 -90z m517 -330
c41 -34 66 -90 59 -132 -8 -44 -21 -60 -58 -68 -62 -14 -139 66 -139 144 0 78
75 109 138 56z m-53 -925 c-3 -5 -12 -10 -18 -10 -7 0 -6 4 3 10 19 12 23 12
15 0z"/>
<path d="M450 1181 l0 -214 76 5 c114 8 118 14 122 185 6 217 -1 229 -125 235
l-73 4 0 -215z"/>
<path d="M1872 1273 c-11 -43 -23 -92 -27 -110 l-6 -31 55 -4 c31 -1 56 -2 56
-1 0 9 -52 223 -54 223 -2 0 -12 -35 -24 -77z"/>
<path d="M1777 903 c-8 -21 -14 -39 -12 -41 2 -2 41 14 87 36 l83 40 -71 1
-72 1 -15 -37z"/>
<path d="M2028 893 c-10 -2 -18 -8 -18 -13 0 -15 31 -20 52 -9 17 9 18 13 7
20 -8 5 -16 8 -19 8 -3 -1 -13 -3 -22 -6z"/>
<path d="M1961 861 c-24 -16 52 -47 81 -34 23 10 23 10 -9 26 -36 19 -52 21
-72 8z"/>
<path d="M2071 861 c-24 -15 24 -35 50 -20 17 9 19 13 8 20 -8 5 -21 9 -29 9
-8 0 -21 -4 -29 -9z"/>
<path d="M1905 836 c-18 -13 -18 -14 3 -20 12 -4 29 -3 38 2 16 9 15 11 -3 20
-15 9 -25 8 -38 -2z"/>
<path d="M2131 831 c-25 -16 24 -34 51 -20 22 12 22 12 3 20 -27 10 -37 10
-54 0z"/>
<path d="M2054 815 c-16 -12 -16 -13 4 -19 25 -8 65 1 57 14 -9 15 -44 18 -61
5z"/>
<path d="M1850 810 c-17 -10 -15 -12 25 -33 23 -11 35 -13 49 -5 18 10 16 12
-15 29 -40 21 -40 21 -59 9z"/>
<path d="M1960 810 c-24 -15 3 -34 37 -25 27 6 27 7 9 21 -23 16 -26 17 -46 4z"/>
<path d="M2191 801 c-11 -7 -10 -11 7 -20 21 -11 52 -6 52 9 0 8 -24 20 -38
20 -4 0 -13 -4 -21 -9z"/>
<path d="M2114 785 c-18 -13 -17 -14 8 -20 15 -4 34 -3 43 2 14 8 13 11 -9 21
-18 8 -28 8 -42 -3z"/>
<path d="M1791 781 c-11 -7 -7 -12 15 -24 24 -12 33 -13 47 -3 15 12 15 14 -9
24 -30 14 -35 14 -53 3z"/>
<path d="M2012 774 c-12 -8 -27 -12 -33 -9 -5 4 -22 4 -37 0 l-27 -7 25 -13
c21 -12 28 -11 48 1 13 9 31 13 39 10 9 -4 25 -4 36 0 20 6 20 7 2 20 -24 17
-26 17 -53 -2z"/>
<path d="M2250 770 c-8 -5 -12 -11 -10 -13 13 -12 47 -15 60 -7 13 9 13 11 0
20 -19 12 -31 12 -50 0z"/>
<path d="M2174 755 c-18 -13 -18 -14 9 -20 36 -9 58 9 29 24 -14 7 -24 7 -38
-4z"/>
<path d="M1865 746 c-18 -13 -18 -14 2 -24 15 -9 25 -8 38 2 18 13 18 14 -2
24 -15 9 -25 8 -38 -2z"/>
<path d="M2075 746 c-12 -8 -32 -12 -51 -9 -38 6 -53 -11 -24 -27 17 -9 27 -8
46 5 13 9 29 13 35 9 6 -3 22 -3 36 1 24 6 25 7 7 20 -24 18 -26 18 -49 1z"/>
<path d="M2310 740 c-13 -9 -13 -11 0 -20 8 -5 20 -10 25 -10 6 0 17 5 25 10
13 9 13 11 0 20 -8 5 -19 10 -25 10 -5 0 -17 -5 -25 -10z"/>
<path d="M2237 729 c-10 -6 -15 -14 -12 -20 8 -12 52 -12 60 0 9 16 -28 31
-48 20z"/>
<path d="M1925 716 c-18 -13 -17 -15 16 -31 19 -10 79 -42 135 -71 89 -47 103
-52 119 -40 18 13 15 16 -36 41 -29 15 -90 47 -135 71 -71 39 -83 42 -99 30z"/>
<path d="M2131 714 c-12 -9 -30 -13 -41 -9 -11 3 -27 2 -36 -3 -15 -9 -15 -11
5 -22 18 -9 27 -8 45 4 13 8 33 12 44 9 11 -2 28 -1 37 4 14 8 13 11 -8 20
-19 9 -29 8 -46 -3z"/>
<path d="M2365 711 c-19 -8 -19 -8 3 -20 23 -12 62 -7 62 9 0 8 -25 21 -38 19
-4 0 -16 -4 -27 -8z"/>
<path d="M2281 693 c-10 -4 -8 -9 10 -18 16 -9 29 -10 42 -4 35 20 -10 38 -52
22z"/>
<path d="M2185 679 c-4 -5 -19 -8 -33 -5 -15 3 -33 2 -41 -3 -11 -7 -9 -11 8
-21 18 -9 27 -8 47 5 13 9 29 13 35 9 6 -3 22 -3 37 1 20 5 23 8 11 16 -19 12
-56 11 -64 -2z"/>
<path d="M2421 681 c-25 -16 24 -34 51 -20 22 12 22 12 3 20 -27 10 -37 10
-54 0z"/>
<path d="M2347 665 c-16 -11 -16 -13 -1 -19 43 -16 81 3 41 21 -17 8 -28 7
-40 -2z"/>
<path d="M2257 658 c-10 -5 -15 -13 -12 -19 7 -11 45 -12 63 -1 20 13 -30 32
-51 20z"/>
<path d="M2476 645 c-12 -12 -20 -13 -34 -6 -14 7 -25 6 -38 -4 -18 -13 -18
-14 8 -20 14 -4 36 -2 47 5 12 6 29 9 39 6 9 -3 24 -1 32 4 13 9 13 11 0 20
-21 14 -36 12 -54 -5z"/>
<path d="M2172 643 c-10 -4 -10 -8 -1 -19 13 -16 28 -18 49 -4 13 9 13 11 0
20 -16 11 -28 11 -48 3z"/>
<path d="M2317 629 c-10 -6 -15 -14 -12 -20 8 -12 52 -12 60 0 9 16 -28 31
-48 20z"/>
<path d="M2536 614 c-11 -11 -21 -12 -33 -5 -11 6 -24 6 -36 -1 -18 -9 -18
-10 -1 -23 16 -11 23 -11 47 1 15 8 36 13 45 10 9 -3 24 -1 32 4 13 9 13 11 0
20 -21 14 -36 12 -54 -6z"/>
<path d="M2220 610 c-11 -7 -9 -11 13 -19 27 -10 57 -6 57 9 0 18 -46 25 -70
10z"/>
<path d="M2370 600 c-13 -9 -13 -12 4 -25 14 -11 24 -12 39 -3 20 10 20 11 2
24 -22 17 -25 17 -45 4z"/>
<path d="M2600 590 c-13 -9 -13 -11 0 -20 8 -5 20 -10 25 -10 6 0 17 5 25 10
13 9 13 11 0 20 -8 5 -19 10 -25 10 -5 0 -17 -5 -25 -10z"/>
<path d="M2281 581 c-11 -7 -10 -11 6 -19 20 -11 63 -6 63 8 0 18 -46 25 -69
11z"/>
<path d="M2527 579 c-10 -6 -15 -14 -12 -20 8 -12 52 -12 60 0 9 16 -28 31
-48 20z"/>
<path d="M2424 565 c-18 -13 -17 -14 8 -20 15 -4 34 -3 43 2 14 8 13 11 -9 21
-18 8 -28 8 -42 -3z"/>
<path d="M2206 561 c-9 -14 29 -32 49 -25 9 4 14 12 12 18 -5 14 -53 20 -61 7z"/>
<path d="M2655 561 c-19 -8 -19 -8 3 -20 23 -12 62 -7 62 9 0 8 -25 21 -38 19
-4 0 -16 -4 -27 -8z"/>
<path d="M2481 534 c-12 -9 -30 -13 -41 -9 -11 3 -27 2 -36 -3 -15 -9 -15 -11
5 -22 18 -9 27 -8 45 4 13 8 33 12 44 9 11 -2 28 -1 37 4 14 8 13 11 -8 20
-19 9 -29 8 -46 -3z"/>
<path d="M2571 543 c-10 -4 -8 -9 10 -18 17 -9 29 -10 43 -3 33 18 -14 36 -53
21z"/>
<path d="M2265 531 c-10 -17 34 -34 51 -21 7 7 11 16 8 21 -7 12 -51 11 -59 0z"/>
<path d="M2711 531 c-21 -14 25 -34 57 -26 26 6 26 7 8 21 -22 16 -45 18 -65
5z"/>
<path d="M2635 516 c-15 -11 -15 -13 7 -23 18 -8 28 -8 41 2 15 11 15 13 -7
23 -18 8 -28 8 -41 -2z"/>
<path d="M2544 506 c-17 -13 -17 -14 4 -20 12 -4 32 -4 45 -1 17 5 19 4 7 -5
-13 -9 -12 -12 4 -25 22 -17 31 -17 61 -6 17 7 11 13 -41 39 -53 27 -64 29
-80 18z"/>
<path d="M2325 501 c-9 -16 27 -31 49 -19 15 8 16 12 5 19 -18 12 -46 11 -54
0z"/>
<path d="M2694 485 c-15 -11 -16 -14 -4 -15 21 0 44 16 33 23 -6 4 -19 0 -29
-8z"/>
<path d="M2382 473 c-10 -4 -8 -9 7 -20 16 -11 25 -11 42 -2 17 9 19 13 8 20
-15 10 -37 10 -57 2z"/>
<path d="M2511 463 c-10 -4 -8 -9 10 -18 17 -9 29 -10 43 -3 33 18 -14 36 -53
21z"/>
<path d="M2442 443 c-10 -4 -8 -9 7 -20 16 -11 25 -11 42 -2 17 9 19 13 8 20
-15 10 -37 10 -57 2z"/>
<path d="M2572 433 c-6 -2 -9 -9 -6 -14 3 -6 -5 -7 -19 -3 -14 3 -33 1 -43 -4
-16 -9 -16 -10 3 -21 17 -8 30 -6 67 12 25 12 46 25 46 30 0 8 -28 8 -48 0z"/>
</g>
</svg>
