<?xml version="1.0" encoding="UTF-8"?>
<svg version="1.1" xmlns="http://www.w3.org/2000/svg" width="320" height="180">
<path d="M0 0 C105.6 0 211.2 0 320 0 C320 59.4 320 118.8 320 180 C214.4 180 108.8 180 0 180 C0 120.6 0 61.2 0 0 Z " fill="#FCFCFC" transform="translate(0,0)"/>
<path d="M0 0 C0 59.4 0 118.8 0 180 C-51.48 180 -102.96 180 -156 180 C-155.67 179.01 -155.34 178.02 -155 177 C-152.70401807 175.91698965 -150.36522558 174.92203709 -148 174 C-147.360625 173.649375 -146.72125 173.29875 -146.0625 172.9375 C-143.49737527 171.77153422 -140.85931857 171.20586908 -138.125 170.5625 C-136.08762334 170.02319441 -134.20518434 169.34457374 -132.25 168.5625 C-125.1063595 165.78128028 -117.55555525 164.1882624 -110 163 C-110.02320313 162.44594482 -110.04640625 161.89188965 -110.0703125 161.32104492 C-110.28808046 151.25413754 -109.05089734 141.30748589 -108 131.3125 C-107.80678247 129.43559922 -107.61406993 127.55864639 -107.421875 125.68164062 C-106.95373854 121.12047252 -106.47876693 116.56006401 -106 112 C-105.34 112 -104.68 112 -104 112 C-104.020625 110.9275 -104.04125 109.855 -104.0625 108.75 C-104 105 -104 105 -103.51147461 103.05029297 C-102.95045531 100.80139557 -102.8250477 98.76064328 -102.75390625 96.4453125 C-102.70459961 95.15173828 -102.70459961 95.15173828 -102.65429688 93.83203125 C-102.59336794 92.03527591 -102.5360438 90.23839451 -102.48242188 88.44140625 C-102.33670287 84.75169111 -102.20576951 81.60116975 -101.00390625 78.08984375 C-99.44370547 73.287825 -99.52494862 68.45765475 -99.375 63.4375 C-99.33632812 62.42880859 -99.29765625 61.42011719 -99.2578125 60.38085938 C-98.99182848 52.90955817 -99 45.4844406 -99 38 C-159.39 37.505 -159.39 37.505 -221 37 C-221 36.67 -221 36.34 -221 36 C-213.68130668 35.22324506 -206.47003745 34.85840205 -199.11254883 34.88647461 C-197.57395203 34.88625557 -197.57395203 34.88625557 -196.00427246 34.8860321 C-192.65516961 34.88672196 -189.30612423 34.89447041 -185.95703125 34.90234375 C-183.61862722 34.90421123 -181.2802228 34.90563357 -178.94181824 34.90663147 C-172.81809387 34.91043066 -166.69439362 34.9202385 -160.57067871 34.93133545 C-154.30949225 34.94160569 -148.04830185 34.94614107 -141.78710938 34.95117188 C-129.52472905 34.96186333 -117.26236654 34.97890821 -105 35 C-104.505 34.01 -104.505 34.01 -104 33 C-101.9375 31.875 -101.9375 31.875 -100 31 C-100.495 30.01 -100.495 30.01 -101 29 C-100.1028125 28.87625 -100.1028125 28.87625 -99.1875 28.75 C-96.4033704 27.79544128 -95.56688858 26.42867729 -94 24 C-93.525625 24.70125 -93.05125 25.4025 -92.5625 26.125 C-90.22821138 28.23759349 -90.22821138 28.23759349 -87.765625 27.92578125 C-85.36700709 27.44834934 -83.23113607 27.00921571 -81 26 C-80.67 25.01 -80.34 24.02 -80 23 C-81.65 23 -83.3 23 -85 23 C-85 19.7 -85 16.4 -85 13 C-83.35 13 -81.7 13 -80 13 C-80 11.68 -80 10.36 -80 9 C-81.65 9 -83.3 9 -85 9 C-85 7.35 -85 5.7 -85 4 C-86.32 4 -87.64 4 -89 4 C-89.33 3.01 -89.66 2.02 -90 1 C-63.16552797 -12.41723601 -30.00185179 0 0 0 Z " fill="#FCFCFC" transform="translate(320,0)"/>
<path d="M0 0 C39.93 0 79.86 0 121 0 C121 16.06887175 121 16.06887175 120.23046875 23.7265625 C120.14984192 24.58553635 120.06921509 25.44451019 119.98614502 26.32951355 C119.81427729 28.15391223 119.6395638 29.97804487 119.46212769 31.8019104 C118.98804584 36.6753285 118.53487112 41.55071349 118.078125 46.42578125 C117.98554916 47.40715561 117.89297333 48.38852997 117.79759216 49.39964294 C116.93959513 58.53168063 116.17845441 67.67035202 115.4375 76.8125 C114.12797153 92.89221842 112.60766398 108.94748373 111 125 C98.58057884 129.23849439 98.58057884 129.23849439 92.5 130.625 C88.7281884 131.46101045 88.7281884 131.46101045 85.19921875 132.95703125 C81.7361631 134.59936848 78.04339406 135.24413041 74.3125 136.0625 C69.25360978 136.77720868 69.25360978 136.77720868 65 139 C59.00301206 139.6814759 54.05037822 137.94920505 48.37890625 136.0703125 C42.71811932 134.27718462 36.93747865 132.98469272 31.16455078 131.60717773 C28.41896826 130.93756481 25.68593016 130.22309843 22.95361328 129.50146484 C21.17445587 129.04478035 19.38250213 128.63870322 17.58984375 128.23828125 C14.65863602 127.44658483 12.53028727 126.66917959 10 125 C9.16137695 122.97904968 9.16137695 122.97904968 8.80078125 120.45581055 C8.65930664 119.46624359 8.51783203 118.47667664 8.37207031 117.4571228 C7.61294924 110.40368514 7.06352906 103.34486715 6.5625 96.26953125 C6.43617676 94.54908785 6.30929346 92.8286855 6.18188477 91.10832214 C5.84875775 86.5921288 5.5224603 82.07546915 5.19787598 77.55865479 C4.68165505 70.39445731 4.15400029 63.23108664 3.62854004 56.0675621 C3.43858053 53.47179657 3.24995837 50.87593642 3.06152344 48.28005981 C2.30945467 37.95739802 1.51421166 27.64015843 0.55834961 17.3339386 C0.03749745 11.48330661 0 5.92926669 0 0 Z " fill="#E6C832" transform="translate(99,38)"/>
<path d="M0 0 C6.79930835 -0.02529479 13.59860463 -0.04284349 20.39794922 -0.05493164 C22.71240696 -0.05996943 25.0268615 -0.06679981 27.34130859 -0.07543945 C30.6624429 -0.08752924 33.98353525 -0.09323375 37.3046875 -0.09765625 C38.86411575 -0.10539818 38.86411575 -0.10539818 40.45504761 -0.11329651 C41.41589264 -0.11337204 42.37673767 -0.11344757 43.36669922 -0.11352539 C44.21497284 -0.115746 45.06324646 -0.11796661 45.93722534 -0.12025452 C48 0 48 0 50 1 C49.73697142 5.14451875 49.47031976 9.28878444 49.20043945 13.43286133 C49.10929563 14.84002511 49.01910872 16.24725123 48.92993164 17.65454102 C48.80091351 19.687838 48.66835258 21.72087919 48.53515625 23.75390625 C48.456604 24.97408447 48.37805176 26.1942627 48.29711914 27.45141602 C48.10262747 29.77428898 47.84298335 32.09283901 47.51147461 34.40014648 C46.92277264 38.54354055 46.58462293 42.67146554 46.28125 46.84375 C46.21881104 47.6827182 46.15637207 48.5216864 46.09204102 49.38607788 C45.89206474 52.09053232 45.69606422 54.79525942 45.5 57.5 C45.39812378 58.87578217 45.39812378 58.87578217 45.29418945 60.27935791 C44.42241739 72.05885555 43.60875259 83.82294615 43.46679688 95.63867188 C43.32109099 101.60321258 43.32109099 101.60321258 41.63818359 103.68286133 C39.30038782 105.56250487 37.02202227 106.05177113 34.125 106.8125 C32.27455078 107.31136719 32.27455078 107.31136719 30.38671875 107.8203125 C29.69755371 108.00368164 29.00838867 108.18705078 28.29833984 108.37597656 C22.91143173 109.83857877 17.55885414 111.42762965 12.19775391 112.98168945 C10.90683838 113.35233521 10.90683838 113.35233521 9.58984375 113.73046875 C8.82534912 113.95114014 8.06085449 114.17181152 7.27319336 114.39916992 C4.86369301 115.03602744 2.445102 115.52045437 0 116 C-0.15416678 101.90912428 -0.30212087 87.81819498 -0.4429636 73.72717953 C-0.50854423 67.18405276 -0.5761031 60.64095893 -0.64819336 54.09790039 C-0.71770088 47.78263481 -0.78199835 41.46733564 -0.84269524 35.15197945 C-0.86675699 32.7434554 -0.89269091 30.33494929 -0.92053413 27.92646599 C-0.95923316 24.55118488 -0.99125479 21.17590112 -1.02172852 17.80053711 C-1.03467453 16.80647354 -1.04762054 15.81240997 -1.06095886 14.78822327 C-1.09932543 9.7371745 -0.87849908 4.97697862 0 0 Z " fill="#FADC25" transform="translate(160,49)"/>
<path d="M0 0 C47.52 0 95.04 0 144 0 C143.67 1.32 143.34 2.64 143 4 C144.32 4 145.64 4 147 4 C147 5.65 147 7.3 147 9 C148.65 9 150.3 9 152 9 C152 10.32 152 11.64 152 13 C150.35 13 148.7 13 147 13 C147 16.3 147 19.6 147 23 C148.65 23 150.3 23 152 23 C151.6875 24.875 151.6875 24.875 151 27 C147.71324342 29.19117105 146.76450466 29.09652576 143 29 C142.34 29.33 141.68 29.66 141 30 C138 26.25 138 26.25 138 24 C137.01 24.66 136.02 25.32 135 26 C132.95703125 26.1953125 132.95703125 26.1953125 130.8125 26.125 C129.554375 26.08375 128.29625 26.0425 127 26 C127 27.98 127 29.96 127 32 C125.35 32 123.7 32 122 32 C121.67 25.4 121.34 18.8 121 12 C120.34 12.33 119.68 12.66 119 13 C118.53045739 16.04581269 118.53045739 16.04581269 118.375 19.5625 C118.30023438 20.76003906 118.22546875 21.95757813 118.1484375 23.19140625 C118.07496094 24.58166016 118.07496094 24.58166016 118 26 C116.02 26 114.04 26 112 26 C111.505 20.06 111.505 20.06 111 14 C109.02 14 107.04 14 105 14 C105 18.29 105 22.58 105 27 C103.02 27 101.04 27 99 27 C98.505 25.02 98.505 25.02 98 23 C97.46375 23.66 96.9275 24.32 96.375 25 C94 27 94 27 90.875 27.3125 C88 27 88 27 86 26 C84.8509288 27.9254644 84.8509288 27.9254644 85 30 C82.29120665 31.35439668 79.99066732 31.06501451 77 31 C77.99 30.505 77.99 30.505 79 30 C79 29.01 79 28.02 79 27 C77.64455078 27.01740234 77.64455078 27.01740234 76.26171875 27.03515625 C75.08222656 27.04417969 73.90273437 27.05320312 72.6875 27.0625 C71.51574219 27.07410156 70.34398437 27.08570312 69.13671875 27.09765625 C66 27 66 27 63 26 C63 25.01 63 24.02 63 23 C62.62230469 23.47050781 62.24460937 23.94101562 61.85546875 24.42578125 C59.41445314 26.49679029 57.45509934 26.70686716 54.3125 27.1875 C53.31863281 27.34605469 52.32476562 27.50460938 51.30078125 27.66796875 C50.16189453 27.83232422 50.16189453 27.83232422 49 28 C48.505 29.485 48.505 29.485 48 31 C45.1875 30.8125 45.1875 30.8125 42 30 C40.125 27.4375 40.125 27.4375 39 25 C38.34 25.66 37.68 26.32 37 27 C33.77018295 27.18281983 30.86489461 27.20480469 27.70703125 26.45703125 C24.35041549 25.89032989 21.38563749 26.17894817 18 26.5 C13.72917457 26.90499207 10.16978975 27.07403675 6 26 C6 25.01 6 24.02 6 23 C5.360625 23.474375 4.72125 23.94875 4.0625 24.4375 C0.07818481 26.47031387 -3.58494074 26.7210529 -8 27 C-8 25.35 -8 23.7 -8 22 C-5.69 22 -3.38 22 -1 22 C-1 17.38 -1 12.76 -1 8 C-2.65 8 -4.3 8 -6 8 C-6 6.35 -6 4.7 -6 3 C-4.35 3 -2.7 3 -1 3 C-0.67 2.01 -0.34 1.02 0 0 Z M6 20 C7 23 7 23 7 23 Z " fill="#F7F7F7" transform="translate(88,0)"/>
<path d="M0 0 C13.67302562 -0.0231205 27.34604664 -0.04091359 41.01908779 -0.05181217 C47.36730576 -0.05704164 53.7155104 -0.06414044 60.0637207 -0.07543945 C66.18448582 -0.08626606 72.30523809 -0.09227635 78.42601204 -0.09487724 C80.76690943 -0.0967319 83.10780609 -0.10035329 85.44869804 -0.10573006 C88.71508202 -0.11293748 91.98141215 -0.11399107 95.24780273 -0.11352539 C96.226035 -0.11712067 97.20426727 -0.12071594 98.21214294 -0.12442017 C99.09700378 -0.1230455 99.98186462 -0.12167084 100.89353943 -0.12025452 C101.66692374 -0.12117631 102.44030806 -0.1220981 103.23712826 -0.12304783 C105 0 105 0 106 1 C105.93444102 3.55680018 105.80674724 6.07599491 105.625 8.625 C105.58117187 9.32496094 105.53734375 10.02492188 105.4921875 10.74609375 C105.27371073 14.01717649 104.96831528 17.21786317 104.49609375 20.46484375 C103.9127859 24.62148627 103.656456 28.74862047 103.4375 32.9375 C103.37272461 34.10635742 103.37272461 34.10635742 103.30664062 35.29882812 C103.20171923 37.19907117 103.1004755 39.09951669 103 41 C102.34 41 101.68 41 101 41 C101.01047363 41.60134766 101.02094727 42.20269531 101.03173828 42.82226562 C101.21778004 55.28470864 100.94975201 67.55438198 99.78393555 79.96557617 C99.0207458 88.21220917 98.6137118 96.44412399 98.34204102 104.72070312 C98.12076137 111.17553736 97.64922169 117.5740302 97 124 C89.93062538 126.46926737 82.89629494 128.62047024 75.59375 130.2890625 C73.06801919 130.8794914 73.06801919 130.8794914 71.19921875 131.95703125 C67.7361631 133.59936848 64.04339406 134.24413041 60.3125 135.0625 C55.25360978 135.77720868 55.25360978 135.77720868 51 138 C45.00301206 138.6814759 40.05037822 136.94920505 34.37890625 135.0703125 C29.30368978 133.46267168 24.15097429 132.26135545 18.96484375 131.0703125 C17.62239583 130.75520833 16.27994792 130.44010417 14.9375 130.125 C14.26912109 129.97675781 13.60074219 129.82851562 12.91210938 129.67578125 C7.35357801 128.34691952 0.21300413 125.99800642 -3 121 C-4.11186537 114.35197162 -4.15037303 107.79058228 -4.125 101.0625 C-4.12886719 100.00998047 -4.13273437 98.95746094 -4.13671875 97.87304688 C-4.13478516 96.37547852 -4.13478516 96.37547852 -4.1328125 94.84765625 C-4.13168457 93.94023682 -4.13055664 93.03281738 -4.12939453 92.09790039 C-4 90 -4 90 -3 89 C-2.92851801 87.64756083 -2.91600546 86.29165633 -2.9375 84.9375 C-2.958125 83.638125 -2.97875 82.33875 -3 81 C-2.34 81 -1.68 81 -1 81 C-1 81.66 -1 82.32 -1 83 C0.22976562 82.89171875 0.22976562 82.89171875 1.484375 82.78125 C2.56203125 82.6884375 3.6396875 82.595625 4.75 82.5 C5.81734375 82.4071875 6.8846875 82.314375 7.984375 82.21875 C10.3179218 82.04947717 12.66032182 82 15 82 C15 82.99 15 83.98 15 85 C8.565 85.495 8.565 85.495 2 86 C2.33 86.99 2.66 87.98 3 89 C3.08209792 90.77313851 3.10746294 92.54920775 3.09765625 94.32421875 C3.09282227 95.86625977 3.09282227 95.86625977 3.08789062 97.43945312 C3.07951172 98.51130859 3.07113281 99.58316406 3.0625 100.6875 C3.05798828 101.77095703 3.05347656 102.85441406 3.04882812 103.97070312 C3.03703743 106.64719085 3.02058063 109.32356777 3 112 C3.99 112 4.98 112 6 112 C6 112.66 6 113.32 6 114 C6.969375 114.03738281 7.93875 114.07476562 8.9375 114.11328125 C18.86270086 114.57288537 28.27499117 115.95963327 38 118 C39.65 118.33 41.3 118.66 43 119 C43.33 87.98 43.66 56.96 44 25 C44.99 25 45.98 25 47 25 C47 58.33 47 91.66 47 126 C57.36380435 122.77046142 57.36380435 122.77046142 67.7109375 119.48828125 C68.92007813 119.10027344 70.12921875 118.71226562 71.375 118.3125 C72.59960938 117.91675781 73.82421875 117.52101563 75.0859375 117.11328125 C79.64904766 115.72938718 84.31630512 114.86918225 89 114 C89.01458252 113.45738525 89.02916504 112.91477051 89.04418945 112.35571289 C89.4724908 97.58309996 90.36228066 82.86224498 91.4375 68.125 C91.52966293 66.8421965 91.52966293 66.8421965 91.62368774 65.53347778 C92.34908113 55.49444205 93.20145285 45.48221597 94.3188324 35.47854614 C95.00381012 29.29483031 95.42297 23.1197469 95.75390625 16.90625 C96 14 96 14 97 11 C96.34 11 95.68 11 95 11 C95 9.68 95 8.36 95 7 C96.32 7 97.64 7 99 7 C99 10.3 99 13.6 99 17 C99.99 17 100.98 17 102 17 C101.67 12.71 101.34 8.42 101 4 C99.68 3.67 98.36 3.34 97 3 C97 2.34 97 1.68 97 1 C64.99 1 32.98 1 0 1 C0 0.67 0 0.34 0 0 Z " fill="#E8C92D" transform="translate(113,39)"/>
<path d="M0 0 C11.55 0 23.1 0 35 0 C35.78984608 3.9492304 36.09354376 5.97632325 35.625 9.75 C35.48964844 10.91789062 35.48964844 10.91789062 35.3515625 12.109375 C35 14 35 14 34 15 C32.5112814 15.08669432 31.018555 15.10703494 29.52734375 15.09765625 C28.71773193 15.09515869 27.90812012 15.09266113 27.07397461 15.09008789 C26.03893799 15.08098389 25.00390137 15.07187988 23.9375 15.0625 C20.658125 15.041875 17.37875 15.02125 14 15 C14 22.92 14 30.84 14 39 C20.6 39 27.2 39 34 39 C34.020625 41.805 34.04125 44.61 34.0625 47.5 C34.071604 48.36689453 34.08070801 49.23378906 34.09008789 50.12695312 C34.1051965 54.4275466 33.85329525 58.53510396 33.25170898 62.80322266 C32.59422811 68.54135355 32.58529594 74.35808756 32.39453125 80.12695312 C32.35714844 81.12533203 32.31976563 82.12371094 32.28125 83.15234375 C32.25095703 84.05976318 32.22066406 84.96718262 32.18945312 85.90209961 C32 88 32 88 31 89 C29.60696395 89.13657216 28.20993879 89.23271149 26.8125 89.3125 C21.07493675 89.80711752 15.86139275 91.40451273 10.39453125 93.16015625 C6.80700625 94.04774874 3.68088149 94.14499025 0 94 C-0.02694851 92.04174127 -0.04637218 90.08337774 -0.0625 88.125 C-0.07410156 87.03445312 -0.08570313 85.94390625 -0.09765625 84.8203125 C0 82 0 82 1 80 C4.71469824 77.8537299 6.64144712 77 11 77 C11 76.34 11 75.68 11 75 C15.95 74.01 15.95 74.01 21 73 C21.33 66.4 21.66 59.8 22 53 C17.37801561 53.65284235 17.37801561 53.65284235 12.75756836 54.31640625 C8.38771502 54.91627172 4.47696529 55 0 55 C0 36.85 0 18.7 0 0 Z " fill="#FCFCF7" transform="translate(165,63)"/>
<path d="M0 0 C24.09 0 48.18 0 73 0 C72.67 1.32 72.34 2.64 72 4 C73.32 4 74.64 4 76 4 C76 5.65 76 7.3 76 9 C77.65 9 79.3 9 81 9 C81 10.32 81 11.64 81 13 C79.35 13 77.7 13 76 13 C76 16.3 76 19.6 76 23 C77.65 23 79.3 23 81 23 C80.6875 24.875 80.6875 24.875 80 27 C76.71324342 29.19117105 75.76450466 29.09652576 72 29 C71.34 29.33 70.68 29.66 70 30 C67 26.25 67 26.25 67 24 C66.01 24.66 65.02 25.32 64 26 C61.95703125 26.1953125 61.95703125 26.1953125 59.8125 26.125 C58.554375 26.08375 57.29625 26.0425 56 26 C56 27.98 56 29.96 56 32 C54.35 32 52.7 32 51 32 C50.67 25.4 50.34 18.8 50 12 C49.34 12.33 48.68 12.66 48 13 C47.53045739 16.04581269 47.53045739 16.04581269 47.375 19.5625 C47.30023438 20.76003906 47.22546875 21.95757813 47.1484375 23.19140625 C47.09945312 24.11824219 47.05046875 25.04507812 47 26 C45.02 26 43.04 26 41 26 C40.505 20.06 40.505 20.06 40 14 C38.02 14 36.04 14 34 14 C34 18.29 34 22.58 34 27 C32.02 27 30.04 27 28 27 C27.67 25.68 27.34 24.36 27 23 C26.46375 23.66 25.9275 24.32 25.375 25 C23 27 23 27 19.875 27.3125 C17 27 17 27 15 26 C13.8509288 27.9254644 13.8509288 27.9254644 14 30 C11.29120665 31.35439668 8.99066732 31.06501451 6 31 C6.66 30.67 7.32 30.34 8 30 C8 29.01 8 28.02 8 27 C7.01 26.34 6.02 25.68 5 25 C5.99 24.34 6.98 23.68 8 23 C8.66676878 19.54250051 8.66676878 19.54250051 8 16 C5.85688329 14.0470311 5.85688329 14.0470311 3 13 C2.071875 12.608125 1.14375 12.21625 0.1875 11.8125 C-0.534375 11.544375 -1.25625 11.27625 -2 11 C-1.67 10.01 -1.34 9.02 -1 8 C5.625 7.875 5.625 7.875 9 9 C9 7.68 9 6.36 9 5 C4.545 4.01 4.545 4.01 0 3 C0 2.01 0 1.02 0 0 Z " fill="#F8F8F8" transform="translate(159,0)"/>
<path d="M0 0 C4.62 0 9.24 0 14 0 C14 31.35 14 62.7 14 95 C7.23095451 94.0329935 0.76946349 92.60297632 -5.86328125 90.98876953 C-7.88942425 90.49649547 -9.91724855 90.01163565 -11.9453125 89.52734375 C-13.21890625 89.21925781 -14.4925 88.91117187 -15.8046875 88.59375 C-16.96983887 88.31208984 -18.13499023 88.03042969 -19.33544922 87.74023438 C-22 87 -22 87 -23 86 C-23.08713831 84.29227642 -23.10700007 82.58101351 -23.09765625 80.87109375 C-23.09443359 79.83662109 -23.09121094 78.80214844 -23.08789062 77.73632812 C-23.07951172 76.64771484 -23.07113281 75.55910156 -23.0625 74.4375 C-23.05798828 73.34501953 -23.05347656 72.25253906 -23.04882812 71.12695312 C-23.03699826 68.41791505 -23.02051543 65.70898401 -23 63 C-18.16422707 62.90799956 -14.52850538 63.23277839 -10 65 C-10 68.63 -10 72.26 -10 76 C-6.7 76.33 -3.4 76.66 0 77 C0 51.59 0 26.18 0 0 Z " fill="#FBFCF9" transform="translate(141,63)"/>
<path d="M0 0 C0.33 0 0.66 0 1 0 C1 7.59 1 15.18 1 23 C2.65 23 4.3 23 6 23 C6 21.02 6 19.04 6 17 C7.27875 16.855625 8.5575 16.71125 9.875 16.5625 C12.25692894 16.29357254 13.84452691 16.07773654 16 15 C14.68954637 18.93136089 13.16791954 21.31206827 10 24 C8.515 24.495 8.515 24.495 7 25 C7.99 25.99 7.99 25.99 9 27 C-27.96 27 -64.92 27 -103 27 C-94.71003906 27.06058594 -86.42007813 27.12117188 -77.87890625 27.18359375 C-71.9771882 27.22920766 -66.07547763 27.27544454 -60.17377186 27.32258511 C-52.51877967 27.38364682 -44.86378513 27.44321391 -37.20874023 27.49731445 C-30.50438891 27.54470133 -23.80009613 27.597221 -17.09580803 27.65294075 C-14.53163909 27.67339923 -11.9674556 27.69210638 -9.40326118 27.70907402 C-5.82550895 27.73304096 -2.24785805 27.76310571 1.32983398 27.79467773 C2.40157364 27.8004332 3.47331329 27.80618866 4.57752991 27.81211853 C5.54653229 27.82190735 6.51553467 27.83169617 7.51390076 27.84178162 C8.78459239 27.85146044 8.78459239 27.85146044 10.08095455 27.8613348 C12 28 12 28 13 29 C13.53316409 37.42085638 12.91876195 46.01314486 12.625 54.4375 C12.59422363 55.4797876 12.56344727 56.5220752 12.53173828 57.59594727 C12.32751382 62.8460412 11.71495925 67.01716563 10 72 C9.66356521 75.22398351 9.5871406 78.44842003 9.5 81.6875 C9.23090909 88.94171479 8.67481577 95.91048858 7 103 C6.67 103 6.34 103 6 103 C6 78.27709115 8.87659035 53.63155199 11 29 C-28.93 29 -68.86 29 -110 29 C-110.33 29.66 -110.66 30.32 -111 31 C-111.33 28.36 -111.66 25.72 -112 23 C-111.34 22.67 -110.68 22.34 -110 22 C-110 22.66 -110 23.32 -110 24 C-109.34 23.67 -108.68 23.34 -108 23 C-108 21.68 -108 20.36 -108 19 C-107.34 19 -106.68 19 -106 19 C-106 18.34 -106 17.68 -106 17 C-98.16296501 16.10364669 -91.61399923 15.80613581 -84 18 C-83.67 17.01 -83.34 16.02 -83 15 C-79.535 17.97 -79.535 17.97 -76 21 C-75.34 20.67 -74.68 20.34 -74 20 C-74 19.34 -74 18.68 -74 18 C-69.59085217 16.89771304 -65.51617599 16.92345464 -61 17 C-60.505 15.515 -60.505 15.515 -60 14 C-59.34 14 -58.68 14 -58 14 C-58 14.99 -58 15.98 -58 17 C-52.72 17 -47.44 17 -42 17 C-41.505 17.99 -41.505 17.99 -41 19 C-41.33 19.66 -41.66 20.32 -42 21 C-38.94689595 20.4951823 -38.94689595 20.4951823 -36.75 18.4375 C-34.24662912 16.38115964 -32.10502102 17.01729608 -29.0078125 17.16015625 C-25.84658068 16.90799574 -24.17111034 15.17111034 -22 13 C-22 14.65 -22 16.3 -22 18 C-20.02 18 -18.04 18 -16 18 C-16 13.71 -16 9.42 -16 5 C-14.02 5 -12.04 5 -10 5 C-9.67 4.01 -9.34 3.02 -9 2 C-9 6.95 -9 11.9 -9 17 C-7.02 17 -5.04 17 -3 17 C-3 12.05 -3 7.1 -3 2 C-2.34 2 -1.68 2 -1 2 C-0.67 1.34 -0.34 0.68 0 0 Z " fill="#F9FAF9" transform="translate(209,9)"/>
<path d="M0 0 C8.91 0 17.82 0 27 0 C26.67 1.32 26.34 2.64 26 4 C27.32 4 28.64 4 30 4 C30 5.65 30 7.3 30 9 C31.65 9 33.3 9 35 9 C35 10.32 35 11.64 35 13 C33.35 13 31.7 13 30 13 C30 16.3 30 19.6 30 23 C31.65 23 33.3 23 35 23 C34.6875 24.875 34.6875 24.875 34 27 C30.71324342 29.19117105 29.76450466 29.09652576 26 29 C25.34 29.33 24.68 29.66 24 30 C21 26.25 21 26.25 21 24 C20.01 24.66 19.02 25.32 18 26 C15.95703125 26.1953125 15.95703125 26.1953125 13.8125 26.125 C12.554375 26.08375 11.29625 26.0425 10 26 C10 27.98 10 29.96 10 32 C8.35 32 6.7 32 5 32 C4.67 25.4 4.34 18.8 4 12 C3.01 12.495 3.01 12.495 2 13 C1.53045739 16.04581269 1.53045739 16.04581269 1.375 19.5625 C1.30023438 20.76003906 1.22546875 21.95757813 1.1484375 23.19140625 C1.09945312 24.11824219 1.05046875 25.04507812 1 26 C-0.65 26 -2.3 26 -4 26 C-3.98839844 24.78441406 -3.97679687 23.56882812 -3.96484375 22.31640625 C-3.95546722 20.73177236 -3.94636687 19.14713682 -3.9375 17.5625 C-3.92912109 16.76005859 -3.92074219 15.95761719 -3.91210938 15.13085938 C-3.9034857 13.08704779 -3.9477185 11.04316098 -4 9 C-4.33 8.67 -4.66 8.34 -5 8 C-5.04063832 6.33382885 -5.042721 4.66611905 -5 3 C-3.35 2.34 -1.7 1.68 0 1 C0 0.67 0 0.34 0 0 Z " fill="#EEEEEE" transform="translate(205,0)"/>
<path d="M0 0 C0.99 0 1.98 0 3 0 C3.02730494 2.18742879 3.04653255 4.37495907 3.0625 6.5625 C3.07410156 7.78066406 3.08570313 8.99882813 3.09765625 10.25390625 C3 14 3 14 2.54101562 17.13085938 C1.91148034 21.6330594 1.56451554 26.11936143 1.24609375 30.65234375 C1.18092056 31.55247696 1.11574738 32.45261017 1.04859924 33.38002014 C0.84260486 36.2323538 0.64000045 39.08491638 0.4375 41.9375 C0.29775056 43.88087553 0.1577789 45.8242351 0.01757812 47.76757812 C-0.32418577 52.5115379 -0.66291126 57.25570583 -1 62 C-1.66 61.67 -2.32 61.34 -3 61 C-3 52.75 -3 44.5 -3 36 C-9.93 35.67 -16.86 35.34 -24 35 C-24.91357293 30.43213534 -25.11609566 26.30084907 -25.0625 21.6875 C-25.05798828 20.94693359 -25.05347656 20.20636719 -25.04882812 19.44335938 C-25.03712175 17.62887101 -25.01918898 15.81442466 -25 14 C-20.94691667 12.89210465 -16.92888626 12.66268733 -12.75 12.4375 C-12.00492188 12.39431641 -11.25984375 12.35113281 -10.4921875 12.30664062 C-8.661651 12.20103275 -6.83084824 12.10005799 -5 12 C-4.80664062 11.38511719 -4.61328125 10.77023438 -4.4140625 10.13671875 C-4.15367187 9.32847656 -3.89328125 8.52023438 -3.625 7.6875 C-3.24214844 6.48673828 -3.24214844 6.48673828 -2.8515625 5.26171875 C-2 3 -2 3 0 0 Z " fill="#FCDB22" transform="translate(205,66)"/>
<path d="M0 0 C6.79930835 -0.02529479 13.59860463 -0.04284349 20.39794922 -0.05493164 C22.71240696 -0.05996943 25.0268615 -0.06679981 27.34130859 -0.07543945 C30.6624429 -0.08752924 33.98353525 -0.09323375 37.3046875 -0.09765625 C38.86411575 -0.10539818 38.86411575 -0.10539818 40.45504761 -0.11329651 C41.41589264 -0.11337204 42.37673767 -0.11344757 43.36669922 -0.11352539 C44.21497284 -0.115746 45.06324646 -0.11796661 45.93722534 -0.12025452 C48 0 48 0 50 1 C49.34 5.62 48.68 10.24 48 15 C47.34 15 46.68 15 46 15 C46 14.34 46 13.68 46 13 C41.16681988 11.71490197 36.49278248 11.96745921 31.54296875 12.12109375 C30.64000565 12.14470474 29.73704254 12.16831573 28.80671692 12.19264221 C25.93347279 12.26898246 23.06051856 12.35313377 20.1875 12.4375 C18.23504005 12.49075038 16.28256611 12.54349056 14.33007812 12.59570312 C9.55320316 12.72455735 4.77657297 12.86041557 0 13 C-1.0161692 8.37078475 -0.83796731 4.65537393 0 0 Z " fill="#FBDC21" transform="translate(160,49)"/>
<path d="M0 0 C0.33 0 0.66 0 1 0 C1 4.29 1 8.58 1 13 C0.505 12.01 0.505 12.01 0 11 C-0.99 11 -1.98 11 -3 11 C-4.54870938 13.65493037 -5.35419927 16.22115785 -6.0625 19.1875 C-7 23 -7 23 -8 24 C-9.48638992 24.15655027 -10.97949127 24.25066943 -12.47265625 24.31640625 C-13.68707397 24.37356812 -13.68707397 24.37356812 -14.92602539 24.43188477 C-15.96106201 24.47498779 -16.99609863 24.51809082 -18.0625 24.5625 C-22.9815625 24.7790625 -22.9815625 24.7790625 -28 25 C-27.67 31.93 -27.34 38.86 -27 46 C-21.06 46 -15.12 46 -9 46 C-9 46.33 -9 46.66 -9 47 C-15.6 47 -22.2 47 -29 47 C-29 39.08 -29 31.16 -29 23 C-19.1 22.505 -19.1 22.505 -9 22 C-8.505 15.565 -8.505 15.565 -8 9 C-19.55 8.67 -31.1 8.34 -43 8 C-43 26.15 -43 44.3 -43 63 C-35.08 62.01 -35.08 62.01 -27 61 C-25.02 61 -23.04 61 -21 61 C-20.89847201 67.7685324 -20.96973056 74.30324864 -22 81 C-25.96 81.99 -25.96 81.99 -30 83 C-29.34 82.01 -28.68 81.02 -28 80 C-26.35 80 -24.7 80 -23 80 C-23 74.72 -23 69.44 -23 64 C-24.485 64.495 -24.485 64.495 -26 65 C-29.01710399 65.22347527 -32.03794064 65.18513522 -35.0625 65.1875 C-35.89072266 65.19974609 -36.71894531 65.21199219 -37.57226562 65.22460938 C-38.76045898 65.22750977 -38.76045898 65.22750977 -39.97265625 65.23046875 C-40.69718994 65.23457764 -41.42172363 65.23868652 -42.16821289 65.24291992 C-44 65 -44 65 -46 63 C-46.20254517 60.70944214 -46.20254517 60.70944214 -46.13525391 57.81591797 C-46.11508209 56.73494843 -46.09491028 55.65397888 -46.0741272 54.54025269 C-46.04193085 53.36939117 -46.0097345 52.19852966 -45.9765625 50.9921875 C-45.95153656 49.79643097 -45.92651062 48.60067444 -45.90072632 47.36868286 C-45.81834006 43.53717478 -45.72182171 39.7061679 -45.625 35.875 C-45.56677955 33.28257278 -45.50947589 30.69012479 -45.453125 28.09765625 C-45.31273349 21.73149144 -45.16072787 15.36568206 -45 9 C-45.66 9 -46.32 9 -47 9 C-47 24.84 -47 40.68 -47 57 C-47.33 57 -47.66 57 -48 57 C-48 40.5 -48 24 -48 7 C-44.71706889 5.35853444 -41.06307798 5.71372062 -37.44921875 5.61328125 C-36.59826126 5.58775681 -35.74730377 5.56223236 -34.87055969 5.53593445 C-33.06750571 5.48388189 -31.26437416 5.43446028 -29.46118164 5.38745117 C-26.70868961 5.31307259 -23.95704794 5.22233691 -21.20507812 5.13085938 C-19.45315268 5.08232362 -17.70119982 5.03476586 -15.94921875 4.98828125 C-15.12822189 4.95922195 -14.30722504 4.93016266 -13.46134949 4.90022278 C-9.15313438 4.80590603 -5.92973696 4.97654883 -2 7 C-2 7.66 -2 8.32 -2 9 C-1.34 9 -0.68 9 0 9 C0 6.03 0 3.06 0 0 Z " fill="#F0DC3D" transform="translate(208,55)"/>
<path d="M0 0 C4.62 0 9.24 0 14 0 C14 31.35 14 62.7 14 95 C6.125 93.875 6.125 93.875 3 92 C5.64 92 8.28 92 11 92 C11.33 62.3 11.66 32.6 12 2 C8.7 2 5.4 2 2 2 C2.10762166 11.04058775 2.22027926 20.08109471 2.33933926 29.12153912 C2.39446782 33.3195254 2.44787146 37.51751877 2.49731445 41.71557617 C2.54510682 45.76806863 2.59745452 49.82047914 2.65294075 53.87287331 C2.67329706 55.41777311 2.69202099 56.96269532 2.70907402 58.50763512 C2.7332675 60.67403622 2.76330071 62.84028446 2.79467773 65.0065918 C2.81022202 66.23903122 2.8257663 67.47147064 2.84178162 68.74125671 C2.9142071 71.94509856 2.9142071 71.94509856 3.57533264 74.81208801 C4 77 4 77 3 79 C1.04196493 79.05389087 -0.91648909 79.09274217 -2.875 79.125 C-4.51082031 79.15980469 -4.51082031 79.15980469 -6.1796875 79.1953125 C-9 79 -9 79 -11 77 C-11.1953125 74.1796875 -11.1953125 74.1796875 -11.125 70.875 C-11.10695312 69.77929688 -11.08890625 68.68359375 -11.0703125 67.5546875 C-11.04710937 66.71164063 -11.02390625 65.86859375 -11 65 C-10.67 65 -10.34 65 -10 65 C-10 68.63 -10 72.26 -10 76 C-6.7 76.33 -3.4 76.66 0 77 C0 51.59 0 26.18 0 0 Z " fill="#FCF6C6" transform="translate(141,63)"/>
<path d="M0 0 C0.66 0 1.32 0 2 0 C1.67 6.27 1.34 12.54 1 19 C-6.09037535 21.44786768 -13.09317833 23.61806494 -20.40625 25.2890625 C-22.93198081 25.8794914 -22.93198081 25.8794914 -24.80078125 26.95703125 C-28.2638369 28.59936848 -31.95660594 29.24413041 -35.6875 30.0625 C-40.74639022 30.77720868 -40.74639022 30.77720868 -45 33 C-50.99698794 33.6814759 -55.94962178 31.94920505 -61.62109375 30.0703125 C-65.38356758 28.87849998 -69.16384949 27.91929944 -73 27 C-75.75071691 26.3362464 -78.50057019 25.66906277 -81.25 25 C-81.94351563 24.835 -82.63703125 24.67 -83.3515625 24.5 C-86.78867638 23.6571828 -89.92404336 22.77581002 -93 21 C-92.67 20.34 -92.34 19.68 -92 19 C-90.35 19 -88.7 19 -87 19 C-86.67 19.66 -86.34 20.32 -86 21 C-83.49266998 21.58473398 -83.49266998 21.58473398 -80.5 21.9375 C-76.59865318 22.51923929 -73.01847827 23.21129376 -69.3125 24.5625 C-65.06716751 26.07040498 -60.54011263 27.41936783 -56 27 C-54.41541447 25.64991292 -54.41541447 25.64991292 -53 24 C-45.29717369 18.89506086 -36.0804833 17.59642296 -27 18 C-27.33 18.66 -27.66 19.32 -28 20 C-29.65 20 -31.3 20 -33 20 C-33.495 21.485 -33.495 21.485 -34 23 C-36.4375 24.125 -36.4375 24.125 -39 25 C-39.99 25.495 -39.99 25.495 -41 26 C-37.7 26 -34.4 26 -31 26 C-31 25.34 -31 24.68 -31 24 C-28.24921116 23.08307039 -26.64051087 22.89113917 -23.8125 22.9375 C-21.9253125 22.9684375 -21.9253125 22.9684375 -20 23 C-20 22.34 -20 21.68 -20 21 C-19.13117188 20.86722656 -18.26234375 20.73445313 -17.3671875 20.59765625 C-16.21476562 20.42105469 -15.06234375 20.24445313 -13.875 20.0625 C-12.73804688 19.88847656 -11.60109375 19.71445313 -10.4296875 19.53515625 C-7.28315133 19.04418193 -4.1412807 18.52354678 -1 18 C-0.67 12.06 -0.34 6.12 0 0 Z " fill="#E5C935" transform="translate(209,144)"/>
<path d="M0 0 C0.99 0 1.98 0 3 0 C3.61319612 12.78579138 4.11633198 25.57432157 4.25 38.375 C4.2819043 39.90640625 4.2819043 39.90640625 4.31445312 41.46875 C4.31896484 42.41492188 4.32347656 43.36109375 4.328125 44.3359375 C4.34214355 45.58189697 4.34214355 45.58189697 4.35644531 46.85302734 C3.91342511 49.52146545 3.11444711 50.36374178 1 52 C-10.52419947 56.22012938 -22.89969698 56.14405123 -35 56 C-35 51.05 -35 46.1 -35 41 C-32.525 40.505 -32.525 40.505 -30 40 C-31.485 40.495 -31.485 40.495 -33 41 C-33.33 45.62 -33.66 50.24 -34 55 C-31.6239729 54.54655971 -29.24928419 54.08740741 -26.875 53.625 C-26.20984375 53.49867188 -25.5446875 53.37234375 -24.859375 53.2421875 C-21.85935836 52.65394894 -19.00981102 52.00355549 -16.1328125 50.9609375 C-11.80993814 49.63496856 -7.49454812 49.33753523 -3 49 C-2.98018066 48.43941895 -2.96036133 47.87883789 -2.93994141 47.30126953 C-2.3624123 31.49739298 -1.30742453 15.75950874 0 0 Z " fill="#F3DB3E" transform="translate(199,102)"/>
<path d="M0 0 C39.93 0 79.86 0 121 0 C121 16.06891658 121 16.06891658 120.23046875 23.7265625 C120.14975128 24.5863974 120.06903381 25.4462323 119.98587036 26.3321228 C119.81390568 28.15739074 119.6391022 29.98239326 119.46157837 31.80712891 C118.99014524 36.65405565 118.53993322 41.50297714 118.0859375 46.3515625 C117.9476931 47.81774017 117.9476931 47.81774017 117.80665588 49.3135376 C116.90866083 58.87027138 116.09801164 68.43344931 115.3125 78 C115.25210541 78.73309387 115.19171082 79.46618774 115.12948608 80.22149658 C114.85157594 83.59548529 114.57492569 86.96957232 114.29931641 90.34375 C113.87204705 95.56298803 113.43672433 100.78154574 113 106 C112.67 106 112.34 106 112 106 C111.72809342 95.72797369 112.28259886 85.6923419 113.21386719 75.46484375 C114.20311703 64.32610171 114.63172004 53.17415295 115 42 C115.66 42 116.32 42 117 42 C116.97679687 40.94683594 116.95359375 39.89367187 116.9296875 38.80859375 C116.80073663 30.17593715 117.17932736 22.00401376 118.5625 13.46484375 C118.8972804 10.81350251 119.04651087 8.43552614 119.02734375 5.78344727 C119.01832031 4.53490967 119.00929688 3.28637207 119 2 C118.17892226 2.00138269 118.17892226 2.00138269 117.3412571 2.00279331 C103.98543096 2.02493512 90.62960807 2.04138968 77.27376747 2.05181217 C70.81482889 2.05702249 64.35590359 2.06408646 57.89697266 2.07543945 C51.65945684 2.08633419 45.42195377 2.09229078 39.18442917 2.09487724 C36.80910415 2.09671964 34.4337798 2.10031732 32.05846024 2.10573006 C28.72206382 2.11302792 25.38571957 2.11398726 22.04931641 2.11352539 C21.0753894 2.11712067 20.1014624 2.12071594 19.09802246 2.12442017 C12.99788458 2.1153298 7.06168624 1.69332648 1 1 C1 3.97 1 6.94 1 10 C0.67 10 0.34 10 0 10 C0 6.7 0 3.4 0 0 Z " fill="#D8C64B" transform="translate(99,38)"/>
<path d="M0 0 C16.01993537 -0.02332916 32.03986526 -0.04097926 48.0598135 -0.05181217 C55.4976451 -0.05697509 62.93546617 -0.06401771 70.37329102 -0.07543945 C76.85381342 -0.08538641 83.33432819 -0.09185346 89.81485802 -0.09408849 C93.24830542 -0.09539558 96.681731 -0.0984813 100.11517143 -0.10573006 C103.94193821 -0.11374416 107.76868335 -0.11399113 111.59545898 -0.11352539 C112.74200455 -0.11712067 113.88855011 -0.12071594 115.06983948 -0.12442017 C116.6243129 -0.12235817 116.6243129 -0.12235817 118.21018982 -0.12025452 C119.11631232 -0.12117631 120.02243483 -0.1220981 120.95601559 -0.12304783 C123 0 123 0 124 1 C124.53316409 9.42085638 123.91876195 18.01314486 123.625 26.4375 C123.59422363 27.4797876 123.56344727 28.5220752 123.53173828 29.59594727 C123.32751382 34.8460412 122.71495925 39.01716563 121 44 C120.66356521 47.22398351 120.5871406 50.44842003 120.5 53.6875 C120.23090909 60.94171479 119.67481577 67.91048858 118 75 C117.67 75 117.34 75 117 75 C117 50.27709115 119.87659035 25.63155199 122 1 C82.07 1 42.14 1 1 1 C0.67 1.66 0.34 2.32 0 3 C0 2.01 0 1.02 0 0 Z " fill="#F4E8B4" transform="translate(98,37)"/>
<path d="M0 0 C2.50009087 2.50009087 2.29712739 3.4212859 2.3125 6.875 C2.32925781 7.73867188 2.34601563 8.60234375 2.36328125 9.4921875 C1.92491673 12.51831676 1.18633156 13.87249351 -1 16 C-3.76142303 16.52799676 -6.16365545 16.18598981 -9 16 C-9 17.98 -9 19.96 -9 22 C-10.65 22 -12.3 22 -14 22 C-14 14.74 -14 7.48 -14 0 C-4 -1 -4 -1 0 0 Z " fill="#070707" transform="translate(224,10)"/>
<path d="M0 0 C0.33 0 0.66 0 1 0 C1 25.08 1 50.16 1 76 C-2.3 75.67 -5.6 75.34 -9 75 C-9 71.37 -9 67.74 -9 64 C-13.29 63.34 -17.58 62.68 -22 62 C-21.67 69.59 -21.34 77.18 -21 85 C-12.75 86.98 -4.5 88.96 4 91 C4 91.33 4 91.66 4 92 C2.80375 91.855625 1.6075 91.71125 0.375 91.5625 C-5.09062911 90.94358506 -10.5690653 90.612872 -16.05859375 90.28125 C-19 90 -19 90 -21 89 C-21 88.34 -21 87.68 -21 87 C-21.99 87 -22.98 87 -24 87 C-24.33 78.42 -24.66 69.84 -25 61 C-21.70039859 59.3501993 -18.00872116 59.61741639 -14.375 59.4375 C-13.57320312 59.39431641 -12.77140625 59.35113281 -11.9453125 59.30664062 C-9.9637489 59.20048543 -7.98189729 59.09973145 -6 59 C-6 60.65 -6 62.3 -6 64 C-6.66 64 -7.32 64 -8 64 C-7.63014388 65.32005558 -7.22806419 66.63111312 -6.8125 67.9375 C-6.59207031 68.66839844 -6.37164062 69.39929688 -6.14453125 70.15234375 C-5.76683594 70.76207031 -5.38914063 71.37179688 -5 72 C-3.35 72.33 -1.7 72.66 0 73 C0 48.91 0 24.82 0 0 Z " fill="#D7C64A" transform="translate(140,64)"/>
<path d="M0 0 C0.66 0.33 1.32 0.66 2 1 C2 2.32 2 3.64 2 5 C-1.3 5 -4.6 5 -8 5 C-8 5.66 -8 6.32 -8 7 C-7.44570312 7.19335938 -6.89140625 7.38671875 -6.3203125 7.5859375 C-5.23363281 7.97652344 -5.23363281 7.97652344 -4.125 8.375 C-3.40570313 8.63023438 -2.68640625 8.88546875 -1.9453125 9.1484375 C0 10 0 10 2 12 C2.5 15.375 2.5 15.375 2 19 C-1.20393324 22.12383491 -3.79827983 23.23136839 -8.1875 23.3125 C-12 23 -12 23 -15 22 C-15 20.02 -15 18.04 -15 16 C-14.01 16.33 -13.02 16.66 -12 17 C-10.60560336 17.06665376 -9.20830125 17.08538199 -7.8125 17.0625 C-6.554375 17.041875 -5.29625 17.02125 -4 17 C-4 16.34 -4 15.68 -4 15 C-4.62648437 14.80664062 -5.25296875 14.61328125 -5.8984375 14.4140625 C-6.71570313 14.15367188 -7.53296875 13.89328125 -8.375 13.625 C-9.59316406 13.24214844 -9.59316406 13.24214844 -10.8359375 12.8515625 C-13 12 -13 12 -15 10 C-15.4446858 6.59074219 -15.36050196 4.65233687 -13.6875 1.625 C-9.41313088 -0.95950226 -4.87595938 -0.4721167 0 0 Z " fill="#0F0F0F" transform="translate(166,4)"/>
<path d="M0 0 C1.39482079 -0.08204828 2.79108728 -0.13966204 4.1875 -0.1875 C5.35345703 -0.23970703 5.35345703 -0.23970703 6.54296875 -0.29296875 C9.82229772 0.09804822 11.5020517 0.81869303 14 3 C14.48828125 6.35546875 14.48828125 6.35546875 14.3125 10.1875 C14.24482422 12.09595703 14.24482422 12.09595703 14.17578125 14.04296875 C14.11777344 15.01878906 14.05976563 15.99460937 14 17 C11.70858714 17.05384521 9.41681812 17.09272087 7.125 17.125 C5.84882813 17.14820312 4.57265625 17.17140625 3.2578125 17.1953125 C0 17 0 17 -2 15 C-2.35380176 12.24034626 -2.43920595 10.65880892 -0.875 8.3125 C1.59505803 6.58345938 4.11875472 5.83235975 7 5 C4.36 4.67 1.72 4.34 -1 4 C-0.67 2.68 -0.34 1.36 0 0 Z " fill="#141414" transform="translate(134,9)"/>
<path d="M0 0 C1.77049689 -0.05410687 3.54146849 -0.09284119 5.3125 -0.125 C6.29863281 -0.14820313 7.28476563 -0.17140625 8.30078125 -0.1953125 C11 0 11 0 14 2 C14.22137393 4.62697064 14.28162025 7.00893964 14.1875 9.625 C14.17396484 10.33140625 14.16042969 11.0378125 14.14648438 11.765625 C14.1111104 13.51074128 14.05730221 15.25546608 14 17 C12.06494977 17.24900646 10.12674066 17.47356242 8.1875 17.6875 C7.10855469 17.81511719 6.02960938 17.94273438 4.91796875 18.07421875 C2 18 2 18 0.13671875 16.7109375 C-1.60798397 14.0848901 -1.39087607 12.06186251 -1 9 C1.98646769 7.00902154 4.59687262 6.05875074 8 5 C5.36 4.67 2.72 4.34 0 4 C0 2.68 0 1.36 0 0 Z " fill="#0F0F0F" transform="translate(97,9)"/>
<path d="M0 0 C12.54 0 25.08 0 38 0 C38 1.98 38 3.96 38 6 C37.34 4.68 36.68 3.36 36 2 C24.45 1.67 12.9 1.34 1 1 C1 19.15 1 37.3 1 56 C8.92 55.01 8.92 55.01 17 54 C18.98 54 20.96 54 23 54 C23.10152799 60.7685324 23.03026944 67.30324864 22 74 C18.04 74.99 18.04 74.99 14 76 C14.66 75.01 15.32 74.02 16 73 C17.65 73 19.3 73 21 73 C21 67.72 21 62.44 21 57 C19.515 57.495 19.515 57.495 18 58 C14.98289601 58.22347527 11.96205936 58.18513522 8.9375 58.1875 C7.69516602 58.20586914 7.69516602 58.20586914 6.42773438 58.22460938 C5.63560547 58.22654297 4.84347656 58.22847656 4.02734375 58.23046875 C3.30281006 58.23457764 2.57827637 58.23868652 1.83178711 58.24291992 C0 58 0 58 -2 56 C-1.70370851 53.99417786 -1.35792242 51.99574614 -1 50 C-0.78856667 46.16137263 -0.7440391 42.3201877 -0.68359375 38.4765625 C-0.66281265 37.37524994 -0.64203156 36.27393738 -0.62062073 35.13925171 C-0.5554381 31.63456227 -0.49638603 28.12980034 -0.4375 24.625 C-0.39428502 22.2434822 -0.35066978 19.86197163 -0.30664062 17.48046875 C-0.19903862 11.65371893 -0.09973227 5.82691107 0 0 Z " fill="#F0DF5A" transform="translate(164,62)"/>
<path d="M0 0 C11.55 0 23.1 0 35 0 C35.78984608 3.9492304 36.09354376 5.97632325 35.625 9.75 C35.48964844 10.91789062 35.48964844 10.91789062 35.3515625 12.109375 C35 14 35 14 34 15 C32.5112814 15.08669432 31.018555 15.10703494 29.52734375 15.09765625 C28.62822266 15.09443359 27.72910156 15.09121094 26.80273438 15.08789062 C25.85720703 15.07951172 24.91167969 15.07113281 23.9375 15.0625 C22.98810547 15.05798828 22.03871094 15.05347656 21.06054688 15.04882812 C18.70696935 15.0370011 16.35351523 15.02052025 14 15 C14.33 14.34 14.66 13.68 15 13 C20.94 13 26.88 13 33 13 C33 12.01 33 11.02 33 10 C30.525 9.505 30.525 9.505 28 9 C28 8.34 28 7.68 28 7 C29.98 7 31.96 7 34 7 C34 5.35 34 3.7 34 2 C23.11 1.67 12.22 1.34 1 1 C1 18.16 1 35.32 1 53 C3.475 52.505 3.475 52.505 6 52 C8.78075485 51.931911 11.53364739 51.90521664 14.3125 51.9375 C15.05306641 51.94201172 15.79363281 51.94652344 16.55664062 51.95117188 C18.37112899 51.96287825 20.18557534 51.98081102 22 52 C22 52.33 22 52.66 22 53 C19.64655194 53.33923576 17.2924516 53.67150534 14.9375 54 C14.28072266 54.09539062 13.62394531 54.19078125 12.94726562 54.2890625 C8.51719937 54.90010612 4.53522068 55 0 55 C0 36.85 0 18.7 0 0 Z " fill="#FEFCBC" transform="translate(165,63)"/>
<path d="M0 0 C3.63 0 7.26 0 11 0 C11.10806144 2.91765891 11.18732877 5.83131125 11.25 8.75 C11.30027344 9.9875 11.30027344 9.9875 11.3515625 11.25 C11.44975025 17.33764054 11.44975025 17.33764054 9.28125 20.53125 C6.76573673 22.15082704 5.21649364 22.57550037 2.25 22.75 C1.45078125 22.80671875 0.6515625 22.8634375 -0.171875 22.921875 C-0.77515625 22.94765625 -1.3784375 22.9734375 -2 23 C-2 21.35 -2 19.7 -2 18 C0.31 18 2.62 18 5 18 C5 13.38 5 8.76 5 4 C3.35 4 1.7 4 0 4 C0 2.68 0 1.36 0 0 Z " fill="#111111" transform="translate(82,4)"/>
<path d="M0 0 C2.8125 0.5625 2.8125 0.5625 6 2 C7.44088563 4.28536073 8.13569208 6.40707624 9 9 C9.99 6.03 10.98 3.06 12 0 C13.65 0 15.3 0 17 0 C15.41039668 6.23440168 13.72399099 12.16287645 11 18 C8.75 18 8.75 18 6 17 C2.2833868 12.06131399 1.05042183 5.97081885 0 0 Z " fill="#111111" transform="translate(114,9)"/>
<path d="M0 0 C0.66 0.33 1.32 0.66 2 1 C2 2.32 2 3.64 2 5 C0.700625 4.979375 -0.59875 4.95875 -1.9375 4.9375 C-3.29165633 4.91600546 -4.64756083 4.92851801 -6 5 C-7.41577477 6.18424326 -7.41577477 6.18424326 -7.0625 9.5625 C-7.041875 10.696875 -7.02125 11.83125 -7 13 C-2.545 12.505 -2.545 12.505 2 12 C1.625 14.4375 1.625 14.4375 1 17 C-1.90295805 18.45147903 -3.77261779 18.37239025 -7 18 C-12.50619612 14.73706897 -12.50619612 14.73706897 -13.55078125 11.0625 C-13.81013892 7.14990423 -13.20809832 5.31214748 -11 2 C-6.92887758 -0.71408161 -4.8224083 -0.47433524 0 0 Z " fill="#161616" transform="translate(183,9)"/>
<path d="M0 0 C1.65 0 3.3 0 5 0 C5 1.32 5 2.64 5 4 C6.65 4 8.3 4 10 4 C10 5.32 10 6.64 10 8 C8.35 8 6.7 8 5 8 C5 11.3 5 14.6 5 18 C6.65 18 8.3 18 10 18 C10 18.99 10 19.98 10 21 C2.25 21.125 2.25 21.125 0 20 C-0.37890625 17.63671875 -0.37890625 17.63671875 -0.5625 14.6875 C-0.80976217 10.70926982 -0.80976217 10.70926982 -1.5859375 6.81640625 C-2.19691672 4.13616721 -1.1425772 2.41957526 0 0 Z " fill="#0C0C0C" transform="translate(230,5)"/>
<path d="M0 0 C0.33 0 0.66 0 1 0 C0.90528156 5.44053492 0.7989527 10.88068509 0.68261719 16.32080078 C0.64472198 18.1651414 0.60980651 20.00954608 0.578125 21.85400391 C0.15266204 46.33141964 0.15266204 46.33141964 -2 54 C-5.5486135 56.36574234 -6.5764525 56.10865265 -10.6875 55.625 C-11.68136719 55.51414063 -12.67523438 55.40328125 -13.69921875 55.2890625 C-14.45847656 55.19367188 -15.21773437 55.09828125 -16 55 C-13.49484216 52.49484216 -11.38931835 51.94900914 -8 51 C-6.68 51 -5.36 51 -4 51 C-4.02320313 50.44594482 -4.04640625 49.89188965 -4.0703125 49.32104492 C-4.28808046 39.25413754 -3.05089734 29.30748589 -2 19.3125 C-1.80678247 17.43559922 -1.61406993 15.55864639 -1.421875 13.68164062 C-0.95373854 9.12047252 -0.47876693 4.56006401 0 0 Z " fill="#FCF8D2" transform="translate(214,112)"/>
<path d="M0 0 C0.66 0 1.32 0 2 0 C1.67 6.27 1.34 12.54 1 19 C-6.09037535 21.44786768 -13.09317833 23.61806494 -20.40625 25.2890625 C-22.84350707 25.95710585 -24.75252645 26.87409803 -27 28 C-28.96548713 28.58937578 -30.9466674 29.12791948 -32.9375 29.625 C-33.95714844 29.88539063 -34.97679687 30.14578125 -36.02734375 30.4140625 C-38.78167479 30.95696612 -41.20392763 31.1132847 -44 31 C-43.505 29.515 -43.505 29.515 -43 28 C-38.68964518 26.65743047 -35.52218352 26 -31 26 C-31 25.34 -31 24.68 -31 24 C-28.24921116 23.08307039 -26.64051087 22.89113917 -23.8125 22.9375 C-21.9253125 22.9684375 -21.9253125 22.9684375 -20 23 C-20 22.34 -20 21.68 -20 21 C-18.69675781 20.80083984 -18.69675781 20.80083984 -17.3671875 20.59765625 C-16.21476562 20.42105469 -15.06234375 20.24445313 -13.875 20.0625 C-12.73804688 19.88847656 -11.60109375 19.71445313 -10.4296875 19.53515625 C-7.28315133 19.04418193 -4.1412807 18.52354678 -1 18 C-0.67 12.06 -0.34 6.12 0 0 Z " fill="#DAC74E" transform="translate(209,144)"/>
<path d="M0 0 C3.96 0 7.92 0 12 0 C12 1.65 12 3.3 12 5 C10.02 5 8.04 5 6 5 C6 9.29 6 13.58 6 18 C4.02 18 2.04 18 0 18 C0 12.06 0 6.12 0 0 Z " fill="#3D3D3D" transform="translate(187,9)"/>
<path d="M0 0 C0.33 0.66 0.66 1.32 1 2 C4.3 2 7.6 2 11 2 C11.33 2.66 11.66 3.32 12 4 C11.43410156 4.20496094 10.86820313 4.40992188 10.28515625 4.62109375 C9.55167969 4.89050781 8.81820312 5.15992188 8.0625 5.4375 C6.96615234 5.83775391 6.96615234 5.83775391 5.84765625 6.24609375 C4.01694322 6.85386948 4.01694322 6.85386948 3 8 C2.95936168 9.66617115 2.957279 11.33388095 3 13 C5.31 13.66 7.62 14.32 10 15 C8.09490208 17.10921555 6.54317359 18.75310292 3.9375 19.9375 C2 20 2 20 0.4375 18.8125 C-0.036875 18.214375 -0.51125 17.61625 -1 17 C-1.55042969 16.40703125 -2.10085937 15.8140625 -2.66796875 15.203125 C-4 13 -4 13 -3.671875 10.52734375 C-3.36765625 9.67269531 -3.0634375 8.81804688 -2.75 7.9375 C-2.45609375 7.08027344 -2.1621875 6.22304688 -1.859375 5.33984375 C-1.57578125 4.56769531 -1.2921875 3.79554687 -1 3 C-0.67 2.01 -0.34 1.02 0 0 Z " fill="#F0F0F0" transform="translate(130,11)"/>
<path d="M0 0 C6.6 0 13.2 0 20 0 C20.020625 2.805 20.04125 5.61 20.0625 8.5 C20.071604 9.36689453 20.08070801 10.23378906 20.09008789 11.12695312 C20.1051965 15.4275466 19.85329525 19.53510396 19.25170898 23.80322266 C18.59422811 29.54135355 18.58529594 35.35808756 18.39453125 41.12695312 C18.35714844 42.12533203 18.31976563 43.12371094 18.28125 44.15234375 C18.23581055 45.5134729 18.23581055 45.5134729 18.18945312 46.90209961 C18 49 18 49 17 50 C15.4218848 50.21041536 13.83664622 50.36856185 12.25 50.5 C8.77187761 50.81392795 5.40766334 51.20487855 2 52 C2.66 51.01 3.32 50.02 4 49 C6.6015625 48.48828125 6.6015625 48.48828125 9.625 48.3125 C11.12933594 48.21388672 11.12933594 48.21388672 12.6640625 48.11328125 C13.82035156 48.05720703 13.82035156 48.05720703 15 48 C16.31207679 44.06376962 16.32795635 40.20795993 16.5 36.09765625 C16.54060547 35.22354599 16.58121094 34.34943573 16.62304688 33.44883728 C16.7527531 30.65355901 16.87700116 27.85808095 17 25.0625 C17.16204194 21.38648999 17.32944115 17.71077977 17.5 14.03515625 C17.53544922 13.19026138 17.57089844 12.34536652 17.60742188 11.47486877 C17.64416016 10.6840239 17.68089844 9.89317902 17.71875 9.07836914 C17.76418945 8.03937218 17.76418945 8.03937218 17.81054688 6.97938538 C18 5 18 5 19 1 C12.73 1 6.46 1 0 1 C0 0.67 0 0.34 0 0 Z " fill="#FEF8B5" transform="translate(179,102)"/>
<path d="M0 0 C0.66 0 1.32 0 2 0 C4.21854707 4.62197306 5.38281159 7.76824163 5 13 C5.66 13.33 6.32 13.66 7 14 C6.67 14.33 6.34 14.66 6 15 C5.63239269 17.32817964 5.29758419 19.6618385 5 22 C3.35 22 1.7 22 0 22 C0 14.74 0 7.48 0 0 Z " fill="#040404" transform="translate(210,10)"/>
<path d="M0 0 C1.41623216 -0.05447047 2.83308191 -0.09300508 4.25 -0.125 C5.03890625 -0.14820313 5.8278125 -0.17140625 6.640625 -0.1953125 C9.20731941 0.0171622 10.7916067 0.71345895 13 2 C12.360625 2.86625 11.72125 3.7325 11.0625 4.625 C9.02451704 7.9598812 8.36566907 10.16047478 8 14 C6.35 14 4.7 14 3 14 C3 12.35 3 10.7 3 9 C2.67 9.66 2.34 10.32 2 11 C1.01 10.67 0.02 10.34 -1 10 C1.40436026 6.39345961 2.94679607 6.14547068 7 5 C4.36 4.67 1.72 4.34 -1 4 C-0.67 2.68 -0.34 1.36 0 0 Z " fill="#282828" transform="translate(134,9)"/>
<path d="M0 0 C1.77049689 -0.05410687 3.54146849 -0.09284119 5.3125 -0.125 C6.29863281 -0.14820313 7.28476563 -0.17140625 8.30078125 -0.1953125 C11 0 11 0 14 2 C12.60755361 4.78489278 10.44008012 6.12301529 8 8 C8.66 8.33 9.32 8.66 10 9 C9.67 10.65 9.34 12.3 9 14 C7.35 14 5.7 14 4 14 C3.34 11.69 2.68 9.38 2 7 C3.98 6.34 5.96 5.68 8 5 C5.36 4.67 2.72 4.34 0 4 C0 2.68 0 1.36 0 0 Z " fill="#171717" transform="translate(97,9)"/>
<path d="M0 0 C5.55990387 0.33040412 10.33683167 0.92943538 15.51953125 3.109375 C19.72875769 4.6207193 24.0983915 5.55429015 28.45361328 6.55395508 C31.79907238 7.34515977 34.10578335 8.07052223 37 10 C35.39592672 10.02708567 33.7917215 10.04643483 32.1875 10.0625 C30.84751953 10.07990234 30.84751953 10.07990234 29.48046875 10.09765625 C27 10 27 10 24 9 C24 8.34 24 7.68 24 7 C23.02160156 7.03480469 23.02160156 7.03480469 22.0234375 7.0703125 C16.96462193 7.17477182 12.69211115 7.16558976 8 5 C7.67 4.34 7.34 3.68 7 3 C4.67843403 2.59270772 2.3431213 2.25561323 0 2 C0 1.34 0 0.68 0 0 Z " fill="#FCF9D3" transform="translate(120,167)"/>
<path d="M0 0 C1.65 0 3.3 0 5 0 C5.33 0.66 5.66 1.32 6 2 C8.50733002 2.58473398 8.50733002 2.58473398 11.5 2.9375 C16.13843156 3.63929579 20.34816958 4.61867658 24.75390625 6.203125 C28.78359578 7.63278877 32.89920307 8.79287606 37 10 C37 10.66 37 11.32 37 12 C31.72093588 11.51119777 27.037101 10.49368163 21.9921875 8.890625 C17.54934065 7.56821105 13.04509311 6.5060863 8.53320312 5.44604492 C5.12806378 4.62435912 2.04493237 3.75669175 -1 2 C-0.67 1.34 -0.34 0.68 0 0 Z " fill="#DCCB59" transform="translate(117,163)"/>
<path d="M0 0 C0.33 0 0.66 0 1 0 C1.04789169 0.62703323 1.09578339 1.25406647 1.14512634 1.90010071 C1.64715566 8.47098939 2.1502933 15.04179256 2.65405273 21.61254883 C2.84150721 24.0594675 3.02868624 26.50640729 3.21557617 28.95336914 C3.48542703 32.48589681 3.75629325 36.01834545 4.02734375 39.55078125 C4.10967758 40.63144363 4.19201141 41.71210602 4.27684021 42.82551575 C4.7944953 49.55600936 5.36991354 56.2790951 6 63 C5.01 62.67 4.02 62.34 3 62 C2.56578105 55.74231981 2.13887233 49.48419557 1.71826172 43.22558594 C1.57468335 41.10370971 1.42922798 38.98195951 1.28173828 36.86035156 C0.4275063 24.55243773 -0.24500342 12.34091302 0 0 Z " fill="#FAF3C2" transform="translate(103,100)"/>
<path d="M0 0 C1.65 0 3.3 0 5 0 C5 5.61 5 11.22 5 17 C3.35 17 1.7 17 0 17 C0 11.39 0 5.78 0 0 Z " fill="#101010" transform="translate(201,9)"/>
<path d="M0 0 C2.97 0 5.94 0 9 0 C8.85970581 2.1462026 8.71261836 4.29196218 8.5625 6.4375 C8.48128906 7.63246094 8.40007812 8.82742187 8.31640625 10.05859375 C8 13 8 13 7 14 C5.5112814 14.08669432 4.018555 14.10703494 2.52734375 14.09765625 C1.62822266 14.09443359 0.72910156 14.09121094 -0.19726562 14.08789062 C-1.14279297 14.07951172 -2.08832031 14.07113281 -3.0625 14.0625 C-4.01189453 14.05798828 -4.96128906 14.05347656 -5.93945312 14.04882812 C-8.29303065 14.0370011 -10.64648477 14.02052025 -13 14 C-12.67 13.34 -12.34 12.68 -12 12 C-6.06 12 -0.12 12 6 12 C6 11.01 6 10.02 6 9 C3.525 8.505 3.525 8.505 1 8 C1 7.34 1 6.68 1 6 C2.98 6 4.96 6 7 6 C7 4.35 7 2.7 7 1 C4.69 1 2.38 1 0 1 C0 0.67 0 0.34 0 0 Z " fill="#FDF9CE" transform="translate(192,64)"/>
<path d="M0 0 C6.625 -0.25 6.625 -0.25 10 2 C7.36 2 4.72 2 2 2 C2.14080555 4.77117304 2.28743118 7.54182641 2.4375 10.3125 C2.47681641 11.09818359 2.51613281 11.88386719 2.55664062 12.69335938 C2.59853516 13.45068359 2.64042969 14.20800781 2.68359375 14.98828125 C2.72025146 15.68477783 2.75690918 16.38127441 2.79467773 17.09887695 C2.95581153 19.2216572 2.95581153 19.2216572 4 22 C5.98 22.33 7.96 22.66 10 23 C10 23.66 10 24.32 10 25 C8.52031676 24.85950482 7.04125484 24.71245174 5.5625 24.5625 C4.73878906 24.48128906 3.91507812 24.40007812 3.06640625 24.31640625 C1 24 1 24 0 23 C-0.08713831 21.29227642 -0.10700007 19.58101351 -0.09765625 17.87109375 C-0.09443359 16.83662109 -0.09121094 15.80214844 -0.08789062 14.73632812 C-0.07951172 13.64771484 -0.07113281 12.55910156 -0.0625 11.4375 C-0.05798828 10.34501953 -0.05347656 9.25253906 -0.04882812 8.12695312 C-0.03699826 5.41791505 -0.02051543 2.70898401 0 0 Z " fill="#F9F1B4" transform="translate(118,126)"/>
<path d="M0 0 C1.91385532 2.87078299 2.96432952 5.33411656 4.125 8.5625 C4.47820312 9.53316406 4.83140625 10.50382812 5.1953125 11.50390625 C6 14 6 14 6 16 C3.03 15.67 0.06 15.34 -3 15 C-3 10.38 -3 5.76 -3 1 C-2.67 1.99 -2.34 2.98 -2 4 C-1.34 4 -0.68 4 0 4 C0 2.68 0 1.36 0 0 Z " fill="#CFCFCF" transform="translate(114,11)"/>
<path d="M0 0 C2.0625 0.4375 2.0625 0.4375 4 1 C3.01 1 2.02 1 1 1 C0.67 5.62 0.34 10.24 0 15 C2.3760271 14.54655971 4.75071581 14.08740741 7.125 13.625 C7.79015625 13.49867188 8.4553125 13.37234375 9.140625 13.2421875 C12.26921535 12.62873841 15.25468673 11.91510442 18.28125 10.90625 C21.32190515 9.89269828 23.81621424 9.84839115 27 10 C25.68 10.33 24.36 10.66 23 11 C23 12.32 23 13.64 23 15 C14.97497656 15.79681084 7.06350113 16.12867289 -1 16 C-1.02685095 13.52076199 -1.04676547 11.0418116 -1.0625 8.5625 C-1.07506836 7.50192383 -1.07506836 7.50192383 -1.08789062 6.41992188 C-1.09653588 4.61306441 -1.05220011 2.80612397 -1 1 C-0.67 0.67 -0.34 0.34 0 0 Z " fill="#F5E467" transform="translate(165,142)"/>
<path d="M0 0 C0.33 0 0.66 0 1 0 C1.66 8.25 2.32 16.5 3 25 C-0.6249797 26.81248985 -2.37259584 27.31888915 -6.25 27.625 C-7.14203125 27.69976562 -8.0340625 27.77453125 -8.953125 27.8515625 C-9.62859375 27.90054688 -10.3040625 27.94953125 -11 28 C-11 27.01 -11 26.02 -11 25 C-7.7 24.34 -4.4 23.68 -1 23 C-0.67 15.41 -0.34 7.82 0 0 Z " fill="#F3DC36" transform="translate(199,128)"/>
<path d="M0 0 C1.65 0 3.3 0 5 0 C5 1.32 5 2.64 5 4 C2.36 4.66 -0.28 5.32 -3 6 C-3 6.66 -3 7.32 -3 8 C-2.01 8 -1.02 8 0 8 C0 8.66 0 9.32 0 10 C-5.75 11.125 -5.75 11.125 -8 10 C-8 9.34 -8 8.68 -8 8 C-8.99 8 -9.98 8 -11 8 C-11 7.01 -11 6.02 -11 5 C-9.865625 4.87625 -8.73125 4.7525 -7.5625 4.625 C-5.7990625 4.315625 -5.7990625 4.315625 -4 4 C-3.67 3.34 -3.34 2.68 -3 2 C-2.01 2 -1.02 2 0 2 C0 1.34 0 0.68 0 0 Z " fill="#FBD937" transform="translate(176,130)"/>
<path d="M0 0 C0.76441406 0.10957031 1.52882812 0.21914063 2.31640625 0.33203125 C3.07824219 0.42871094 3.84007812 0.52539062 4.625 0.625 C7.01151988 1.17509904 8.81427197 1.82407284 10.87890625 3.14453125 C11.20890625 4.13453125 11.53890625 5.12453125 11.87890625 6.14453125 C8.66549256 7.75123809 5.24931657 6.9696398 1.75390625 6.70703125 C0.62275391 6.6287207 0.62275391 6.6287207 -0.53125 6.54882812 C-2.39488745 6.41908121 -4.25804371 6.28245637 -6.12109375 6.14453125 C-4.94419103 2.61382309 -3.96827707 0.27039825 0 0 Z " fill="#E1C644" transform="translate(145.12109375,56.85546875)"/>
<path d="M0 0 C3 0.25 3 0.25 5 2.25 C4.649375 3.03375 4.29875 3.8175 3.9375 4.625 C3.628125 5.49125 3.31875 6.3575 3 7.25 C3.33 7.91 3.66 8.57 4 9.25 C-1.44736842 10.58157895 -1.44736842 10.58157895 -3.875 9.125 C-5.3568671 6.65522151 -5.3633156 5.08386167 -5 2.25 C-3 0.25 -3 0.25 0 0 Z " fill="#E8E8E8" transform="translate(180,12.75)"/>
<path d="M0 0 C2.97 0 5.94 0 9 0 C9 2.97 9 5.94 9 9 C8.030625 9.309375 7.06125 9.61875 6.0625 9.9375 C3.15934208 10.69523342 3.15934208 10.69523342 2 12 C0.33382885 12.04063832 -1.33388095 12.042721 -3 12 C-3 11.34 -3 10.68 -3 10 C0.22791555 7.8480563 1.28400809 7.79913557 5 8 C5 6.35 5 4.7 5 3 C3.35 3 1.7 3 0 3 C0 2.01 0 1.02 0 0 Z " fill="#F9E016" transform="translate(176,126)"/>
<path d="M0 0 C1.41623216 -0.05447047 2.83308191 -0.09300508 4.25 -0.125 C5.03890625 -0.14820312 5.8278125 -0.17140625 6.640625 -0.1953125 C9.20731941 0.0171622 10.7916067 0.71345895 13 2 C12.01 2.495 12.01 2.495 11 3 C11.73467635 5.82914839 12.53418386 8.46032588 14 11 C17.07797583 12.14031566 17.07797583 12.14031566 20 12 C20 12.99 20 13.98 20 15 C16.7 14.67 13.4 14.34 10 14 C10 10.37 10 6.74 10 3 C6.7 2.34 3.4 1.68 0 1 C0 0.67 0 0.34 0 0 Z " fill="#DCC946" transform="translate(121,125)"/>
<path d="M0 0 C1.32 0.33 2.64 0.66 4 1 C3.34 1 2.68 1 2 1 C2 1.66 2 2.32 2 3 C0.7934375 3.4021875 0.7934375 3.4021875 -0.4375 3.8125 C-1.283125 4.204375 -2.12875 4.59625 -3 5 C-3.33 5.99 -3.66 6.98 -4 8 C-5.98 8 -7.96 8 -10 8 C-10 11.3 -10 14.6 -10 18 C-8.618125 17.67 -7.23625 17.34 -5.8125 17 C-2.4688386 16.25110423 0.55623067 15.77782133 4 16 C-1.15664556 18.76248869 -5.12905966 19.1129027 -11 19 C-11.02694851 17.04174127 -11.04637218 15.08337774 -11.0625 13.125 C-11.07410156 12.03445312 -11.08570313 10.94390625 -11.09765625 9.8203125 C-11 7 -11 7 -10 5 C-6.28530176 2.8537299 -4.35855288 2 0 2 C0 1.34 0 0.68 0 0 Z " fill="#FDFBCB" transform="translate(176,138)"/>
<path d="M0 0 C0.61875 0.78375 1.2375 1.5675 1.875 2.375 C3.89858661 4.96837647 3.89858661 4.96837647 6 7 C5.67 7.99 5.34 8.98 5 10 C5 10.66 5 11.32 5 12 C2.29120665 13.35439668 -0.00933268 13.06501451 -3 13 C-2.34 12.67 -1.68 12.34 -1 12 C-1 11.01 -1 10.02 -1 9 C-1.99 8.34 -2.98 7.68 -4 7 C-3.01 6.34 -2.02 5.68 -1 5 C-0.27034634 2.43717258 -0.27034634 2.43717258 0 0 Z " fill="#EBEBEB" transform="translate(168,18)"/>
<path d="M0 0 C0 0.66 0 1.32 0 2 C4.455 1.505 4.455 1.505 9 1 C8.625 3.4375 8.625 3.4375 8 6 C5.19084526 7.40457737 3.11189466 7.24895157 0 7 C-2.375 5.6875 -2.375 5.6875 -4 4 C-4 3.01 -4 2.02 -4 1 C-2 0 -2 0 0 0 Z " fill="#0D0D0D" transform="translate(176,20)"/>
<path d="M0 0 C1.98 0 3.96 0 6 0 C6.1953125 6.0546875 6.1953125 6.0546875 6 8 C5.34 8.66 4.68 9.32 4 10 C2.68 10 1.36 10 0 10 C0 6.7 0 3.4 0 0 Z " fill="#DEDEDE" transform="translate(215,13)"/>
<path d="M0 0 C0.99 0 1.98 0 3 0 C3 7.92 3 15.84 3 24 C2.01 24 1.02 24 0 24 C0 16.08 0 8.16 0 0 Z " fill="#FCF7C2" transform="translate(176,78)"/>
<path d="M0 0 C0.33 0.66 0.66 1.32 1 2 C-4.96583144 9.66742597 -4.96583144 9.66742597 -10 11 C-10 10.34 -10 9.68 -10 9 C-11.32 8.67 -12.64 8.34 -14 8 C-12.35 8 -10.7 8 -9 8 C-9 6.02 -9 4.04 -9 2 C-6.94921875 1.77213542 -4.8984375 1.54427083 -2.84765625 1.31640625 C-0.98859771 1.18113386 -0.98859771 1.18113386 0 0 Z " fill="#F0F0F0" transform="translate(224,24)"/>
<path d="M0 0 C0.66 0.33 1.32 0.66 2 1 C2 5.29 2 9.58 2 14 C0.35 13.67 -1.3 13.34 -3 13 C-2.67 10.69 -2.34 8.38 -2 6 C-3.65 6 -5.3 6 -7 6 C-4 4 -4 4 -2 4 C-1.34 2.68 -0.68 1.36 0 0 Z " fill="#030303" transform="translate(109,12)"/>
<path d="M0 0 C1.65 0 3.3 0 5 0 C4.01 3.63 3.02 7.26 2 11 C0.02 11 -1.96 11 -4 11 C-3.5247412 9.35303396 -3.04468109 7.70745272 -2.5625 6.0625 C-2.29566406 5.14597656 -2.02882813 4.22945312 -1.75390625 3.28515625 C-1 1 -1 1 0 0 Z " fill="#191919" transform="translate(126,9)"/>
<path d="M0 0 C15.84 0 31.68 0 48 0 C48 0.33 48 0.66 48 1 C47.44289841 1.00808685 46.88579681 1.01617371 46.31181335 1.02450562 C40.52054773 1.11047268 34.7296275 1.20997261 28.9387207 1.31738281 C26.77667027 1.35569804 24.61455553 1.3905464 22.45239258 1.421875 C19.34693396 1.46747017 16.24191901 1.52547384 13.13671875 1.5859375 C12.16788254 1.59748871 11.19904633 1.60903992 10.20085144 1.62094116 C8.84979057 1.6507457 8.84979057 1.6507457 7.47143555 1.68115234 C6.67867722 1.69447601 5.88591888 1.70779968 5.06913757 1.7215271 C2.69396892 1.88713582 2.69396892 1.88713582 0 4 C0 2.68 0 1.36 0 0 Z " fill="#F6D52B" transform="translate(160,49)"/>
<path d="M0 0 C0.33 0 0.66 0 1 0 C1.33 3.3 1.66 6.6 2 10 C3.65 10 5.3 10 7 10 C7 10.99 7 11.98 7 13 C0.84765625 13.09765625 0.84765625 13.09765625 -1 13 C-2.57960269 11.42039731 -2.16986544 9.80463184 -2.1875 7.625 C-2.20167969 6.83351563 -2.21585938 6.04203125 -2.23046875 5.2265625 C-2 3 -2 3 0 0 Z " fill="#050505" transform="translate(233,13)"/>
<path d="M0 0 C0.66 0 1.32 0 2 0 C2 0.66 2 1.32 2 2 C4.31 2 6.62 2 9 2 C8.01 3.485 8.01 3.485 7 5 C5.68 5 4.36 5 3 5 C3 5.66 3 6.32 3 7 C4.258125 6.938125 5.51625 6.87625 6.8125 6.8125 C10.72231986 6.79173989 10.72231986 6.79173989 13 8.5 C13.33 8.995 13.66 9.49 14 10 C5.42857143 9 5.42857143 9 2 8 C2 7.01 2 6.02 2 5 C1.01 4.67 0.02 4.34 -1 4 C-0.67 2.68 -0.34 1.36 0 0 Z " fill="#FCFCEE" transform="translate(126,144)"/>
<path d="M0 0 C0.639375 0.28875 1.27875 0.5775 1.9375 0.875 C5.88410292 2.3247725 9.8874607 3.15778062 14 4 C12.09490208 6.10921555 10.54317359 7.75310292 7.9375 8.9375 C6 9 6 9 4.4375 7.8125 C3.963125 7.214375 3.48875 6.61625 3 6 C2.443125 5.319375 1.88625 4.63875 1.3125 3.9375 C0 2 0 2 0 0 Z " fill="#E6E6E6" transform="translate(126,22)"/>
<path d="M0 0 C-0.56589844 0.19335938 -1.13179687 0.38671875 -1.71484375 0.5859375 C-2.44832031 0.84632813 -3.18179688 1.10671875 -3.9375 1.375 C-4.66839844 1.63023437 -5.39929688 1.88546875 -6.15234375 2.1484375 C-8.18682116 2.85271413 -8.18682116 2.85271413 -9 5 C-12.08142868 6.10348459 -15.00234962 6.10523224 -18.25 6.0625 C-19.14203125 6.05347656 -20.0340625 6.04445312 -20.953125 6.03515625 C-21.62859375 6.02355469 -22.3040625 6.01195312 -23 6 C-20.02415936 4.01610624 -17.63501348 3.36451045 -14.19140625 2.578125 C-11.9490976 1.9865712 -9.89319088 1.19381214 -7.75 0.3125 C-4.06984183 -0.97555536 -3.42183507 -1.1279943 0 0 Z " fill="#FCF6C7" transform="translate(196,168)"/>
<path d="M0 0 C0.33 0 0.66 0 1 0 C1.04898438 1.03640625 1.09796875 2.0728125 1.1484375 3.140625 C1.22349597 4.51044208 1.29904247 5.88023248 1.375 7.25 C1.4059375 7.93191406 1.436875 8.61382812 1.46875 9.31640625 C1.59671405 14.59070636 1.59671405 14.59070636 4 19 C6.66482841 19.46709352 8.95070966 19.69572473 11.625 19.75 C12.68460938 19.79447266 12.68460938 19.79447266 13.765625 19.83984375 C15.50980047 19.91055357 17.25490827 19.95754035 19 20 C19 20.33 19 20.66 19 21 C13.06 21 7.12 21 1 21 C0.08642707 16.43213534 -0.11609566 12.30084907 -0.0625 7.6875 C-0.05798828 6.94693359 -0.05347656 6.20636719 -0.04882812 5.44335938 C-0.03712175 3.62887101 -0.01918898 1.81442466 0 0 Z " fill="#F0DE27" transform="translate(180,80)"/>
<path d="M0 0 C0.66 0.33 1.32 0.66 2 1 C1.67 2.65 1.34 4.3 1 6 C1.99 6.33 2.98 6.66 4 7 C3.34 7.66 2.68 8.32 2 9 C-2.55555556 8.44444444 -2.55555556 8.44444444 -4 7 C-4.04063832 5.33382885 -4.042721 3.66611905 -4 2 C-3.01 1.67 -2.02 1.34 -1 1 C-0.67 0.67 -0.34 0.34 0 0 Z " fill="#0E0E0E" transform="translate(136,17)"/>
<path d="M0 0 C0.66 0 1.32 0 2 0 C2 0.99 2 1.98 2 3 C1.01 3.495 1.01 3.495 0 4 C0.66 4.33 1.32 4.66 2 5 C1.67 6.65 1.34 8.3 1 10 C-0.65 10 -2.3 10 -4 10 C-4.66 7.69 -5.32 5.38 -6 3 C-4.02 2.34 -2.04 1.68 0 1 C0 0.67 0 0.34 0 0 Z " fill="#848484" transform="translate(105,13)"/>
<path d="M0 0 C1.45823212 -0.0270043 2.91660675 -0.04639787 4.375 -0.0625 C5.18710938 -0.07410156 5.99921875 -0.08570313 6.8359375 -0.09765625 C9 0 9 0 11 1 C10.67 1.99 10.34 2.98 10 4 C6.37 4 2.74 4 -1 4 C-0.67 2.68 -0.34 1.36 0 0 Z " fill="#0E0E0E" transform="translate(134,9)"/>
<path d="M0 0 C6.625 -0.25 6.625 -0.25 10 2 C9.34 3.32 8.68 4.64 8 6 C5.03 5.01 2.06 4.02 -1 3 C-0.67 2.01 -0.34 1.02 0 0 Z " fill="#E6E6E6" transform="translate(158,8)"/>
<path d="M0 0 C2.64 0 5.28 0 8 0 C7 2 7 2 4.48828125 3.03515625 C3.44027344 3.37417969 2.39226562 3.71320313 1.3125 4.0625 C0.27738281 4.40410156 -0.75773438 4.74570313 -1.82421875 5.09765625 C-4.87757036 5.96521372 -7.86146207 6.54357095 -11 7 C-8 5 -8 5 -6 5 C-6 4.34 -6 3.68 -6 3 C-5.195625 2.87625 -4.39125 2.7525 -3.5625 2.625 C-2.716875 2.41875 -1.87125 2.2125 -1 2 C-0.67 1.34 -0.34 0.68 0 0 Z " fill="#E1C956" transform="translate(189,165)"/>
<path d="M0 0 C0.33 0 0.66 0 1 0 C1.02685938 2.14576637 1.04633088 4.29162645 1.0625 6.4375 C1.07410156 7.63246094 1.08570313 8.82742187 1.09765625 10.05859375 C1 13 1 13 0 14 C-2.01594582 14.23427778 -4.038474 14.41336124 -6.0625 14.5625 C-7.71958984 14.68818359 -7.71958984 14.68818359 -9.41015625 14.81640625 C-10.26480469 14.87699219 -11.11945313 14.93757812 -12 15 C-9.49484216 12.49484216 -7.38931835 11.94900914 -4 11 C-2.68 11 -1.36 11 0 11 C0 7.37 0 3.74 0 0 Z " fill="#F8F0AA" transform="translate(210,152)"/>
<path d="M0 0 C4.29 0 8.58 0 13 0 C12.01 0.495 12.01 0.495 11 1 C11 1.66 11 2.32 11 3 C2.42857143 4.28571429 2.42857143 4.28571429 -1 3 C-0.67 2.01 -0.34 1.02 0 0 Z " fill="#FADB1F" transform="translate(162,159)"/>
<path d="M0 0 C-1.7015625 0.680625 -1.7015625 0.680625 -3.4375 1.375 C-7.04721692 2.57095806 -7.04721692 2.57095806 -8 5 C-10.97 5 -13.94 5 -17 5 C-16.34 4.01 -15.68 3.02 -15 2 C-12.67750658 1.59802999 -10.34114367 1.27313343 -8 1 C-6.3603125 0.443125 -6.3603125 0.443125 -4.6875 -0.125 C-2 -1 -2 -1 0 0 Z " fill="#F9FAD4" transform="translate(172,175)"/>
<path d="M0 0 C0.33 0 0.66 0 1 0 C1.10957031 1.10859375 1.21914062 2.2171875 1.33203125 3.359375 C1.49152762 4.82298873 1.65172049 6.28652667 1.8125 7.75 C1.88275391 8.47960937 1.95300781 9.20921875 2.02539062 9.9609375 C2.49812196 14.12097328 3.05788776 16.93697904 6 20 C4.35 19.67 2.7 19.34 1 19 C-0.25433458 15.23699626 -0.10695422 11.72789091 -0.0625 7.8125 C-0.05798828 7.06291016 -0.05347656 6.31332031 -0.04882812 5.54101562 C-0.03706354 3.69397617 -0.01912865 1.84697787 0 0 Z " fill="#D8C844" transform="translate(108,144)"/>
<path d="M0 0 C4.95 0.99 4.95 0.99 10 2 C10 2.33 10 2.66 10 3 C9.195625 3.12375 8.39125 3.2475 7.5625 3.375 C6.2940625 3.684375 6.2940625 3.684375 5 4 C4.67 4.66 4.34 5.32 4 6 C6.31 6 8.62 6 11 6 C11 6.33 11 6.66 11 7 C9.741875 7.020625 8.48375 7.04125 7.1875 7.0625 C6.47980469 7.07410156 5.77210938 7.08570313 5.04296875 7.09765625 C3 7 3 7 0 6 C0 4.02 0 2.04 0 0 Z " fill="#3B3B3B" transform="translate(151,20)"/>
<path d="M0 0 C0 3.63 0 7.26 0 11 C-1.32 11 -2.64 11 -4 11 C-4.3682455 3.51234156 -4.3682455 3.51234156 -2.5625 1 C-1 0 -1 0 0 0 Z " fill="#030303" transform="translate(192,15)"/>
<path d="M0 0 C0.66 0 1.32 0 2 0 C2 2 2 2 0.5 3.625 C0.005 4.07875 -0.49 4.5325 -1 5 C1 3 1 3 3.625 2.875 C4.40875 2.91625 5.1925 2.9575 6 3 C6.33 4.32 6.66 5.64 7 7 C5.68 7.33 4.36 7.66 3 8 C3 7.34 3 6.68 3 6 C1.35 6 -0.3 6 -2 6 C-1.125 1.125 -1.125 1.125 0 0 Z " fill="#E4E4E4" transform="translate(237,17)"/>
<path d="M0 0 C0.33 0 0.66 0 1 0 C1.66 6.27 2.32 12.54 3 19 C2.01 18.67 1.02 18.34 0 18 C0 12.06 0 6.12 0 0 Z " fill="#FDF8D8" transform="translate(106,144)"/>
<path d="M0 0 C5.60461531 0.42089996 10.72086547 0.91613111 16 3 C16 3.33 16 3.66 16 4 C9.84765625 4.09765625 9.84765625 4.09765625 8 4 C7.67 3.67 7.34 3.34 7 3 C4.67182036 2.63239269 2.3381615 2.29758419 0 2 C0 1.34 0 0.68 0 0 Z " fill="#FBF5C7" transform="translate(120,167)"/>
<path d="M0 0 C1.32 0 2.64 0 4 0 C4 1.65 4 3.3 4 5 C3.01 5.33 2.02 5.66 1 6 C0.67 6.66 0.34 7.32 0 8 C-1 7 -1 7 -1.125 4 C-1 1 -1 1 0 0 Z " fill="#0A0A0A" transform="translate(171,15)"/>
<path d="M0 0 C-0.63808594 0.26554688 -1.27617187 0.53109375 -1.93359375 0.8046875 C-2.75988281 1.15789062 -3.58617187 1.51109375 -4.4375 1.875 C-5.26121094 2.22304687 -6.08492187 2.57109375 -6.93359375 2.9296875 C-9.15746715 3.8244937 -9.15746715 3.8244937 -10 6 C-11.98 6 -13.96 6 -16 6 C-15.01 5.67 -14.02 5.34 -13 5 C-12.67 4.01 -12.34 3.02 -12 2 C-10.29296875 1.015625 -10.29296875 1.015625 -8.1875 0.25 C-7.50042969 -0.01296875 -6.81335938 -0.2759375 -6.10546875 -0.546875 C-3.71856031 -1.06056958 -2.29362227 -0.76282269 0 0 Z " fill="#FBFCE8" transform="translate(200,168)"/>
<path d="M0 0 C2.97 0.33 5.94 0.66 9 1 C9.33 1.99 9.66 2.98 10 4 C7.36 4 4.72 4 2 4 C1.34 2.68 0.68 1.36 0 0 Z " fill="#FAE014" transform="translate(161,130)"/>
<path d="M0 0 C1.65 0 3.3 0 5 0 C4.34 1.98 3.68 3.96 3 6 C1.35 6 -0.3 6 -2 6 C-1.34 4.02 -0.68 2.04 0 0 Z " fill="#FCFEE7" transform="translate(184,109)"/>
<path d="M0 0 C0 0.33 0 0.66 0 1 C-1.65 1 -3.3 1 -5 1 C-5 1.66 -5 2.32 -5 3 C-8.37097383 4.49821059 -10.20442119 5 -14 5 C-14 4.34 -14 3.68 -14 3 C-12.68 3 -11.36 3 -10 3 C-10 2.34 -10 1.68 -10 1 C-6.52674819 -0.1577506 -3.63932552 -0.06866652 0 0 Z " fill="#E1C43B" transform="translate(188,167)"/>
<path d="M0 0 C0 0.66 0 1.32 0 2 C0.66 2.33 1.32 2.66 2 3 C1 4 1 4 -1.06640625 4.09765625 C-1.89011719 4.08605469 -2.71382812 4.07445312 -3.5625 4.0625 C-4.38878906 4.05347656 -5.21507812 4.04445313 -6.06640625 4.03515625 C-6.70449219 4.02355469 -7.34257812 4.01195312 -8 4 C-7.67 3.01 -7.34 2.02 -7 1 C-2.25 0 -2.25 0 0 0 Z " fill="#040404" transform="translate(163,22)"/>
<path d="M0 0 C1.65 0 3.3 0 5 0 C3.68 0.33 2.36 0.66 1 1 C1.33 2.32 1.66 3.64 2 5 C3.32 4.67 4.64 4.34 6 4 C3.78065836 7.32901247 2.65316671 7.75023244 -1 9 C-1 8.34 -1 7.68 -1 7 C-2.32 6.67 -3.64 6.34 -5 6 C-3.35 6 -1.7 6 0 6 C0 4.02 0 2.04 0 0 Z " fill="#C3C4C7" transform="translate(215,26)"/>
<path d="M0 0 C0.33 1.32 0.66 2.64 1 4 C2.65 4 4.3 4 6 4 C6 5.32 6 6.64 6 8 C4.33388095 8.042721 2.66617115 8.04063832 1 8 C0 7 0 7 -0.0625 3.4375 C-0.041875 2.303125 -0.02125 1.16875 0 0 Z " fill="#1A1A1A" transform="translate(234,5)"/>
<path d="M0 0 C-1.32 0.33 -2.64 0.66 -4 1 C-4 1.66 -4 2.32 -4 3 C-7.9813783 4.3271261 -11.85045227 4.06915913 -16 4 C-10.70848182 1.15072098 -6.04551009 -0.28788143 0 0 Z " fill="#F4E67E" transform="translate(192,152)"/>
<path d="M0 0 C0.226875 0.639375 0.45375 1.27875 0.6875 1.9375 C1.83876445 4.23876958 1.83876445 4.23876958 4.4375 4.75 C7.06852628 5.04854998 7.06852628 5.04854998 10 5 C10 5.99 10 6.98 10 8 C6.7 7.67 3.4 7.34 0 7 C0 4.69 0 2.38 0 0 Z " fill="#DACE70" transform="translate(131,132)"/>
<path d="M0 0 C0.33 1.32 0.66 2.64 1 4 C-2.4352048 6.29013653 -3.985331 6.17842973 -8 6 C-7.34 5.01 -6.68 4.02 -6 3 C-5.01 3 -4.02 3 -3 3 C-3 2.34 -3 1.68 -3 1 C-2.01 0.67 -1.02 0.34 0 0 Z " fill="#242424" transform="translate(184,21)"/>
<path d="M0 0 C0.28875 0.61875 0.5775 1.2375 0.875 1.875 C1.93720042 4.13325765 1.93720042 4.13325765 4 6 C0.37 6.33 -3.26 6.66 -7 7 C-6.01 5.68 -5.02 4.36 -4 3 C-2.68 3 -1.36 3 0 3 C0 2.01 0 1.02 0 0 Z " fill="#232323" transform="translate(106,20)"/>
<path d="M0 0 C0 1.65 0 3.3 0 5 C-1.98 5 -3.96 5 -6 5 C-5.67 4.34 -5.34 3.68 -5 3 C-6.32 2.34 -7.64 1.68 -9 1 C-2.25 0 -2.25 0 0 0 Z " fill="#222222" transform="translate(199,9)"/>
<path d="M0 0 C0.99 0.33 1.98 0.66 3 1 C2.25749403 5.08378283 1.17076699 9.01939223 0 13 C-0.33 13 -0.66 13 -1 13 C-1.07654536 8.48382401 -1.10228696 4.40914783 0 0 Z " fill="#F2DC3C" transform="translate(202,63)"/>
<path d="M0 0 C1.98 0 3.96 0 6 0 C6 1.32 6 2.64 6 4 C4.02 4 2.04 4 0 4 C0 2.68 0 1.36 0 0 Z " fill="#181818" transform="translate(200,3)"/>
<path d="M0 0 C1.98 0.99 1.98 0.99 4 2 C2.68 2 1.36 2 0 2 C0 1.34 0 0.68 0 0 Z M-6 2 C-4.02 2 -2.04 2 0 2 C0 3.32 0 4.64 0 6 C-2.31 5.34 -4.62 4.68 -7 4 C-6.67 3.34 -6.34 2.68 -6 2 Z " fill="#1C1C1C" transform="translate(160,12)"/>
<path d="M0 0 C1.32 0.33 2.64 0.66 4 1 C4 2.32 4 3.64 4 5 C1.03 4.67 -1.94 4.34 -5 4 C-3.68 3.34 -2.36 2.68 -1 2 C-0.67 1.34 -0.34 0.68 0 0 Z " fill="#1B1B1B" transform="translate(164,4)"/>
<path d="M0 0 C0.99 0.33 1.98 0.66 3 1 C2.67 2.65 2.34 4.3 2 6 C0.35 5.67 -1.3 5.34 -3 5 C-3 4.34 -3 3.68 -3 3 C-2.34 3 -1.68 3 -1 3 C-0.67 2.01 -0.34 1.02 0 0 Z " fill="#F3F3F3" transform="translate(179,17)"/>
<path d="M0 0 C0.99 0.33 1.98 0.66 3 1 C2.855625 1.495 2.71125 1.99 2.5625 2.5 C1.78005593 5.97752922 1.41305236 9.45955123 1 13 C0.67 13 0.34 13 0 13 C-0.19397476 11.02145742 -0.38001321 9.0421352 -0.5625 7.0625 C-0.66691406 5.96035156 -0.77132812 4.85820312 -0.87890625 3.72265625 C-0.91886719 2.82417969 -0.95882812 1.92570313 -1 1 C-0.67 0.67 -0.34 0.34 0 0 Z " fill="#141414" transform="translate(230,12)"/>
<path d="M0 0 C2.86724686 0.57344937 3.8614515 0.8614515 6 3 C5.67 3.99 5.34 4.98 5 6 C3.02 4.68 1.04 3.36 -1 2 C-0.67 1.34 -0.34 0.68 0 0 Z " fill="#121212" transform="translate(220,9)"/>
<path d="M0 0 C2.97 0 5.94 0 9 0 C6.04816899 2.95183101 3.04488053 3.08663988 -1 4 C-0.67 2.68 -0.34 1.36 0 0 Z " fill="#E1CE27" transform="translate(124,154)"/>
<path d="M0 0 C1.43655854 -0.08131463 2.8744483 -0.13933559 4.3125 -0.1875 C5.51326172 -0.23970703 5.51326172 -0.23970703 6.73828125 -0.29296875 C9.47851584 0.06198392 10.29171079 0.89366282 12 3 C3.96428571 2.19642857 3.96428571 2.19642857 0 0 Z " fill="#FDF7D7" transform="translate(128,151)"/>
<path d="M0 0 C2.97 0 5.94 0 9 0 C9 0.99 9 1.98 9 3 C6.03 2.67 3.06 2.34 0 2 C0 1.34 0 0.68 0 0 Z " fill="#F6E115" transform="translate(192,98)"/>
<path d="M0 0 C0.66 0.66 1.32 1.32 2 2 C1.34 2 0.68 2 0 2 C0 1.34 0 0.68 0 0 Z M-2 1 C-0.515 1.99 -0.515 1.99 1 3 C0.625 5.4375 0.625 5.4375 0 8 C-0.99 8.495 -0.99 8.495 -2 9 C-2 6.36 -2 3.72 -2 1 Z " fill="#FCFCFC" transform="translate(114,15)"/>
<path d="M0 0 C0.33 0 0.66 0 1 0 C1.33 2.64 1.66 5.28 2 8 C0.02 8 -1.96 8 -4 8 C-3.34 7.01 -2.68 6.02 -2 5 C-1.34 5 -0.68 5 0 5 C0 3.35 0 1.7 0 0 Z " fill="#1C1C1C" transform="translate(142,18)"/>
<path d="M0 0 C0 1.65 0 3.3 0 5 C-1.65 5 -3.3 5 -5 5 C-4.6875 3.0625 -4.6875 3.0625 -4 1 C-1 0 -1 0 0 0 Z " fill="#E6E6E6" transform="translate(142,18)"/>
<path d="M0 0 C2.3431213 0.25561323 4.67843403 0.59270772 7 1 C7.33 1.66 7.66 2.32 8 3 C5.36 3 2.72 3 0 3 C0 2.01 0 1.02 0 0 Z " fill="#FAF4B8" transform="translate(109,163)"/>
<path d="M0 0 C2.6015625 -0.29296875 2.6015625 -0.29296875 5.625 -0.1875 C7.12933594 -0.14689453 7.12933594 -0.14689453 8.6640625 -0.10546875 C9.43492187 -0.07066406 10.20578125 -0.03585938 11 0 C11 0.33 11 0.66 11 1 C6.71 1.66 2.42 2.32 -2 3 C-1.34 2.01 -0.68 1.02 0 0 Z " fill="#FFFBDC" transform="translate(183,151)"/>
<path d="M0 0 C3.96 0 7.92 0 12 0 C12.33 0.99 12.66 1.98 13 3 C12.01 3 11.02 3 10 3 C10 2.34 10 1.68 10 1 C6.7 1 3.4 1 0 1 C0 0.67 0 0.34 0 0 Z " fill="#E4CA46" transform="translate(144,60)"/>
<path d="M0 0 C1.32 0 2.64 0 4 0 C4 1.32 4 2.64 4 4 C2.35 3.67 0.7 3.34 -1 3 C-0.67 2.01 -0.34 1.02 0 0 Z " fill="#F5F5F5" transform="translate(158,8)"/>
<path d="M0 0 C0.33 0 0.66 0 1 0 C1 2.64 1 5.28 1 8 C0.01 8 -0.98 8 -2 8 C-1.47731534 5.23723823 -0.89130413 2.6739124 0 0 Z " fill="#F2E020" transform="translate(184,127)"/>
<path d="M0 0 C0 0.99 0 1.98 0 3 C-2.64 2.67 -5.28 2.34 -8 2 C-4.91190305 0.23537317 -3.76687864 0 0 0 Z " fill="#E6C91D" transform="translate(128,121)"/>
<path d="M0 0 C1.32 0 2.64 0 4 0 C4 0.99 4 1.98 4 3 C3.01 3 2.02 3 1 3 C1 4.65 1 6.3 1 8 C0.67 8 0.34 8 0 8 C0 5.36 0 2.72 0 0 Z " fill="#FDFCE2" transform="translate(188,116)"/>
<path d="M0 0 C0.99 0.33 1.98 0.66 3 1 C3 3.97 3 6.94 3 10 C2.67 10 2.34 10 2 10 C2 8.02 2 6.04 2 4 C1.34 4 0.68 4 0 4 C0 2.68 0 1.36 0 0 Z " fill="#EDCD20" transform="translate(208,46)"/>
<path d="M0 0 C2.64 0 5.28 0 8 0 C8.33 0.66 8.66 1.32 9 2 C6.75 2.6875 6.75 2.6875 4 3 C1.6875 1.5625 1.6875 1.5625 0 0 Z " fill="#E2E2E2" transform="translate(97,13)"/>
<path d="M0 0 C1.9375 0.3125 1.9375 0.3125 4 1 C4.33 1.99 4.66 2.98 5 4 C3.35 4 1.7 4 0 4 C0 2.68 0 1.36 0 0 Z " fill="#292929" transform="translate(82,4)"/>
</svg>
