<?xml version="1.0" standalone="no"?>
<!DOCTYPE svg PUBLIC "-//W3C//DTD SVG 20010904//EN"
 "http://www.w3.org/TR/2001/REC-SVG-20010904/DTD/svg10.dtd">
<svg version="1.0" xmlns="http://www.w3.org/2000/svg"
 width="190.000000pt" height="215.000000pt" viewBox="0 0 190.000000 215.000000"
 preserveAspectRatio="xMidYMid meet">
<metadata>
Created by potrace 1.16, written by Peter Selinger 2001-2019
</metadata>
<g transform="translate(0.000000,215.000000) scale(0.100000,-0.100000)"
fill="#000000" stroke="none">
<path d="M283 2035 c-17 -7 -36 -22 -42 -34 -16 -30 -13 -82 6 -104 17 -18 17
-19 0 -28 -25 -14 -21 -26 11 -32 15 -3 55 -14 88 -23 59 -17 63 -17 90 1 16
10 24 20 19 21 -6 1 -22 5 -37 8 l-28 6 31 28 c24 21 31 36 31 64 0 85 -83
131 -169 93z m71 -47 c23 -38 28 -74 11 -88 -21 -17 -43 2 -51 46 -11 60 13
85 40 42z"/>
<path d="M1217 2039 c-23 -14 -12 -29 21 -29 34 0 57 14 48 29 -9 14 -45 14
-69 0z"/>
<path d="M1088 2017 c-38 -22 -50 -47 -23 -47 11 0 15 -12 15 -44 0 -68 34
-92 89 -63 27 14 29 32 3 32 -12 0 -18 10 -20 38 -3 34 -1 37 22 37 16 0 26 6
26 15 0 9 -9 15 -25 15 -18 0 -25 5 -25 20 0 25 -16 25 -62 -3z"/>
<path d="M503 1992 c-18 -11 -5 -120 16 -131 14 -7 59 -8 144 -2 14 1 17 11
17 66 0 72 -9 83 -56 71 -22 -6 -25 -11 -19 -35 7 -32 -10 -85 -25 -76 -5 3
-10 31 -10 61 0 52 -1 54 -27 54 -16 0 -33 -4 -40 -8z"/>
<path d="M746 1979 c-36 -28 -36 -80 0 -108 30 -24 52 -26 89 -9 29 13 35 43
6 33 -21 -6 -51 3 -51 16 0 5 18 9 40 9 36 0 40 3 40 24 0 52 -76 73 -124 35z
m64 -19 c0 -11 -4 -20 -10 -20 -5 0 -10 9 -10 20 0 11 5 20 10 20 6 0 10 -9
10 -20z"/>
<path d="M913 1974 c-17 -27 -17 -27 17 -55 38 -32 35 -49 -4 -23 -32 20 -40
15 -27 -20 9 -23 16 -26 54 -26 75 0 101 51 46 90 -33 25 -33 38 1 20 26 -14
34 -8 25 19 -5 17 -15 21 -50 21 -37 0 -47 -4 -62 -26z"/>
<path d="M1238 1993 c-13 -3 -17 -19 -20 -69 -3 -60 -1 -65 19 -70 33 -9 58
-1 57 19 0 9 -1 42 -2 72 -2 57 -6 61 -54 48z"/>
<path d="M1373 1980 c-44 -26 -47 -78 -7 -109 32 -25 55 -26 94 -6 54 28 64
72 25 110 -29 30 -68 32 -112 5z m61 -45 c8 -40 -1 -65 -15 -44 -11 18 -11 79
0 79 5 0 12 -16 15 -35z"/>
<path d="M1564 1990 c-18 -7 -21 -16 -20 -72 l1 -63 35 0 c33 0 35 2 36 35 3
63 4 70 13 70 6 0 11 -24 13 -52 l3 -53 35 0 35 0 -3 60 c-2 33 -8 66 -14 72
-13 17 -50 17 -67 1 -11 -10 -14 -10 -18 0 -5 14 -19 14 -49 2z"/>
<path d="M428 1620 c3 -51 0 -85 -7 -93 -16 -20 -4 -27 45 -27 45 0 64 14 45
33 -6 6 -11 19 -11 29 0 14 8 18 33 18 45 0 77 25 77 60 0 44 -31 60 -116 60
l-71 0 5 -80z m110 17 c-2 -11 -9 -22 -15 -25 -16 -4 -27 22 -19 43 8 22 38 6
34 -18z"/>
<path d="M675 1639 c-28 -17 -36 -32 -24 -44 7 -7 16 -3 28 12 19 22 31 21 31
-4 0 -7 -8 -13 -18 -13 -24 0 -62 -28 -62 -45 0 -30 29 -43 90 -41 65 3 93 17
72 38 -7 7 -12 26 -12 43 0 16 -4 36 -8 43 -12 18 -73 25 -97 11z m35 -91 c0
-16 -3 -19 -11 -11 -6 6 -8 16 -5 22 11 17 16 13 16 -11z"/>
<path d="M845 1640 c-15 -5 -18 -19 -18 -91 -1 -82 0 -84 25 -93 37 -13 60 -2
53 27 -6 22 -4 23 24 19 22 -3 36 2 55 21 31 31 33 66 7 98 -16 20 -29 24 -74
25 -29 0 -62 -2 -72 -6z m93 -74 c-2 -11 -11 -22 -20 -24 -14 -3 -18 3 -18 26
0 16 3 32 7 35 11 12 34 -15 31 -37z"/>
<path d="M1083 1640 c-48 -20 -58 -87 -17 -119 34 -26 75 -27 105 -1 25 20 23
22 -25 24 -47 2 -43 24 5 28 51 4 59 19 25 53 -26 26 -54 30 -93 15z m57 -36
c0 -8 -7 -14 -15 -14 -15 0 -21 21 -9 33 10 9 24 -2 24 -19z"/>
<path d="M1241 1641 c-21 -6 -23 -11 -23 -71 l0 -65 42 -3 c52 -4 70 10 46 34
-22 21 -16 50 9 47 41 -5 65 7 65 32 0 29 -30 41 -62 24 -16 -9 -23 -9 -26 0
-4 12 -14 13 -51 2z"/>
<path d="M1426 1631 c-22 -25 -13 -58 20 -73 13 -6 24 -15 24 -20 0 -12 -13
-10 -38 8 -29 20 -39 12 -24 -21 10 -21 18 -25 55 -25 51 0 83 26 72 59 -3 12
-10 21 -14 21 -4 0 -16 7 -27 15 -18 15 -17 16 14 10 23 -5 32 -3 32 7 0 40
-83 54 -114 19z"/>
<path d="M880 1362 c0 -16 97 -102 165 -147 62 -41 361 -195 378 -195 4 0 7 4
7 10 0 5 -39 28 -88 50 l-87 41 -31 67 c-17 37 -36 78 -42 92 -23 54 -11 -10
14 -69 14 -35 23 -66 20 -68 -6 -6 -112 51 -138 75 -21 18 -15 32 16 32 24 0
64 25 55 34 -3 4 -34 -2 -68 -13 l-61 -19 -53 47 c-28 25 -58 52 -65 59 -15
14 -22 15 -22 4z"/>
<path d="M828 1308 c-35 -56 -82 -101 -111 -105 -12 -1 -52 -10 -89 -19 -66
-16 -67 -17 -84 -60 -13 -34 -14 -50 -6 -67 l11 -22 0 25 c1 14 6 41 11 61 10
34 12 36 77 48 38 8 75 18 83 24 8 6 -18 -23 -57 -64 -77 -78 -96 -102 -106
-134 -4 -12 5 -6 21 15 32 42 42 51 160 159 94 85 126 127 120 162 -2 15 -9
11 -30 -23z"/>
<path d="M1409 973 c-13 -16 -12 -17 4 -4 16 13 21 21 13 21 -2 0 -10 -8 -17
-17z"/>
<path d="M571 953 c8 -10 28 -46 44 -80 28 -62 45 -81 25 -29 -14 39 12 45 58
13 45 -32 241 -188 317 -253 31 -26 58 -44 62 -40 8 8 8 8 -142 133 -204 169
-415 317 -364 256z"/>
<path d="M1435 960 c-4 -6 -1 -9 6 -8 8 2 14 -7 15 -20 2 -27 10 -37 19 -23 3
6 2 11 -4 11 -6 0 -8 6 -5 13 6 18 -22 42 -31 27z"/>
<path d="M493 926 c-24 -20 -25 -26 -14 -40 7 -9 18 -16 24 -16 7 0 7 4 -1 12
-7 7 -12 17 -12 22 0 6 28 -16 62 -49 l62 -60 -54 59 -54 59 27 14 c32 16 34
23 8 23 -11 0 -32 -11 -48 -24z"/>
<path d="M1304 853 c-49 -54 -110 -119 -135 -145 -96 -100 -105 -171 -13 -102
27 20 63 49 79 64 22 20 45 29 84 33 65 8 62 -1 -6 -13 -46 -7 -46 -8 -10 -9
41 -1 41 0 27 -35 -6 -17 -6 -26 0 -26 6 0 13 13 16 30 4 16 17 36 30 45 29
19 23 35 -14 36 -27 0 -27 0 -4 11 13 7 22 19 20 29 -2 12 15 31 51 56 57 40
74 63 47 63 -9 0 -16 -4 -16 -9 0 -5 -17 -19 -37 -32 -21 -12 -50 -33 -65 -47
-14 -13 -31 -21 -36 -18 -6 3 -21 -4 -34 -16 -13 -13 -17 -18 -8 -12 66 47 26
3 -99 -109 -114 -102 -95 -65 58 113 36 41 69 74 75 72 6 -2 8 0 4 3 -4 4 13
32 39 61 74 87 43 62 -53 -43z"/>
<path d="M432 897 c-22 -26 -25 -95 -7 -143 9 -25 19 -43 22 -41 2 3 -1 34 -8
69 -10 56 -10 70 4 97 16 31 9 42 -11 18z"/>
<path d="M1375 844 l-50 -46 53 42 c45 36 59 51 50 50 -2 0 -25 -21 -53 -46z"/>
<path d="M550 818 c24 -27 45 -48 47 -48 8 0 0 9 -44 50 l-48 45 45 -47z"/>
<path d="M651 796 c-2 -21 85 -234 106 -259 12 -16 23 -33 23 -39 0 -12 53 -7
180 16 104 19 342 47 348 41 2 -2 1 -12 -4 -22 -4 -10 -8 -22 -9 -28 0 -5 -4
-16 -9 -23 -6 -10 -3 -13 10 -10 14 2 22 16 28 50 7 37 14 48 33 52 24 7 30
30 13 56 -8 12 -10 11 -10 -7 0 -15 -9 -24 -32 -32 -43 -14 -375 -61 -413 -58
-16 1 -48 -2 -69 -7 l-39 -7 6 42 c4 31 3 39 -4 28 -8 -10 -9 -7 -6 13 6 36
-10 26 -18 -12 -12 -54 -13 -52 -109 160 -13 30 -25 51 -25 46z m163 -288 c7
-5 5 -8 -6 -8 -13 0 -18 7 -17 28 1 21 2 22 6 7 3 -11 10 -23 17 -27z m103 16
c-3 -3 -12 -4 -19 -1 -8 3 -5 6 6 6 11 1 17 -2 13 -5z"/>
<path d="M730 764 c0 -6 7 -19 16 -30 14 -18 14 -18 3 6 -14 31 -19 36 -19 24z"/>
<path d="M615 536 c83 -79 151 -141 153 -137 4 12 -270 273 -292 279 -6 2 57
-62 139 -142z"/>
<path d="M872 647 c-48 -13 -56 -29 -16 -34 15 -3 23 0 20 6 -4 7 12 8 46 4
l53 -6 -19 22 c-21 23 -24 24 -84 8z m71 -14 c-7 -2 -19 -2 -25 0 -7 3 -2 5
12 5 14 0 19 -2 13 -5z"/>
<path d="M1308 603 c7 -3 16 -2 19 1 4 3 -2 6 -13 5 -11 0 -14 -3 -6 -6z"/>
<path d="M1248 593 c6 -2 18 -2 25 0 6 3 1 5 -13 5 -14 0 -19 -2 -12 -5z"/>
<path d="M1198 583 c7 -3 16 -2 19 1 4 3 -2 6 -13 5 -11 0 -14 -3 -6 -6z"/>
<path d="M1148 573 c7 -3 16 -2 19 1 4 3 -2 6 -13 5 -11 0 -14 -3 -6 -6z"/>
<path d="M483 522 c-19 -12 -31 -55 -22 -79 13 -35 29 -27 29 13 0 21 4 33 10
29 6 -3 10 -14 10 -23 0 -9 5 -24 10 -32 7 -12 12 -12 21 -3 9 9 16 10 26 1
18 -15 26 -4 18 22 -5 17 -12 20 -30 16 -18 -5 -24 0 -31 26 -10 34 -22 42
-41 30z"/>
<path d="M907 487 c-4 -10 -7 -28 -7 -38 0 -16 -5 -19 -20 -14 -14 5 -20 2
-20 -9 0 -9 7 -16 15 -16 10 0 15 -10 15 -30 0 -17 7 -44 15 -60 15 -28 14
-30 -4 -30 -32 0 -45 25 -31 59 7 17 10 35 8 42 -2 7 -13 -13 -25 -44 -20 -55
-20 -55 -1 -61 11 -2 17 -9 13 -15 -3 -6 0 -11 7 -11 7 0 31 -14 52 -32 48
-39 36 -48 -69 -50 -42 -1 -71 -6 -67 -10 11 -11 303 -4 427 10 50 6 96 11
103 11 7 1 11 4 9 9 -3 4 -81 9 -174 10 -95 2 -173 8 -180 14 -21 17 -15 43
17 66 55 41 31 69 -31 37 -39 -21 -49 -12 -48 38 2 34 3 36 6 12 8 -53 18 -46
18 13 0 31 3 71 8 87 7 30 7 30 -7 5 l-14 -24 -4 24 c-3 22 -4 23 -11 7z m10
-59 c-3 -8 -6 -5 -6 6 -1 11 2 17 5 13 3 -3 4 -12 1 -19z"/>
<path d="M1245 446 c-44 -12 -98 -32 -120 -45 -22 -12 -31 -19 -20 -16 11 4
53 18 93 31 40 13 80 24 90 24 19 0 49 17 42 23 -3 2 -41 -5 -85 -17z"/>
<path d="M602 408 c6 -18 28 -21 28 -4 0 9 -7 16 -16 16 -9 0 -14 -5 -12 -12z"/>
<path d="M710 391 c0 -43 38 -53 96 -25 42 20 39 28 -5 13 -26 -9 -35 -8 -50
5 -19 18 -41 21 -41 7z"/>
<path d="M1030 364 c0 -17 22 -14 28 4 2 7 -3 12 -12 12 -9 0 -16 -7 -16 -16z"/>
<path d="M970 350 c-9 -6 -10 -10 -3 -10 6 0 15 5 18 10 8 12 4 12 -15 0z"/>
<path d="M730 295 c0 -25 5 -45 10 -45 6 0 10 -10 10 -22 0 -13 5 -30 10 -38
8 -11 10 -5 8 23 -1 20 -6 37 -10 37 -4 0 -8 20 -8 45 0 25 -4 45 -10 45 -5 0
-10 -20 -10 -45z"/>
<path d="M605 248 c-9 -29 -45 -69 -56 -62 -5 3 -9 0 -9 -6 0 -6 12 -15 26
-20 35 -14 41 -12 19 4 -18 13 -18 15 7 44 14 17 28 36 30 42 5 17 58 -10 58
-29 0 -9 -7 -25 -15 -35 -8 -11 -15 -23 -15 -28 0 -11 42 -10 60 2 13 9 13 12
-3 21 -13 8 -15 14 -7 29 9 17 6 23 -22 40 -43 26 -65 25 -73 -2z"/>
<path d="M430 204 c-24 -14 -24 -15 -3 -11 13 3 26 1 29 -4 3 -5 -6 -9 -20 -9
-39 0 -31 -15 10 -17 32 -1 34 0 28 20 -10 34 -17 37 -44 21z"/>
<path d="M302 169 c2 -7 10 -15 17 -17 8 -3 12 1 9 9 -2 7 -10 15 -17 17 -8 3
-12 -1 -9 -9z"/>
</g>
</svg>
