<?xml version="1.0" standalone="no"?>
<!DOCTYPE svg PUBLIC "-//W3C//DTD SVG 20010904//EN"
 "http://www.w3.org/TR/2001/REC-SVG-20010904/DTD/svg10.dtd">
<svg version="1.0" xmlns="http://www.w3.org/2000/svg"
 width="300.000000pt" height="180.000000pt" viewBox="0 0 300.000000 180.000000"
 preserveAspectRatio="xMidYMid meet">

<g transform="translate(0.000000,180.000000) scale(0.100000,-0.100000)"
fill="#000000" stroke="none">
<path d="M0 900 l0 -900 1500 0 1500 0 0 900 0 900 -1500 0 -1500 0 0 -900z
m1720 506 c0 -9 -9 -14 -20 -13 -25 2 -26 14 -2 20 9 3 18 5 20 6 1 0 2 -5 2
-13z m70 -17 c0 -5 -7 -5 -17 -2 -11 4 -14 3 -9 -5 4 -7 16 -12 27 -12 11 0
18 -4 14 -10 -3 -5 -13 -7 -23 -4 -15 5 -15 5 1 -6 13 -9 15 -15 7 -31 -9 -16
-40 -28 -40 -15 0 2 -3 12 -7 21 -5 14 -2 16 17 10 l23 -7 -21 22 c-15 16 -26
20 -39 15 -16 -7 -17 -8 -1 -12 14 -4 15 -8 6 -29 -8 -16 -18 -24 -28 -21 -10
2 -24 0 -33 -5 -11 -5 -24 -5 -36 2 -12 6 -22 6 -25 1 -4 -5 -1 -11 6 -13 6
-2 8 -10 4 -17 -6 -9 -12 -9 -26 4 -27 24 -15 43 23 39 29 -3 30 -2 14 10 -14
11 -15 16 -6 22 7 4 15 2 17 -4 2 -7 8 -12 13 -12 6 0 7 5 4 10 -3 6 1 10 9
10 22 0 20 -8 -6 -31 -13 -10 -18 -18 -11 -19 6 0 19 7 28 17 13 12 19 13 25
4 5 -10 9 -9 13 4 4 9 3 14 -1 12 -12 -7 -45 30 -33 38 6 3 11 0 11 -7 0 -9 2
-10 8 -2 4 7 16 14 27 16 11 2 19 9 18 15 -1 6 9 8 22 5 14 -2 25 -8 25 -13z
m-129 -3 c-6 -7 -8 -16 -4 -19 3 -4 -3 -7 -14 -7 -22 0 -47 -23 -36 -33 3 -4
1 -7 -6 -7 -7 0 -11 6 -8 14 3 7 1 18 -5 24 -20 20 -1 38 42 39 33 2 39 -1 31
-11z m197 -36 c25 -1 26 -1 7 -12 -11 -6 -24 -17 -28 -25 -5 -7 -13 -11 -19
-7 -6 4 -5 -3 2 -16 10 -19 9 -21 -6 -18 -22 4 -27 34 -8 52 8 8 15 27 15 43
2 23 2 24 6 6 3 -17 11 -23 31 -23z m690 8 c2 -16 8 -28 13 -28 6 0 7 5 4 10
-3 6 -2 10 3 10 15 0 21 -51 10 -76 -9 -20 -13 -21 -25 -8 -18 17 -8 35 15 28
14 -5 14 -4 3 4 -10 7 -23 7 -40 -2 -33 -17 -51 -10 -50 17 0 21 1 21 9 2 6
-14 9 -16 10 -5 2 8 2 18 1 23 0 4 6 7 14 7 18 0 20 -17 3 -23 -7 -2 -9 -8 -5
-13 12 -12 27 17 26 51 0 26 -2 27 -9 10 -7 -17 -9 -17 -9 -2 -1 20 -21 24
-21 3 0 -7 -10 -16 -22 -19 -28 -8 -37 0 -12 10 10 3 23 13 27 20 15 25 52 11
55 -19z m-972 -20 c-6 -4 -7 -8 -1 -8 5 0 -1 -7 -13 -16 -12 -8 -22 -24 -22
-35 0 -20 -15 -26 -24 -10 -4 5 0 11 6 14 10 3 10 9 0 26 -15 26 0 54 24 44
10 -4 12 0 8 13 -7 18 -6 17 13 -1 14 -13 16 -22 9 -27z m884 34 c0 -5 -3 -12
-7 -16 -4 -4 -8 -15 -8 -24 0 -10 -7 -16 -17 -16 -10 1 -14 -4 -11 -13 3 -8
12 -12 19 -9 8 3 14 -1 14 -9 0 -8 5 -15 10 -15 6 0 15 -11 20 -25 6 -15 17
-25 27 -24 17 1 17 2 1 6 -10 2 -18 13 -18 24 0 10 -3 19 -8 19 -16 0 -34 42
-23 53 8 8 11 5 11 -11 0 -13 7 -25 15 -28 8 -4 15 -15 15 -25 0 -11 7 -19 16
-19 14 0 14 3 4 15 -13 16 -3 20 16 7 7 -4 8 -15 3 -29 -6 -18 -16 -23 -43
-23 -28 0 -35 4 -40 25 -4 17 -12 25 -24 23 -10 -2 -16 3 -14 11 1 7 -3 20 -9
27 -10 12 -8 19 9 34 12 11 19 27 16 35 -4 9 0 15 10 15 9 0 16 -4 16 -8z
m-553 -59 c-1 -10 -6 -24 -11 -32 -7 -10 -4 -12 12 -7 26 9 57 -33 47 -64 -5
-17 -15 -20 -60 -20 l-53 0 -4 51 c-1 29 2 58 7 66 8 10 10 -2 10 -44 0 -47 3
-58 17 -61 15 -3 17 5 16 60 0 42 -3 56 -9 43 -5 -14 -8 -16 -8 -4 -1 19 8 29
26 29 7 0 12 -8 10 -17z m-397 -7 c0 -3 -4 -8 -10 -11 -5 -3 -10 -1 -10 4 0 6
5 11 10 11 6 0 10 -2 10 -4z m60 -21 c10 -12 10 -15 -4 -15 -9 0 -16 7 -16 15
0 8 2 15 4 15 2 0 9 -7 16 -15z m-35 -45 c-3 -5 -1 -10 4 -10 6 0 11 -10 11
-22 l0 -21 -19 22 c-16 18 -20 19 -25 6 -3 -9 -2 -13 3 -10 5 3 12 1 15 -4 9
-13 -22 -7 -37 8 -9 10 -8 15 7 27 23 16 50 19 41 4z m57 -15 c-6 -33 -19 -40
-27 -15 -7 23 1 40 19 40 9 0 12 -9 8 -25z m-4 -52 c-24 -6 -23 -20 2 -33 21
-11 27 -44 11 -55 -16 -9 -101 -23 -101 -16 0 4 5 12 11 18 7 7 7 13 1 17 -6
3 -13 2 -17 -4 -3 -5 -11 -10 -17 -10 -7 0 -7 4 1 14 9 11 6 12 -15 8 -14 -2
-21 -8 -15 -11 6 -4 -5 -7 -25 -8 -42 -1 -41 0 -49 -38 l-6 -30 16 28 c19 34
39 31 43 -6 3 -27 -4 -31 -45 -30 -7 1 -10 -3 -7 -8 3 -5 1 -9 -4 -9 -15 0
-21 35 -10 55 8 13 7 16 -3 12 -8 -2 -13 -10 -11 -17 2 -8 -3 -10 -13 -6 -9 3
-13 2 -10 -4 3 -6 1 -10 -5 -10 -6 0 -8 -4 -5 -10 3 -5 2 -10 -3 -10 -12 0
-24 29 -16 41 3 5 13 9 24 9 13 0 17 6 14 23 -4 19 -3 20 4 3 8 -19 9 -19 15
3 3 13 10 20 16 17 5 -4 13 -2 16 4 4 6 15 8 26 5 13 -4 19 -2 19 9 0 19 11
20 29 4 11 -11 13 -10 8 5 -4 11 -1 17 7 17 8 0 16 -5 18 -12 6 -17 28 0 28
23 0 16 7 19 43 18 23 -1 34 -3 25 -6z m326 -2 c8 -13 -21 -34 -39 -27 -8 3
-15 1 -15 -4 0 -6 11 -10 25 -10 17 0 29 8 37 25 15 34 47 34 40 0 -6 -35 -20
-41 -16 -7 2 15 1 20 -2 11 -12 -39 -85 -51 -92 -15 -6 28 47 51 62 27z m696
-36 c15 18 54 20 68 3 5 -7 12 -27 15 -44 3 -17 10 -41 16 -53 8 -14 8 -21 1
-21 -14 0 -30 43 -30 80 0 30 -21 44 -51 35 -40 -13 -35 -85 7 -85 17 0 24 5
24 20 0 25 -17 26 -23 3 -3 -10 -5 -2 -5 17 0 19 2 29 5 23 2 -7 11 -13 19
-13 21 0 17 -47 -4 -59 -14 -7 -25 -6 -39 4 -19 13 -21 13 -26 -5 -4 -14 -13
-20 -34 -19 -20 1 -22 3 -8 6 33 8 63 63 34 63 -5 0 -7 -4 -4 -10 3 -5 1 -10
-4 -10 -6 0 -11 -8 -12 -17 0 -15 -2 -15 -8 2 l-8 20 -5 -20 c-5 -18 -6 -18
-7 3 -1 12 -7 22 -16 22 -13 0 -13 -3 -3 -20 11 -17 10 -23 -8 -40 l-20 -20
-22 21 c-26 24 -25 39 5 54 11 6 17 17 15 25 -5 13 -3 13 11 1 15 -12 17 -11
18 5 1 17 2 17 6 2 7 -27 17 -22 31 14 11 30 12 31 30 14 17 -15 20 -15 32 -1z
m-1516 -11 c23 -23 20 -54 -5 -54 -11 0 -17 -4 -14 -10 3 -5 0 -10 -9 -10 -8
0 -16 6 -19 13 -2 7 -8 8 -13 3 -5 -5 -4 -11 4 -13 6 -3 10 -9 7 -13 -3 -5
-12 -7 -19 -4 -15 6 -21 94 -6 94 5 0 10 -11 10 -25 0 -14 5 -25 10 -25 6 0
10 8 10 18 0 15 17 42 26 42 2 0 10 -7 18 -16z m-783 -3 c-12 -8 -11 -13 9
-29 25 -20 21 -42 -8 -42 -14 0 -14 2 -3 9 8 5 10 14 6 21 -12 19 -30 -15 -34
-62 -2 -22 -3 -22 -10 -3 -5 11 -6 24 -3 29 3 5 0 6 -7 2 -6 -4 -9 -16 -6 -27
4 -10 2 -19 -4 -19 -16 0 -24 21 -12 33 7 7 7 14 0 23 -8 10 -7 22 2 44 12 25
19 30 49 30 25 0 31 -3 21 -9z m136 2 c-9 -2 -14 -9 -11 -15 10 -15 -18 -29
-33 -16 -7 6 -11 13 -9 17 2 3 -7 7 -20 7 -13 1 -24 -2 -24 -7 0 -5 3 -8 8 -8
17 3 32 -2 32 -10 0 -4 -11 -6 -25 -3 -16 3 -25 11 -25 23 0 17 8 19 63 18 34
-1 54 -3 44 -6z m87 -9 c4 -10 1 -14 -6 -12 -15 5 -23 28 -10 28 5 0 13 -7 16
-16z m23 -16 c-3 -7 -5 -2 -5 12 0 14 2 19 5 13 2 -7 2 -19 0 -25z m20 0 c-3
-7 -5 -2 -5 12 0 14 2 19 5 13 2 -7 2 -19 0 -25z m33 7 c0 -14 -4 -25 -9 -25
-4 0 -6 11 -3 25 2 14 6 25 8 25 2 0 4 -11 4 -25z m27 -7 c-3 -7 -5 -2 -5 12
0 14 2 19 5 13 2 -7 2 -19 0 -25z m56 18 c10 -8 17 -26 17 -44 0 -29 3 -31 43
-35 23 -2 3 -4 -45 -5 -80 -2 -88 0 -88 17 0 22 26 35 36 19 4 -6 3 -8 -4 -4
-6 3 -13 2 -16 -3 -6 -9 16 -21 39 -21 7 0 13 11 13 25 0 13 -4 22 -9 19 -5
-3 -9 0 -9 5 0 6 5 11 11 11 5 0 7 5 4 10 -10 15 -23 12 -28 -7 -4 -14 -5 -12
-6 5 -1 25 15 28 42 8z m1540 7 c-13 -2 -23 -8 -23 -13 0 -5 10 -10 23 -12 25
-3 36 -50 17 -73 -12 -14 -100 -25 -100 -13 0 5 15 8 34 8 38 0 69 23 64 49
-5 27 -32 18 -39 -14 -7 -33 -10 -28 -12 24 -3 55 -27 51 -27 -4 0 -28 -4 -44
-10 -40 -5 3 -10 26 -10 51 l0 44 53 -1 c28 -1 42 -4 30 -6z m506 -9 c-13 -16
2 -19 17 -4 7 7 19 3 37 -13 26 -22 38 -45 17 -32 -5 3 -10 0 -11 -7 0 -7 -5
-1 -11 15 -9 26 -38 39 -38 17 0 -7 -7 -7 -22 0 -21 10 -21 10 -5 -3 9 -8 17
-20 17 -28 1 -8 8 -3 16 11 9 15 13 17 10 6 -9 -27 11 -48 35 -35 13 7 19 6
19 -1 0 -6 4 -9 8 -6 4 2 9 -7 10 -21 2 -30 10 -43 23 -43 6 0 7 5 4 10 -3 6
-1 10 5 10 11 0 7 -40 -6 -62 -5 -8 -2 -9 9 -5 10 3 17 2 17 -3 0 -11 -39 -24
-47 -16 -4 3 -1 17 5 31 10 21 9 25 -3 25 -8 0 -14 3 -13 8 3 13 -14 62 -22
62 -12 0 -22 -33 -12 -39 5 -3 14 -16 20 -28 10 -18 9 -20 -7 -16 -13 3 -18
11 -14 21 5 14 3 15 -7 5 -9 -8 -19 -9 -32 -2 -20 11 -24 34 -6 45 7 4 8 3 4
-4 -4 -7 -3 -12 3 -12 5 0 12 -8 14 -17 3 -12 5 -9 6 8 0 14 -6 34 -14 45 -9
11 -14 14 -15 6 0 -17 -32 0 -36 19 -2 8 -5 25 -8 39 -5 21 -2 25 20 26 20 2
23 -1 13 -12z m-1989 -4 c0 -5 5 -10 11 -10 5 0 7 5 4 10 -3 6 0 10 8 10 20 0
30 -29 16 -46 -14 -17 -45 -18 -56 -1 -14 23 -13 47 2 47 8 0 15 -4 15 -10z
m-276 -16 c-16 -13 -16 -15 -1 -10 9 3 17 2 17 -3 0 -5 -16 -12 -35 -15 -35
-7 -46 -20 -22 -29 6 -3 -11 -6 -40 -6 -49 -1 -52 0 -45 20 5 11 11 20 15 20
4 -1 14 -1 22 -1 8 0 15 -5 15 -11 0 -6 -9 -8 -22 -4 -21 6 -22 5 -4 -6 16
-10 21 -9 31 5 7 9 19 16 28 16 9 0 19 9 22 20 3 11 14 20 23 20 13 0 13 -3
-4 -16z m1489 -7 c-4 -20 -11 -23 -59 -24 -45 -1 -54 2 -54 16 0 27 9 31 65
31 49 0 52 -1 48 -23z m-1433 -12 c0 -8 -4 -15 -8 -15 -5 0 -9 7 -9 15 0 8 4
15 9 15 4 0 8 -7 8 -15z m950 -12 c0 -16 -2 -16 -11 -3 -9 13 -10 13 -7 0 3
-8 15 -17 29 -21 20 -6 18 -7 -13 -8 -37 -1 -41 5 -29 47 1 1 8 2 16 2 8 0 15
-8 15 -17z m-909 -13 c6 0 7 5 3 12 -4 7 -3 8 5 4 6 -4 9 -12 6 -17 -4 -5 -2
-9 4 -9 5 0 12 8 15 18 4 13 4 13 3 -3 -2 -14 -10 -20 -29 -22 -30 -2 -43 10
-32 29 6 9 9 9 12 0 2 -7 8 -12 13 -12z m1106 5 c-2 -5 -11 -10 -21 -10 -9 0
-27 -14 -40 -30 -22 -27 -25 -28 -31 -12 -10 23 3 36 16 17 9 -12 10 -12 5 3
-3 11 -2 16 4 12 6 -3 10 -2 10 3 0 17 -13 22 -27 10 -7 -6 -17 -8 -20 -4 -13
12 14 22 61 21 26 0 44 -4 43 -10z m-557 -30 c0 -27 -16 -35 -53 -28 -29 6
-34 15 -14 30 19 16 46 12 40 -6 -3 -12 -2 -12 7 2 6 9 8 22 4 29 -4 7 -3 8 4
4 7 -4 12 -18 12 -31z m438 23 c-2 -6 -10 -14 -18 -16 -7 -3 -10 0 -6 6 3 6 0
13 -6 15 -7 3 -2 6 10 6 14 1 22 -4 20 -11z m-1083 -27 c-6 -5 -25 10 -25 20
0 5 6 4 14 -3 8 -7 12 -15 11 -17z m51 14 c-4 -11 1 -15 18 -15 13 0 29 -7 36
-15 16 -19 26 -95 12 -95 -6 0 -18 -3 -26 -6 -11 -4 -15 -2 -13 7 2 8 2 11 0
7 -3 -5 -10 -8 -18 -8 -7 0 -18 -7 -25 -15 -11 -13 -10 -18 6 -30 18 -13 17
-13 -8 -11 -16 2 -28 -1 -28 -7 0 -6 -3 -8 -6 -4 -4 3 3 21 15 40 27 44 27 57
-1 26 -18 -20 -20 -21 -13 -4 4 11 12 45 17 75 5 30 14 58 21 62 17 11 20 10
13 -7z m1348 -27 c7 -5 5 -8 -6 -8 -13 0 -18 7 -17 28 1 21 2 22 6 7 3 -11 10
-23 17 -27z m81 33 c-3 -5 -1 -12 5 -16 19 -12 10 -32 -15 -32 -14 0 -25 4
-25 9 0 6 -6 8 -13 5 -8 -3 -14 3 -14 14 -1 10 3 19 8 19 6 0 7 -4 4 -10 -3
-5 -1 -10 4 -10 6 0 11 5 11 11 0 5 5 7 10 4 6 -3 10 -1 10 4 0 6 5 11 11 11
5 0 8 -4 4 -9z m-1618 -23 c16 -13 5 -38 -17 -38 -14 0 -17 6 -13 23 4 18 3
19 -6 7 -9 -13 -11 -13 -11 1 0 30 14 32 47 7z m693 2 c0 -5 -2 -10 -4 -10 -3
0 -8 5 -11 10 -3 6 -1 10 4 10 6 0 11 -4 11 -10z m674 -5 c-4 -10 0 -15 11
-15 9 0 14 -4 10 -9 -3 -5 -1 -12 5 -16 13 -8 13 -25 -1 -25 -5 0 -7 5 -4 10
3 6 1 10 -4 10 -6 0 -11 -5 -11 -11 0 -7 -9 -9 -22 -6 -12 4 -28 1 -35 -5 -11
-8 -17 -8 -26 3 -7 8 -8 11 -3 7 16 -13 26 -9 20 6 -4 11 0 13 15 9 13 -3 21
-1 21 6 0 7 5 9 10 6 6 -3 10 -4 10 -1 0 3 -10 10 -22 17 -18 10 -20 9 -15 -4
4 -11 2 -14 -9 -10 -7 3 -14 14 -14 24 0 15 7 19 35 19 26 0 33 -3 29 -15z
m1166 -6 c0 -5 -4 -9 -10 -9 -5 0 -10 7 -10 16 0 8 5 12 10 9 6 -3 10 -10 10
-16z m-343 -21 c-3 -8 -6 -5 -6 6 -1 11 2 17 5 13 3 -3 4 -12 1 -19z m25 -3
c-2 -14 -8 -25 -12 -25 -4 0 -5 11 -2 25 2 14 8 25 12 25 4 0 5 -11 2 -25z
m-1498 6 c16 -7 26 -19 28 -37 2 -15 9 -29 17 -32 10 -3 12 4 9 32 -4 37 5 49
16 20 10 -25 7 -42 -10 -58 -8 -9 -11 -16 -6 -16 6 0 8 -8 6 -18 -4 -13 -17
-18 -51 -19 -25 -2 -49 0 -54 3 -10 6 0 34 13 34 5 0 6 -4 3 -10 -3 -5 -3 -11
2 -11 45 -7 63 -7 67 0 3 4 -7 7 -22 6 -44 -1 -84 70 -51 91 8 4 7 9 -2 15
-19 12 3 12 35 0z m271 -1 c8 -13 -5 -13 -25 0 -13 8 -13 10 2 10 9 0 20 -4
23 -10z m40 -8 c-3 -3 -11 0 -18 7 -9 10 -8 11 6 5 10 -3 15 -9 12 -12z m861
-12 c8 0 14 8 15 18 0 12 3 11 10 -6 12 -30 4 -42 -27 -42 -21 0 -24 4 -23 33
1 17 3 24 6 15 2 -10 11 -18 19 -18z m224 18 c0 16 22 15 46 -2 16 -12 17 -18
7 -34 -6 -10 -8 -24 -3 -31 5 -9 9 -6 13 10 7 26 23 17 29 -15 2 -15 -4 -19
-33 -20 -30 -1 -35 2 -32 19 3 14 -3 23 -19 30 -14 6 -24 20 -26 35 -2 20 -1
22 7 10 7 -10 11 -11 11 -2z m-1053 -30 c-3 -7 -5 -2 -5 12 0 14 2 19 5 13 2
-7 2 -19 0 -25z m573 -23 c0 -13 -5 -27 -11 -31 -13 -8 -46 22 -35 33 4 4 11
1 16 -7 11 -18 25 -6 17 15 -7 17 -72 21 -82 5 -4 -6 -2 -9 2 -8 5 2 26 -12
47 -29 28 -26 33 -33 18 -33 -10 0 -26 -8 -34 -17 -20 -23 -30 -65 -15 -60 6
2 15 18 19 35 7 26 13 32 36 31 15 0 22 -3 15 -6 -10 -3 -10 -9 0 -24 10 -17
9 -22 -5 -30 -11 -6 -14 -16 -10 -31 6 -23 6 -23 13 2 7 25 7 25 8 -4 1 -23
-3 -27 -17 -24 -10 3 -27 -1 -37 -8 -18 -13 -17 -14 8 -14 16 0 30 -8 37 -20
9 -16 8 -20 -5 -20 -8 0 -16 8 -16 18 -1 16 -2 16 -6 0 -2 -10 -9 -18 -14 -18
-6 0 -8 4 -5 9 4 5 -6 5 -22 -1 -24 -9 -27 -15 -24 -49 l4 -39 49 0 c28 0 49
-5 49 -10 0 -7 -22 -10 -57 -8 l-58 3 0 89 c0 52 5 100 13 114 6 13 12 34 11
46 -1 19 -2 19 -9 -4 -7 -22 -8 -20 -7 13 0 36 11 50 20 25 3 -10 7 -10 20 1
21 17 14 31 -12 24 -26 -7 -45 28 -28 49 23 30 48 36 78 21 20 -10 29 -22 29
-38z m214 39 c3 -8 2 -12 -4 -9 -6 3 -10 0 -11 -7 0 -7 -5 -4 -10 7 -8 17 -9
16 -6 -7 3 -16 0 -28 -4 -28 -5 0 -9 14 -9 30 0 23 5 30 19 30 10 0 22 -7 25
-16z m-1929 -24 c8 0 19 8 25 18 9 14 10 12 6 -13 -2 -16 -8 -39 -11 -50 -6
-17 -5 -18 5 -5 10 13 11 13 7 0 -2 -8 -12 -17 -22 -19 -10 -2 -26 -12 -35
-24 -17 -21 -50 -18 -50 4 0 8 4 8 15 -1 15 -12 35 -6 35 11 0 6 -4 7 -10 4
-5 -3 -10 -2 -10 4 0 6 -8 8 -17 5 -16 -5 -16 -4 0 6 13 8 22 9 31 1 10 -8 17
-7 27 6 11 14 12 15 0 9 -10 -7 -12 -3 -6 13 4 12 2 21 -4 21 -6 0 -10 10 -10
23 1 16 2 18 6 5 2 -10 11 -18 18 -18z m1108 18 c15 -11 10 -13 -33 -15 -33
-1 -48 1 -44 8 3 6 12 8 20 5 7 -3 16 -1 19 4 8 13 18 12 38 -2z m-1056 -30
c-3 -7 -5 -2 -5 12 0 14 2 19 5 13 2 -7 2 -19 0 -25z m33 22 c-11 -7 -11 -10
-2 -10 7 0 10 -4 7 -10 -10 -17 -25 -11 -25 10 0 12 7 20 18 20 14 0 15 -2 2
-10z m1844 -24 c-3 -8 -1 -17 5 -21 6 -3 11 -2 11 3 0 5 14 9 31 10 27 1 30
-2 27 -26 -3 -25 -6 -27 -60 -30 -54 -3 -57 -2 -55 20 1 13 11 31 22 40 25 21
26 21 19 4z m626 -8 c0 -5 5 -6 10 -3 6 3 10 2 10 -3 0 -5 -11 -12 -24 -14
-18 -4 -26 0 -29 13 -3 10 -3 20 0 23 7 7 33 -5 33 -16z m-1475 2 c5 -8 11 -7
21 1 23 19 53 -14 37 -40 -8 -13 -8 -22 -1 -29 22 -22 1 -40 -46 -40 -49 1
-78 20 -58 40 8 8 7 16 -1 28 -8 14 -8 22 2 34 15 18 37 21 46 6z m417 -16
c15 -32 -3 -71 -34 -76 -19 -2 -23 -8 -20 -33 2 -23 0 -26 -8 -15 -5 8 -10 23
-10 33 0 14 -5 17 -22 12 -16 -5 -20 -4 -13 3 6 6 28 12 50 14 36 3 40 6 43
32 3 28 -12 56 -23 44 -4 -3 -7 -20 -7 -37 -1 -43 -18 -39 -18 5 0 46 -23 41
-31 -7 l-6 -34 -2 36 c0 20 1 38 4 41 3 3 24 5 46 5 33 0 43 -4 51 -23z m690
1 c3 -13 1 -22 -3 -19 -9 5 -13 44 -5 44 2 0 6 -11 8 -25z m-2105 -13 c-1 -25
-37 -26 -37 -1 0 12 7 19 19 19 13 0 19 -6 18 -18z m121 -7 c11 -23 9 -25 -11
-24 -12 0 -16 3 -9 6 6 2 12 9 12 14 0 6 -4 8 -9 5 -5 -4 -11 0 -14 6 -2 7 -7
-8 -11 -34 -8 -54 -21 -67 -44 -45 -13 13 -13 19 -2 31 7 9 19 16 26 16 8 0
14 10 14 25 0 18 5 25 18 25 11 0 24 -11 30 -25z m212 18 c-1 -21 -19 -30 -57
-28 -24 1 -43 -1 -43 -5 0 -4 18 -7 41 -6 22 1 42 -2 45 -6 3 -4 -6 -8 -20 -9
-14 -1 -36 -2 -48 -2 -17 -1 -23 4 -23 18 0 16 8 21 35 23 19 2 39 8 45 13 11
11 25 12 25 2z m-298 -12 c2 7 10 9 16 5 20 -12 13 -26 -13 -26 -17 0 -25 5
-25 18 0 13 2 14 9 3 7 -11 9 -11 13 0z m345 2 c-4 -3 1 -11 10 -18 14 -11 14
-12 -1 -18 -12 -5 -15 -3 -10 6 5 7 1 7 -10 -2 -11 -9 -20 -11 -27 -4 -15 15
0 43 24 43 11 0 17 -3 14 -7z m-187 -13 c0 -5 -5 -10 -11 -10 -5 0 -7 5 -4 10
3 6 8 10 11 10 2 0 4 -4 4 -10z m17 -27 c-3 -10 -5 -4 -5 12 0 17 2 24 5 18 2
-7 2 -21 0 -30z m2301 25 c5 -7 12 -24 14 -38 5 -37 23 -25 22 15 -1 19 3 32
7 29 16 -10 9 -61 -10 -78 -11 -10 -17 -24 -14 -31 3 -9 -2 -14 -14 -14 -10
-1 -31 -2 -48 -3 -24 -3 -30 1 -29 17 0 11 5 19 12 18 14 -4 16 13 2 22 -15 9
-12 42 6 59 19 19 38 20 52 4z m-2055 -50 c-2 -5 -17 -8 -33 -8 -22 0 -28 4
-24 15 4 8 15 15 25 15 10 0 19 6 20 13 0 6 4 3 8 -8 5 -11 7 -23 4 -27z
m1653 21 c-1 -12 6 -24 14 -26 11 -4 12 -2 2 5 -22 15 -3 41 29 40 19 -1 26
-4 17 -9 -7 -4 -9 -12 -4 -16 4 -4 13 0 20 10 18 23 25 22 19 -4 -4 -16 -12
-20 -30 -16 -27 5 -49 -23 -32 -40 8 -8 7 -13 -2 -18 -8 -5 -10 -4 -5 3 4 7 2
12 -3 12 -6 0 -11 -4 -11 -10 0 -5 -6 -10 -13 -10 -9 0 -13 16 -14 50 0 28 3
50 6 50 4 0 7 -10 7 -21z m-2181 -8 c-3 -6 -11 -11 -17 -11 -6 0 -6 6 2 15 14
17 26 13 15 -4z m85 -13 c0 -12 -3 -19 -6 -15 -3 3 -17 2 -30 -3 -15 -6 -26
-5 -30 2 -5 7 -10 6 -15 -5 -5 -8 -25 -18 -44 -21 -34 -7 -49 -26 -20 -26 8 0
15 -4 15 -10 0 -5 -5 -10 -11 -10 -6 0 -18 -9 -27 -20 -15 -19 -19 -19 -37 -6
-18 13 -18 16 -5 41 8 15 14 39 13 53 -1 15 1 21 4 15 2 -7 12 -13 21 -13 15
0 15 -2 2 -10 -9 -6 -10 -10 -3 -10 7 0 17 8 23 18 11 16 11 16 6 0 -6 -19 9
-25 19 -8 3 5 11 7 18 4 7 -2 19 7 27 21 10 19 21 25 47 25 27 0 33 -4 33 -22z
m112 3 c16 -19 15 -20 -8 -18 -13 1 -24 5 -24 10 0 4 0 12 0 17 0 16 14 12 32
-9z m1725 12 c-4 -3 -2 -12 4 -19 6 -7 8 -18 4 -24 -10 -15 -55 -12 -55 4 0
28 13 46 33 46 11 0 17 -3 14 -7z m48 -33 c7 0 16 8 18 18 4 13 5 11 6 -5 1
-18 -4 -23 -24 -23 -21 0 -25 4 -24 28 2 23 2 24 6 5 2 -13 10 -23 18 -23z
m-1604 13 c0 -15 2 -15 9 2 8 20 9 19 9 -1 1 -16 -5 -21 -24 -21 -24 0 -33 16
-18 30 12 12 23 7 24 -10z m85 0 c7 -10 14 -28 14 -40 0 -14 6 -23 15 -23 13
0 14 4 5 20 -12 23 -13 22 18 25 14 1 22 -3 22 -13 0 -12 -3 -12 -15 -2 -9 7
-18 10 -22 7 -3 -4 2 -9 11 -13 26 -10 18 -30 -14 -32 -24 -2 -30 2 -30 18 0
12 -7 20 -17 21 -11 0 -13 3 -5 6 6 2 12 9 12 14 0 6 -3 8 -7 6 -5 -3 -14 1
-21 9 -11 12 -10 14 4 14 9 0 23 -8 30 -17z m334 6 c0 -6 -7 -9 -15 -5 -10 3
-15 -1 -15 -11 0 -9 -3 -14 -6 -10 -4 3 -4 13 -1 22 7 17 37 21 37 4z m24 -5
c4 -10 2 -13 -6 -8 -7 4 -8 3 -4 -5 4 -6 12 -9 17 -5 5 3 7 9 4 14 -3 5 0 12
6 16 6 3 15 0 20 -7 10 -16 12 -35 2 -26 -3 4 -11 3 -17 -2 -6 -5 -23 -7 -38
-4 -24 5 -25 6 -10 23 10 10 18 19 18 19 1 1 5 -6 8 -15z m-563 -44 c5 0 10
12 10 28 l1 27 7 -29 c3 -17 9 -29 14 -28 4 1 11 2 16 2 5 0 12 12 14 28 4 26
4 26 6 -4 1 -34 -8 -41 -54 -40 -27 1 -30 4 -31 36 -1 26 -1 28 3 8 2 -16 9
-28 14 -28z m1215 5 c1 -8 -2 -15 -7 -15 -5 0 -9 4 -9 9 0 5 -3 18 -6 28 -6
15 -4 16 6 6 8 -7 15 -20 16 -28z m817 29 c-7 -3 -10 -11 -7 -18 3 -7 -2 -19
-10 -26 -13 -10 -17 -9 -22 4 -10 25 3 46 28 45 13 0 18 -3 11 -5z m-1706 -21
c4 -10 1 -19 -6 -21 -8 -3 -5 -9 8 -19 24 -17 28 -58 6 -67 -13 -4 -13 -2 -5
14 13 24 13 43 0 35 -6 -4 -8 -10 -6 -14 3 -4 -4 -18 -15 -29 l-20 -22 21 0
c25 0 37 -27 21 -43 -9 -9 -11 -8 -6 5 8 20 -16 35 -36 22 -9 -5 -7 -11 6 -21
11 -7 14 -13 8 -13 -7 0 -15 4 -18 10 -3 5 -19 7 -35 3 -22 -4 -30 -2 -30 8 1
16 34 59 46 59 4 0 0 -8 -9 -18 -10 -10 -14 -22 -10 -27 5 -4 1 -5 -7 0 -12 6
-12 5 -3 -5 9 -10 14 -10 25 2 20 21 41 61 29 53 -6 -3 -11 0 -11 8 0 22 -34
15 -42 -8 -5 -17 -6 -16 -7 7 -1 22 4 27 27 30 15 2 32 -2 37 -9 8 -9 13 -8
23 3 11 12 10 14 -7 14 -26 0 -34 15 -21 40 13 24 28 26 37 3z m854 -43 c-12
-8 -20 -50 -10 -50 5 0 9 7 9 16 0 8 4 13 9 10 5 -4 11 -3 14 1 2 5 2 2 1 -4
-2 -7 0 -13 5 -13 5 0 11 10 14 22 5 18 8 19 21 8 28 -22 19 -42 -16 -39 -33
2 -57 -4 -91 -22 -15 -8 -17 -7 -9 8 5 10 8 38 6 63 -3 60 5 69 32 35 13 -16
20 -32 15 -35z m79 40 c0 -11 -4 -20 -9 -20 -5 0 -7 9 -4 20 3 11 7 20 9 20 2
0 4 -9 4 -20z m-477 -5 c4 -8 2 -17 -3 -20 -6 -4 -10 3 -10 14 0 25 6 27 13 6z
m41 6 c3 -5 0 -11 -8 -14 -15 -6 -26 1 -26 15 0 11 27 10 34 -1z m29 -11 c3
-11 1 -20 -4 -20 -5 0 -9 9 -9 20 0 11 2 20 4 20 2 0 6 -9 9 -20z m37 0 c0
-11 -4 -20 -9 -20 -5 0 -7 9 -4 20 3 11 7 20 9 20 2 0 4 -9 4 -20z m-331 -24
c-1 -15 -3 -16 -6 -5 -2 10 -13 19 -24 22 -21 6 -27 -8 -6 -16 8 -3 6 -10 -8
-20 -20 -16 -19 -16 4 -10 17 4 22 3 17 -5 -4 -7 -15 -12 -25 -12 -14 0 -18 7
-17 28 2 39 12 50 41 44 18 -3 25 -10 24 -26z m1831 19 c0 -8 -4 -15 -10 -15
-5 0 -10 7 -10 15 0 8 5 15 10 15 6 0 10 -7 10 -15z m-2646 -10 c-4 -8 -10
-12 -15 -9 -11 6 -2 24 11 24 5 0 7 -7 4 -15z m847 0 l9 20 -3 -20 c-2 -22
-21 -24 -23 -3 0 7 1 6 4 -2 4 -12 7 -11 13 5z m1081 -10 c-2 -14 -8 -27 -12
-30 -4 -2 -5 7 -2 20 4 21 1 24 -13 18 -13 -4 -16 -3 -11 5 4 7 15 12 25 12
14 0 17 -6 13 -25z m59 8 c0 -15 2 -15 9 2 7 16 9 17 9 3 1 -23 19 -32 35 -19
10 8 16 8 25 -2 6 -8 8 -17 4 -20 -3 -4 -1 -7 5 -7 6 0 13 7 15 15 4 11 4 10
3 -2 -1 -18 -40 -27 -61 -15 -5 3 -26 5 -46 3 -37 -2 -52 15 -42 47 7 19 43
15 44 -5z m-917 -18 c-12 -9 -15 -17 -9 -22 15 -11 13 -32 -5 -43 -8 -5 -11
-10 -7 -10 4 0 3 -10 -4 -22 -8 -17 -4 -15 15 7 14 17 25 39 25 50 -2 33 0 36
15 23 11 -10 11 -16 2 -27 -6 -8 -6 -12 -1 -9 6 4 12 -2 12 -13 1 -10 8 -26
17 -34 16 -16 51 -21 42 -6 -3 5 1 11 9 15 8 3 17 1 20 -4 4 -6 2 -10 -3 -10
-5 0 -15 -13 -22 -29 -9 -24 -18 -29 -45 -29 -25 0 -32 4 -28 14 3 8 -1 14
-11 14 -10 0 -13 -6 -10 -15 7 -18 -26 -21 -44 -3 -9 9 -12 9 -12 0 0 -15 -46
-16 -55 -2 -4 6 -15 8 -26 5 -10 -4 -19 -2 -19 3 0 6 -7 12 -14 15 -10 4 -13
1 -9 -9 3 -9 -1 -14 -12 -14 -10 0 -15 6 -13 18 2 10 12 16 25 15 13 -2 23 5
26 17 3 11 1 20 -4 20 -5 0 -9 -4 -9 -10 0 -13 -27 -13 -35 1 -4 6 3 13 15 16
16 4 18 8 8 14 -9 6 -6 9 10 9 13 0 21 -4 18 -9 -3 -5 0 -14 8 -20 11 -9 15
-7 19 9 3 11 13 20 23 20 16 0 16 -1 -2 -14 -18 -14 -18 -15 -1 -22 10 -4 16
-13 13 -21 -3 -8 2 -16 12 -19 9 -3 25 -10 35 -15 12 -6 16 -6 15 3 -2 6 15
17 37 24 22 7 34 13 28 13 -7 1 -13 10 -13 21 0 11 -5 20 -11 20 -6 0 -8 -9
-4 -20 4 -12 2 -20 -5 -20 -6 0 -8 6 -5 13 3 6 -2 2 -11 -10 -10 -14 -27 -23
-44 -23 -23 0 -27 4 -25 24 4 32 13 46 30 46 8 0 17 4 20 10 3 5 0 7 -9 4 -15
-6 -15 6 -1 38 4 10 11 16 15 13 5 -3 12 0 15 6 4 5 10 8 13 5 3 -4 -3 -13
-14 -21z m-815 -4 c22 -22 76 -18 67 6 -3 8 -1 11 4 8 15 -9 12 -35 -4 -41 -8
-3 -12 -13 -9 -24 3 -12 -2 -20 -17 -25 -26 -8 -33 -3 -24 19 5 12 10 14 20 5
10 -8 13 -6 11 10 -1 12 -6 20 -12 18 -5 -2 -21 0 -35 5 -20 7 -23 7 -12 -3
19 -20 16 -50 -5 -42 -11 4 -12 8 -5 11 17 5 15 22 -3 22 -16 0 -19 9 -9 34 8
20 10 20 33 -3z m1872 -11 c6 0 7 5 4 10 -3 6 3 10 14 10 15 0 21 -6 20 -22 0
-22 -1 -22 -9 -3 -9 21 -14 8 -11 -27 2 -11 -5 -18 -14 -18 -11 0 -15 5 -11
15 3 8 1 15 -4 15 -6 0 -10 10 -9 23 0 12 3 16 6 10 2 -7 9 -13 14 -13z m71
-2 c-31 -31 11 -98 52 -82 24 9 19 24 -9 24 -22 0 -25 4 -25 40 0 22 5 40 10
40 6 0 10 -16 10 -35 0 -46 27 -49 32 -2 2 27 7 32 28 32 20 0 28 -8 37 -35
12 -36 16 -33 13 11 -1 24 2 26 49 27 42 1 51 -2 50 -16 0 -12 -2 -13 -6 -4
-4 10 -9 8 -20 -7 -8 -12 -20 -21 -27 -21 -8 0 -19 -6 -25 -14 -9 -11 -8 -15
5 -20 10 -4 22 -1 28 5 8 9 7 10 -6 6 -10 -4 -18 -3 -18 2 0 5 8 11 18 15 9 3
23 9 30 12 10 5 10 0 0 -23 -7 -15 -14 -30 -15 -33 -7 -8 -58 -5 -65 4 -12 17
-57 14 -74 -6 -16 -17 -16 -18 7 -18 17 0 20 -3 11 -9 -11 -6 -10 -10 4 -15
13 -5 15 -9 6 -18 -16 -16 -45 -19 -53 -6 -10 16 1 39 15 31 8 -4 8 -3 0 6
-15 16 -46 11 -51 -9 -4 -12 -3 -12 5 -2 7 11 10 9 15 -7 6 -26 2 -29 -28 -23
-18 3 -25 11 -24 26 0 20 1 20 8 1 7 -17 8 -17 13 8 3 16 0 31 -8 38 -17 14
-18 71 -2 87 6 6 14 9 17 7 2 -3 -1 -11 -7 -17z m305 8 c0 -18 -34 -39 -42
-25 -11 16 3 39 23 39 10 0 19 -6 19 -14z m119 5 c-3 -5 1 -11 9 -14 12 -5 12
-12 3 -39 -15 -45 -26 -56 -22 -21 4 24 3 26 -6 8 -10 -19 -10 -19 -6 2 5 29
-14 35 -38 12 -19 -19 -19 -19 1 -19 12 0 23 -6 26 -14 4 -10 -5 -13 -36 -12
-40 2 -43 5 -38 36 0 6 10 10 21 10 13 0 22 9 26 26 6 22 8 24 16 10 12 -21
28 -21 28 2 0 14 -2 15 -10 2 -8 -13 -10 -12 -10 3 0 11 8 17 21 17 11 0 18
-4 15 -9z m-1483 -8 c-7 -2 -19 -2 -25 0 -7 3 -2 5 12 5 14 0 19 -2 13 -5z
m1401 -25 c7 -5 4 -8 -6 -8 -12 0 -18 7 -17 23 0 15 2 17 6 7 3 -8 11 -18 17
-22z m-2524 0 c12 -8 11 -8 -3 -4 -10 3 -30 6 -43 6 -15 0 -23 4 -19 10 7 11
38 5 65 -12z m841 13 c6 10 9 2 9 -21 -1 -33 -2 -34 -15 -16 -8 11 -15 27 -14
35 0 12 2 13 6 2 5 -11 7 -11 14 0z m-21 -30 c8 -16 5 -19 -25 -18 -20 1 -31
5 -28 12 22 38 35 40 53 6z m-645 10 c-3 -5 3 -12 12 -14 14 -4 13 -5 -4 -6
-23 -1 -30 9 -16 22 9 10 15 8 8 -2z m1759 -6 c11 -29 -15 -54 -56 -55 -10 0
-10 54 -1 63 12 13 51 7 57 -8z m73 2 c3 -5 -2 -16 -12 -23 -21 -16 -16 -28 8
-19 8 4 17 15 20 26 3 10 13 19 22 19 9 0 15 -6 12 -12 -2 -7 -9 -12 -15 -11
-6 2 -9 -4 -6 -12 7 -18 23 -10 34 19 l9 21 0 -21 c1 -32 -19 -43 -79 -41 -52
2 -54 3 -53 30 1 15 1 29 2 31 2 8 52 3 58 -7z m-1258 -70 c1 -48 23 -45 32 4
l6 34 2 -38 c1 -34 4 -38 24 -35 16 2 24 12 28 38 l6 35 2 -42 1 -43 -55 0
-55 0 0 38 c0 20 -3 48 -5 62 -5 22 -4 22 4 5 5 -11 10 -37 10 -58z m-831 50
c23 4 25 3 9 -7 -21 -14 -47 -6 -46 12 0 8 2 9 5 2 3 -6 17 -9 32 -7z m65 -2
c1 -5 -7 -11 -18 -12 -11 -2 -14 0 -6 3 11 5 11 8 0 16 -11 7 -10 8 4 6 10 -2
19 -7 20 -13z m49 -17 c-8 -8 -9 -4 -5 13 4 13 8 18 11 10 2 -7 -1 -18 -6 -23z
m132 -8 c-6 -5 -24 21 -24 34 0 6 6 1 14 -10 8 -10 12 -21 10 -24z m2296 21
c0 -19 -23 -35 -34 -24 -14 15 -5 43 14 43 13 0 20 -7 20 -19z m23 -1 c-3 -11
-7 -20 -9 -20 -2 0 -4 9 -4 20 0 11 4 20 9 20 5 0 7 -9 4 -20z m-2371 3 c-6
-2 -10 -9 -6 -14 8 -14 -20 -11 -35 4 -11 10 -13 10 -7 0 4 -7 2 -13 -3 -13
-6 0 -11 7 -11 15 0 11 10 15 38 14 20 0 31 -3 24 -6z m1058 -4 c0 -6 -6 -9
-14 -6 -9 4 -17 -1 -19 -11 -3 -12 -5 -11 -6 6 -1 16 5 22 19 22 11 0 20 -5
20 -11z m115 0 c-4 -5 -4 -9 -1 -9 2 0 11 -3 20 -6 9 -3 16 -1 16 6 0 6 -4 8
-10 5 -5 -3 -10 -2 -10 3 0 5 12 9 28 9 15 0 21 -2 15 -4 -7 -3 -13 -9 -13
-14 0 -12 35 -6 54 10 20 17 46 7 53 -19 8 -29 21 -25 26 8 2 15 4 2 4 -28 0
-30 -2 -45 -4 -32 -5 26 -16 28 -34 6 -8 -10 -26 -14 -50 -13 -21 2 -41 0 -45
-4 -4 -4 -14 -1 -22 6 -13 9 -14 9 -8 0 4 -7 2 -13 -3 -13 -14 0 -14 27 0 36
6 3 15 0 20 -7 8 -12 11 -11 20 4 5 9 19 17 30 17 11 0 18 4 15 8 -3 5 -45 8
-93 7 -48 -1 -78 0 -65 2 12 2 22 10 22 17 0 6 9 12 20 13 11 1 18 -2 15 -8z
m365 -9 c0 -5 7 -10 15 -10 8 0 16 -8 16 -17 1 -10 5 -4 9 12 l8 30 1 -32 c1
-31 -1 -33 -31 -33 -31 0 -31 1 -12 16 16 13 16 15 2 10 -12 -3 -18 0 -18 9 0
26 -19 16 -23 -12 -4 -26 -4 -26 -6 5 -1 26 3 32 19 32 11 0 20 -4 20 -10z
m500 -5 c0 -6 -13 -12 -30 -12 -16 0 -30 6 -30 12 0 6 14 12 30 12 17 0 30 -6
30 -12z m-2205 -5 c3 -5 1 -10 -4 -10 -6 0 -11 5 -11 10 0 6 2 10 4 10 3 0 8
-4 11 -10z m287 -5 c5 -6 8 -5 8 3 0 7 4 11 9 8 17 -11 -1 -47 -28 -58 -39
-15 -62 -18 -56 -7 4 5 2 9 -3 9 -5 0 -12 9 -15 20 -4 17 -2 18 13 10 11 -6
22 -15 25 -20 3 -6 11 -10 17 -10 6 0 5 7 -3 18 -11 14 -11 15 1 5 17 -15 40
-17 40 -3 0 6 -6 10 -13 10 -7 0 -21 6 -32 13 -17 13 -16 14 6 13 13 -1 27 -5
31 -11z m-223 -8 c23 6 37 -13 15 -21 -8 -3 -12 -2 -9 4 3 6 2 10 -3 10 -6 0
-12 -7 -16 -15 -3 -8 -13 -15 -22 -15 -10 0 -14 5 -11 14 4 11 1 13 -11 10 -9
-3 -6 1 8 10 14 8 26 11 28 6 2 -4 11 -6 21 -3z m91 -12 c0 -8 5 -15 10 -15 6
0 10 8 10 18 0 11 5 8 15 -12 20 -38 12 -46 -42 -46 -36 0 -44 3 -40 15 5 11
-1 13 -26 9 -25 -3 -28 -3 -12 5 12 5 27 16 34 25 17 20 51 21 51 1z m1180
-14 c0 -30 -19 -35 -29 -9 -9 21 -10 21 -11 3 l-1 -20 -9 20 c-7 16 -9 16 -9
4 -1 -20 -28 -33 -37 -18 -14 23 6 39 51 39 38 0 45 -3 45 -19z m-790 -5 c0
-8 -4 -18 -10 -21 -5 -3 -10 0 -10 7 0 9 -3 9 -10 -2 -8 -12 -10 -11 -10 8 0
15 6 22 20 22 11 0 20 -6 20 -14z m40 -8 c0 -10 3 -9 9 1 5 7 14 10 20 7 19
-12 12 -36 -14 -48 -13 -6 -23 -14 -20 -17 2 -4 0 -13 -6 -21 -6 -11 -9 -12
-9 -2 0 7 -4 10 -10 7 -5 -3 -10 -14 -10 -24 0 -10 -9 -21 -20 -24 -11 -3 -20
-1 -20 5 0 6 -11 8 -24 6 -16 -3 -27 0 -31 10 -3 10 0 12 10 8 8 -3 15 -1 15
3 0 5 -5 11 -12 13 -8 3 -6 7 5 11 9 3 16 3 16 -1 -3 -20 2 -33 11 -27 6 3 10
1 10 -4 0 -20 30 -11 31 9 1 11 2 25 3 32 0 6 15 16 33 22 41 14 47 21 18 21
-13 0 -21 -4 -17 -10 3 -5 1 -6 -3 -2 -15 13 -14 37 1 37 8 0 14 -6 14 -12z
m1414 -20 c-3 -5 -12 -4 -20 3 -7 6 -11 15 -8 21 3 5 12 4 20 -3 7 -6 11 -15
8 -21z m46 23 c0 -19 -22 -23 -38 -7 -15 15 -14 16 11 16 15 0 27 -4 27 -9z
m30 -4 c0 -7 9 -18 20 -25 11 -7 20 -20 19 -30 0 -14 -2 -13 -9 4 -12 30 -37
37 -52 15 -7 -10 -23 -23 -35 -30 -17 -8 -23 -21 -23 -44 0 -21 -3 -28 -9 -19
-7 11 -9 11 -14 -2 -4 -9 -11 -16 -17 -16 -6 0 -8 5 -5 10 3 6 1 10 -4 10 -6
0 -11 -5 -11 -10 0 -15 33 -26 38 -12 2 6 10 8 18 5 8 -3 14 -1 14 5 0 6 19 9
45 7 25 -1 45 2 45 7 0 6 9 8 20 5 10 -3 21 0 24 7 2 6 5 3 5 -6 1 -12 -6 -18
-21 -18 -12 0 -18 -3 -15 -6 11 -11 59 -13 84 -3 22 8 23 11 9 24 -19 19 -26
19 -26 0 0 -8 -4 -15 -9 -15 -5 0 -7 9 -4 20 4 14 0 20 -12 20 -9 0 -15 6 -13
12 6 16 54 15 51 0 -2 -7 0 -12 5 -12 14 0 52 31 52 42 0 7 -4 7 -12 1 -17
-13 -48 -12 -48 1 0 6 -5 4 -10 -4 -5 -8 -10 -10 -10 -5 0 31 41 43 77 24 29
-15 29 -26 1 -50 -13 -10 -17 -18 -10 -19 6 0 12 5 12 12 0 6 3 8 6 5 11 -11
44 13 44 31 0 11 8 18 21 19 12 1 27 10 33 19 9 11 15 13 20 6 3 -6 -1 -18
-10 -27 -9 -9 -14 -19 -10 -22 3 -3 15 4 26 17 28 32 48 34 42 5 -3 -17 -12
-24 -35 -28 -39 -5 -59 1 -51 17 3 6 -4 0 -15 -13 -12 -13 -21 -29 -21 -37 0
-14 -10 -17 -46 -15 -14 2 -23 -5 -27 -18 -3 -13 -13 -21 -25 -21 -15 0 -20
-5 -17 -20 2 -11 -1 -20 -7 -20 -5 0 -8 6 -5 14 4 10 -3 12 -30 9 -24 -3 -33
-1 -29 6 4 6 -3 15 -16 20 -18 7 -25 5 -31 -11 -7 -20 -7 -20 -25 1 l-17 22
-1 -26 c-2 -19 2 -25 12 -21 7 3 20 -1 28 -9 22 -23 42 -19 22 4 -14 15 -15
21 -4 27 7 4 10 4 6 0 -3 -4 1 -16 10 -25 12 -13 23 -15 39 -10 16 6 21 5 17
-5 -3 -7 -24 -14 -51 -15 -25 0 -49 -3 -53 -6 -4 -3 -13 2 -20 10 -7 8 -20 15
-29 14 -12 0 -11 -2 4 -9 19 -8 19 -9 -2 -9 -32 -1 -38 17 -11 40 l23 20 -23
-11 c-47 -23 -93 10 -57 40 16 13 8 50 -10 50 -8 0 -16 -8 -18 -17 -4 -14 -5
-13 -6 4 -1 14 7 24 20 28 17 6 19 9 8 16 -11 6 -9 12 8 28 15 14 24 17 29 10
3 -6 0 -15 -7 -21 -10 -6 -4 -7 19 -4 34 5 40 -2 20 -23 -10 -11 -8 -10 11 0
42 24 59 42 54 55 -3 8 0 14 6 14 6 0 11 -6 11 -13z m-1550 -48 c-13 -23 -28
-25 -36 -4 -5 11 -11 9 -32 -11 -20 -18 -34 -23 -54 -18 -27 5 -28 4 -28 -37
0 -49 -11 -47 -13 2 -3 50 -27 50 -27 0 0 -51 -18 -54 -22 -3 -2 29 -7 37 -22
37 -11 0 -21 -6 -23 -12 -3 -8 4 -13 17 -13 16 0 21 -5 18 -22 -2 -15 -10 -23
-23 -23 -22 0 -30 24 -21 60 5 21 12 24 76 27 39 2 70 0 70 -4 0 -4 12 4 26
17 23 21 76 36 97 27 4 -2 2 -12 -3 -23z m1567 -6 c4 -10 11 -21 17 -25 13 -9
-40 -22 -60 -14 -8 3 -12 11 -9 17 4 6 13 8 21 5 7 -3 16 -1 19 5 4 5 3 9 -2
8 -17 -3 -24 1 -18 11 10 15 25 12 32 -7z m-1975 -25 c-2 -10 -9 -19 -16 -19
-6 -1 -18 -2 -26 -3 -8 0 -14 -7 -12 -13 3 -20 -15 -15 -32 8 l-14 21 -14 -21
c-15 -25 -25 -27 -25 -6 0 8 5 11 10 8 6 -4 7 -1 2 7 -7 11 -11 10 -19 -4 -29
-47 -34 -52 -48 -38 -11 11 -10 12 5 7 21 -9 22 -1 2 18 -13 13 -13 16 1 21 8
3 12 2 9 -3 -3 -5 -1 -12 3 -15 5 -3 14 6 20 19 13 27 28 32 35 13 3 -10 9 -9
21 2 9 9 34 16 60 16 36 0 42 -3 38 -18z m78 -3 c0 -18 38 -15 43 3 3 11 5 9
6 -7 1 -21 -2 -23 -33 -18 -35 6 -64 -11 -48 -28 4 -5 1 -5 -5 -1 -7 4 -13 2
-13 -3 0 -6 6 -11 14 -11 8 0 17 -4 20 -9 3 -5 -5 -8 -19 -7 -26 1 -41 21 -24
31 5 4 6 12 3 18 -4 7 -4 9 1 5 7 -6 35 14 35 26 0 2 -10 7 -22 9 -14 3 -10 4
10 4 17 -1 32 -6 32 -12z m2133 -10 c-3 -8 -1 -15 5 -15 6 0 13 6 15 13 3 6 6
3 7 -8 l1 -20 9 20 c8 19 9 19 9 -2 1 -20 -3 -22 -31 -19 -18 2 -33 8 -32 15
1 6 2 18 3 27 0 8 5 13 11 9 5 -3 7 -12 3 -20z m88 -12 l-5 -28 -5 25 -4 25
-8 -25 -7 -25 -1 28 c-1 20 4 27 18 27 15 0 17 -5 12 -27z m-1973 -5 c-2 -8 8
-13 24 -13 14 1 24 -3 22 -7 -3 -4 -14 -8 -24 -8 -10 0 -22 -4 -25 -10 -3 -5
-15 -10 -26 -10 -13 0 -19 7 -19 23 0 13 3 27 7 30 11 12 43 7 41 -5z m-421
-21 c0 -7 -12 -14 -26 -15 l-26 -2 25 14 c14 8 25 14 26 15 0 1 1 -5 1 -12z
m93 6 c0 -5 -7 -16 -14 -26 -16 -20 -32 -6 -22 18 5 15 36 21 36 8z m122 -35
c-8 -8 -9 -4 -5 13 4 13 8 18 11 10 2 -7 -1 -18 -6 -23z m-172 12 c0 -5 -4
-10 -9 -10 -6 0 -13 5 -16 10 -3 6 1 10 9 10 9 0 16 -4 16 -10z m-49 -42 c-5
-32 -6 -32 -9 -5 -4 32 -19 37 -18 5 1 -20 -5 -23 -36 -25 -34 -2 -38 1 -38
21 0 32 7 36 60 36 l47 0 -6 -32z m1222 -358 c-5 -19 -23 -39 -23 -25 0 9 20
45 24 45 2 0 2 -9 -1 -20z m52 10 c3 -5 1 -10 -4 -10 -6 0 -11 5 -11 10 0 6 2
10 4 10 3 0 8 -4 11 -10z m32 -9 c0 -11 -5 -17 -9 -15 -4 3 -8 0 -8 -7 0 -7
-3 -10 -6 -7 -4 5 16 48 23 48 1 0 1 -9 0 -19z m67 -24 c7 -6 6 -7 -4 -4 -8 2
-16 14 -17 28 -1 19 -1 20 4 4 3 -11 10 -24 17 -28z"/>
<path d="M1600 1381 c0 -5 5 -13 10 -16 6 -3 10 -2 10 4 0 5 -4 13 -10 16 -5
3 -10 2 -10 -4z"/>
<path d="M1547 1330 c-9 -11 -13 -20 -7 -20 5 0 14 9 20 20 6 11 9 20 8 20 -2
0 -11 -9 -21 -20z"/>
<path d="M1900 1231 c0 -25 4 -31 21 -31 16 0 20 5 17 27 -2 17 -10 29 -20 31
-14 3 -18 -3 -18 -27z"/>
<path d="M1571 1224 c0 -11 3 -14 6 -6 3 7 2 16 -1 19 -3 4 -6 -2 -5 -13z"/>
<path d="M1532 1161 c4 -13 18 -16 19 -4 0 4 -5 9 -11 12 -7 2 -11 -2 -8 -8z"/>
<path d="M1520 1120 c0 -5 6 -10 14 -10 8 0 18 5 21 10 3 6 -3 10 -14 10 -12
0 -21 -4 -21 -10z"/>
<path d="M1558 1106 c-17 -24 -17 -24 10 -17 15 4 27 13 27 21 0 23 -19 21
-37 -4z"/>
<path d="M1404 1061 c4 -5 0 -11 -6 -14 -7 -2 -9 -8 -5 -13 4 -5 12 -2 17 6
13 20 12 30 -1 30 -5 0 -8 -4 -5 -9z"/>
<path d="M2560 1136 c0 -4 7 -14 15 -22 8 -9 15 -11 15 -6 0 5 -7 15 -15 22
-8 7 -15 9 -15 6z"/>
<path d="M2453 1057 c-8 -14 23 -41 41 -34 9 4 16 11 16 17 0 6 -4 8 -10 5 -5
-3 -10 0 -10 8 0 15 -28 19 -37 4z"/>
<path d="M1067 1113 c-13 -12 -7 -33 8 -33 8 0 15 9 15 20 0 20 -11 26 -23 13z"/>
<path d="M260 1110 c0 -5 5 -10 10 -10 6 0 10 5 10 10 0 6 -4 10 -10 10 -5 0
-10 -4 -10 -10z"/>
<path d="M250 1074 c0 -9 5 -14 12 -12 18 6 21 28 4 28 -9 0 -16 -7 -16 -16z"/>
<path d="M765 1089 c-4 -6 -14 -8 -24 -4 -12 5 -13 3 -5 -5 13 -13 54 -5 54
11 0 12 -17 11 -25 -2z"/>
<path d="M1865 1092 c-12 -12 -4 -23 9 -13 11 9 15 9 20 -1 5 -10 7 -10 12 1
5 10 8 11 14 1 8 -12 30 -6 30 8 0 8 -77 11 -85 4z"/>
<path d="M1060 1020 c0 -5 5 -10 10 -10 6 0 10 5 10 10 0 6 -4 10 -10 10 -5 0
-10 -4 -10 -10z"/>
<path d="M512 998 c-17 -17 -15 -47 3 -54 8 -4 12 -10 9 -15 -10 -16 9 -9 22
9 19 25 17 30 -12 24 -20 -4 -25 -1 -22 9 3 8 15 14 29 14 18 0 25 -7 30 -30
l7 -30 1 31 c1 33 -14 54 -39 54 -9 0 -21 -5 -28 -12z"/>
<path d="M320 999 c0 -5 5 -7 10 -4 6 3 10 8 10 11 0 2 -4 4 -10 4 -5 0 -10
-5 -10 -11z"/>
<path d="M1030 965 c-10 -13 -9 -15 9 -15 23 0 28 -19 9 -38 -9 -9 -6 -12 16
-12 22 0 26 3 18 13 -5 6 -12 23 -14 36 -4 30 -21 37 -38 16z"/>
<path d="M1030 930 c0 -5 5 -10 10 -10 6 0 10 5 10 10 0 6 -4 10 -10 10 -5 0
-10 -4 -10 -10z"/>
<path d="M2453 975 c-10 -11 -9 -15 8 -20 12 -4 26 -2 32 4 8 8 7 11 -5 11 -9
0 -18 4 -20 9 -1 5 -9 3 -15 -4z"/>
<path d="M1870 920 c0 -5 5 -10 10 -10 6 0 10 5 10 10 0 6 -4 10 -10 10 -5 0
-10 -4 -10 -10z"/>
<path d="M1920 829 c0 -6 5 -7 10 -4 6 3 10 2 10 -4 0 -5 -9 -13 -21 -16 -11
-4 -24 -16 -29 -28 -8 -21 -9 -21 -10 -2 0 16 -2 17 -10 5 -6 -9 -5 -17 3 -22
20 -13 40 -9 34 6 -8 20 4 28 20 15 9 -9 13 -8 13 0 0 6 -6 11 -12 11 -7 0 -2
7 10 16 27 19 28 29 2 31 -11 1 -20 -3 -20 -8z"/>
<path d="M1860 710 c0 -5 4 -10 9 -10 6 0 13 5 16 10 3 6 -1 10 -9 10 -9 0
-16 -4 -16 -10z"/>
<path d="M2166 903 c-6 -14 -5 -15 5 -6 7 7 10 15 7 18 -3 3 -9 -2 -12 -12z"/>
<path d="M2210 909 c0 -5 5 -9 11 -9 5 0 7 -4 4 -10 -3 -5 1 -10 9 -10 23 0
20 27 -4 33 -11 3 -20 1 -20 -4z"/>
<path d="M2185 890 c-3 -5 -1 -10 4 -10 6 0 11 5 11 10 0 6 -2 10 -4 10 -3 0
-8 -4 -11 -10z"/>
<path d="M1307 916 c-10 -25 0 -36 32 -36 29 0 57 21 44 33 -12 13 -33 7 -33
-9 0 -13 -4 -11 -18 6 -17 21 -19 21 -25 6z"/>
<path d="M1303 855 c-9 -24 5 -31 24 -12 15 15 17 15 28 0 14 -19 37 -9 28 12
-7 21 -72 20 -80 0z"/>
<path d="M380 853 c0 -5 5 -15 10 -23 8 -12 10 -11 10 8 0 12 -4 22 -10 22 -5
0 -10 -3 -10 -7z"/>
<path d="M2806 875 c-18 -18 -11 -38 22 -68 26 -24 34 -9 18 36 -16 48 -20 51
-40 32z m23 -37 c0 -16 -2 -18 -6 -8 -3 8 -11 18 -17 22 -7 5 -4 8 7 8 11 0
17 -7 16 -22z"/>
<path d="M2815 790 c-3 -5 -1 -10 4 -10 6 0 11 5 11 10 0 6 -2 10 -4 10 -3 0
-8 -4 -11 -10z"/>
<path d="M304 838 c12 -7 21 -7 28 0 6 6 0 10 -18 10 -23 0 -24 -2 -10 -10z"/>
<path d="M160 780 c0 -5 5 -10 10 -10 6 0 10 5 10 10 0 6 -4 10 -10 10 -5 0
-10 -4 -10 -10z"/>
<path d="M145 740 c3 -5 13 -10 21 -10 8 0 14 5 14 10 0 6 -9 10 -21 10 -11 0
-17 -4 -14 -10z"/>
<path d="M2170 819 c0 -5 5 -7 10 -4 6 3 10 8 10 11 0 2 -4 4 -10 4 -5 0 -10
-5 -10 -11z"/>
<path d="M810 800 c0 -5 5 -10 10 -10 6 0 10 5 10 10 0 6 -4 10 -10 10 -5 0
-10 -4 -10 -10z"/>
<path d="M1650 800 c0 -5 5 -10 11 -10 5 0 7 5 4 10 -3 6 -8 10 -11 10 -2 0
-4 -4 -4 -10z"/>
<path d="M1657 746 c-4 -10 -5 -21 -2 -24 9 -9 17 6 13 25 -3 17 -4 17 -11 -1z"/>
<path d="M1740 730 c0 -5 5 -10 10 -10 6 0 10 5 10 10 0 6 -4 10 -10 10 -5 0
-10 -4 -10 -10z"/>
<path d="M2220 760 c6 -11 16 -20 23 -19 9 0 9 2 0 6 -7 2 -13 11 -13 19 0 8
-5 14 -10 14 -7 0 -7 -6 0 -20z"/>
<path d="M2300 750 c0 -5 5 -10 11 -10 5 0 7 5 4 10 -3 6 -8 10 -11 10 -2 0
-4 -4 -4 -10z"/>
<path d="M1191 643 c-1 -26 11 -30 28 -9 8 10 9 16 1 21 -5 3 -10 -2 -11 -12
0 -16 -1 -16 -9 2 -8 19 -9 19 -9 -2z"/>
<path d="M1373 632 c-8 -5 -9 -13 -3 -22 7 -12 10 -12 16 3 8 21 3 29 -13 19z"/>
<path d="M1220 616 c0 -2 7 -7 16 -10 8 -3 12 -2 9 4 -6 10 -25 14 -25 6z"/>
<path d="M2539 743 c0 -5 -2 -18 -5 -30 -3 -18 1 -23 15 -23 26 0 34 15 21 40
-10 20 -29 27 -31 13z"/>
<path d="M2620 741 c0 -10 19 -25 25 -20 1 2 -3 10 -11 17 -8 7 -14 8 -14 3z"/>
<path d="M2725 739 c-4 -6 -5 -12 -2 -15 2 -3 7 2 10 11 7 17 1 20 -8 4z"/>
<path d="M2865 720 c-3 -5 -1 -10 4 -10 6 0 11 5 11 10 0 6 -2 10 -4 10 -3 0
-8 -4 -11 -10z"/>
<path d="M1060 710 c0 -5 5 -10 11 -10 5 0 7 5 4 10 -3 6 -8 10 -11 10 -2 0
-4 -4 -4 -10z"/>
<path d="M2150 690 c0 -11 5 -20 10 -20 6 0 10 9 10 20 0 11 -4 20 -10 20 -5
0 -10 -9 -10 -20z"/>
<path d="M2180 690 c0 -19 3 -21 12 -12 9 9 9 15 0 24 -9 9 -12 7 -12 -12z"/>
<path d="M2230 698 c0 -4 9 -8 20 -8 11 0 20 4 20 8 0 4 -9 8 -20 8 -11 0 -20
-4 -20 -8z"/>
<path d="M2225 670 c-3 -5 -1 -10 4 -10 6 0 11 5 11 10 0 6 -2 10 -4 10 -3 0
-8 -4 -11 -10z"/>
<path d="M2700 680 c0 -5 5 -10 10 -10 6 0 10 5 10 10 0 6 -4 10 -10 10 -5 0
-10 -4 -10 -10z"/>
<path d="M1660 670 c0 -5 5 -10 11 -10 5 0 7 5 4 10 -3 6 -8 10 -11 10 -2 0
-4 -4 -4 -10z"/>
<path d="M1682 655 c-11 -12 -10 -15 3 -15 8 0 15 7 15 15 0 18 -2 18 -18 0z"/>
<path d="M1626 618 c7 -11 51 -10 58 1 3 5 -10 9 -28 8 -19 0 -33 -5 -30 -9z"/>
<path d="M346 625 c4 -8 8 -15 10 -15 2 0 4 7 4 15 0 8 -4 15 -10 15 -5 0 -7
-7 -4 -15z"/>
<path d="M368 593 c7 -3 16 -2 19 1 4 3 -2 6 -13 5 -11 0 -14 -3 -6 -6z"/>
<path d="M1463 615 c0 -8 4 -12 9 -9 4 3 8 9 8 15 0 5 -4 9 -8 9 -5 0 -9 -7
-9 -15z"/>
<path d="M1531 614 c0 -11 3 -14 6 -6 3 7 2 16 -1 19 -3 4 -6 -2 -5 -13z"/>
<path d="M2606 565 c-3 -8 -1 -15 4 -15 6 0 10 7 10 15 0 8 -2 15 -4 15 -2 0
-6 -7 -10 -15z"/>
<path d="M2410 566 c0 -2 7 -6 15 -10 8 -3 15 -1 15 4 0 6 -7 10 -15 10 -8 0
-15 -2 -15 -4z"/>
<path d="M2173 553 c-7 -2 -13 -16 -13 -29 0 -17 6 -24 20 -24 21 0 28 24 10
35 -6 4 -8 11 -5 16 7 10 6 10 -12 2z"/>
<path d="M485 481 c-6 -11 9 -23 19 -14 9 9 7 23 -3 23 -6 0 -12 -4 -16 -9z"/>
<path d="M250 530 c0 -6 5 -8 10 -5 6 3 10 2 10 -4 0 -5 -5 -12 -10 -14 -6 -3
-5 -4 2 -3 17 3 17 28 1 34 -7 2 -13 -1 -13 -8z"/>
<path d="M297 525 c3 -8 9 -12 14 -9 12 7 11 11 -5 17 -10 4 -13 1 -9 -8z"/>
<path d="M640 469 c0 -5 5 -7 10 -4 6 3 10 8 10 11 0 2 -4 4 -10 4 -5 0 -10
-5 -10 -11z"/>
<path d="M140 431 c0 -5 7 -11 15 -15 9 -3 15 0 15 9 0 8 -7 15 -15 15 -8 0
-15 -4 -15 -9z"/>
<path d="M180 414 c0 -8 5 -12 10 -9 6 4 8 11 5 16 -9 14 -15 11 -15 -7z"/>
</g>
</svg>
