<?xml version="1.0" standalone="no"?>
<!DOCTYPE svg PUBLIC "-//W3C//DTD SVG 20010904//EN"
 "http://www.w3.org/TR/2001/REC-SVG-20010904/DTD/svg10.dtd">
<svg version="1.0" xmlns="http://www.w3.org/2000/svg"
 width="320.000000pt" height="180.000000pt" viewBox="0 0 320.000000 180.000000"
 preserveAspectRatio="xMidYMid meet">

<g transform="translate(0.000000,180.000000) scale(0.100000,-0.100000)"
fill="#000000" stroke="none">
<path d="M970 1795 c0 -3 76 -137 169 -298 93 -161 209 -362 258 -448 l90
-157 -42 -73 c-23 -41 -94 -164 -157 -274 -256 -444 -308 -535 -308 -540 0 -3
500 -5 1110 -5 l1110 0 0 900 0 900 -1115 0 c-613 0 -1115 -2 -1115 -5z m2113
-102 c15 -9 6 -23 -19 -29 l-25 -7 26 -27 c31 -32 43 -96 25 -129 -15 -29 -68
-61 -100 -61 -14 0 -38 7 -54 15 -15 8 -41 15 -57 15 -22 0 -29 5 -29 19 0 14
-8 21 -27 23 -25 3 -28 7 -28 43 l0 40 55 5 c51 5 55 7 58 32 2 20 -2 28 -18
33 -32 10 -18 29 26 36 38 7 152 1 167 -8z m-480 -435 c17 -8 37 -46 37 -69 0
-5 -16 -9 -35 -9 -29 0 -35 4 -35 21 0 16 -5 20 -27 17 -48 -5 -42 -40 17 -89
59 -50 80 -85 80 -129 0 -45 -15 -67 -56 -80 -71 -24 -144 13 -144 72 0 25 3
28 35 28 25 0 33 -4 29 -14 -6 -16 23 -49 39 -43 19 6 30 33 24 59 -4 14 -25
38 -47 53 -75 52 -99 119 -60 168 28 35 91 42 143 15z m-703 -13 c0 -22 -4
-25 -35 -25 l-35 0 0 -150 0 -150 -35 0 -35 0 0 150 0 150 -35 0 c-31 0 -35 3
-35 25 l0 25 105 0 105 0 0 -25z m124 -17 c9 -24 25 -68 36 -98 l19 -55 1 98
0 97 35 0 35 0 0 -175 0 -175 -34 0 c-31 0 -36 4 -50 43 -9 23 -27 71 -40 107
l-25 65 -1 -107 0 -108 -32 0 -33 0 0 168 c1 92 2 170 3 175 1 4 17 7 36 7 31
0 36 -4 50 -42z m367 16 c25 -25 35 -88 20 -127 -12 -30 -62 -57 -106 -57 -24
0 -25 -2 -25 -70 l0 -70 -35 0 -35 0 0 176 0 176 80 -4 c64 -2 84 -7 101 -24z
m458 9 c12 -10 24 -35 28 -55 5 -36 4 -38 -21 -38 -14 0 -29 -1 -33 -2 -5 -1
-10 11 -13 28 -4 21 -12 30 -29 32 -13 2 -28 -2 -32 -10 -5 -7 -9 -61 -9 -120
0 -93 2 -109 18 -117 27 -14 52 5 52 39 0 28 3 30 36 30 l37 0 -6 -41 c-3 -22
-13 -49 -22 -59 -35 -39 -142 -32 -165 10 -6 10 -10 77 -10 149 0 121 2 132
22 151 29 26 116 28 147 3z m-859 -432 c15 -29 12 -41 -10 -41 -12 0 -20 7
-20 16 0 9 -7 14 -17 12 -26 -5 -26 -131 0 -136 13 -3 17 3 17 22 0 14 -4 26
-10 26 -5 0 -10 7 -10 15 0 10 10 15 30 15 28 0 30 -2 30 -37 0 -21 -4 -43 -8
-50 -11 -18 -58 -26 -81 -13 -19 9 -21 20 -21 88 0 47 5 83 12 90 20 20 76 15
88 -7z m128 3 c24 -16 30 -62 11 -81 -9 -9 -9 -20 0 -44 15 -44 14 -58 -6 -55
-10 2 -23 20 -31 44 -16 49 -32 46 -32 -4 0 -24 -5 -34 -15 -34 -12 0 -15 17
-15 95 l0 95 33 0 c18 0 43 -7 55 -16z m146 0 c12 -11 16 -35 16 -84 0 -62 -3
-71 -24 -85 -30 -20 -75 -10 -85 19 -12 30 -5 134 9 151 16 20 65 19 84 -1z
m86 -70 c0 -64 3 -85 13 -82 8 3 13 32 15 86 3 74 5 82 22 82 18 0 20 -7 20
-82 0 -46 -4 -90 -9 -97 -13 -20 -79 -20 -92 0 -5 7 -9 51 -9 97 0 75 2 82 20
82 18 0 20 -7 20 -86z m193 74 c17 -14 26 -65 14 -85 -4 -6 -21 -14 -37 -18
-27 -6 -30 -10 -30 -46 0 -40 -5 -45 -28 -31 -9 6 -12 34 -11 93 1 46 3 87 6
92 7 12 68 8 86 -5z m167 -81 c0 -98 -3 -109 -26 -100 -10 4 -14 24 -14 74 0
62 -2 69 -20 69 -47 0 -7 37 53 49 4 0 7 -41 7 -92z m-102 -183 c19 -13 22
-24 22 -80 0 -108 15 -104 -343 -104 -361 0 -347 -4 -347 97 0 109 -19 103
339 103 261 0 310 -2 329 -16z"/>
<path d="M2913 1676 c9 -7 17 -20 17 -28 0 -9 10 -18 21 -21 33 -9 79 3 79 21
0 8 8 21 18 28 14 11 5 13 -68 13 -73 0 -82 -2 -67 -13z"/>
<path d="M2800 1571 c0 -6 4 -12 8 -15 5 -3 9 1 9 9 0 8 -4 15 -9 15 -4 0 -8
-4 -8 -9z"/>
<path d="M2830 1576 c0 -2 7 -6 15 -10 8 -3 15 -1 15 4 0 6 -7 10 -15 10 -8 0
-15 -2 -15 -4z"/>
<path d="M2916 1562 c-2 -4 -1 -14 5 -22 7 -12 9 -10 9 8 0 23 -5 28 -14 14z"/>
<path d="M2862 1544 c-11 -12 -8 -14 15 -14 15 0 24 4 18 8 -5 4 -12 10 -15
14 -3 3 -11 0 -18 -8z"/>
<path d="M2805 1530 c3 -5 8 -10 11 -10 2 0 4 5 4 10 0 6 -5 10 -11 10 -5 0
-7 -4 -4 -10z"/>
<path d="M2280 1165 c0 -43 3 -55 16 -55 33 0 54 20 54 53 0 39 -15 57 -47 57
-21 0 -23 -4 -23 -55z"/>
<path d="M2060 786 c0 -29 10 -38 29 -27 18 11 10 45 -12 49 -12 3 -17 -3 -17
-22z"/>
<path d="M2204 796 c-3 -7 -4 -38 -2 -67 2 -40 7 -54 18 -54 12 0 16 15 18 68
2 56 0 67 -13 67 -9 0 -18 -6 -21 -14z"/>
<path d="M2490 780 c0 -25 4 -31 18 -28 11 2 17 12 17 28 0 16 -6 26 -17 28
-14 3 -18 -3 -18 -28z"/>
<path d="M2233 531 c-7 -26 -12 -26 -29 -4 -18 25 -27 11 -13 -21 9 -20 9 -32
1 -51 -7 -14 -12 -30 -12 -36 0 -16 21 1 30 25 8 20 8 20 19 -7 6 -16 15 -25
21 -22 6 4 4 17 -5 36 -14 26 -14 32 0 58 10 20 12 32 4 36 -6 4 -13 -2 -16
-14z"/>
<path d="M2100 480 c0 -41 4 -60 13 -61 6 0 20 -2 30 -4 9 -2 17 1 17 6 0 5
-9 9 -20 9 -13 0 -20 7 -20 20 0 11 7 20 15 20 8 0 15 5 15 10 0 6 -7 10 -15
10 -25 0 -18 38 8 43 16 3 13 5 -10 6 l-33 1 0 -60z"/>
<path d="M2295 528 c-11 -31 -25 -111 -21 -116 3 -3 15 6 26 19 l20 24 6 -22
c6 -22 24 -32 24 -15 0 39 -25 122 -37 122 -7 0 -16 -6 -18 -12z m25 -43 c0
-14 -4 -25 -10 -25 -11 0 -14 33 -3 43 11 11 13 8 13 -18z"/>
<path d="M2370 481 c0 -33 5 -63 10 -66 6 -4 10 13 11 42 0 26 3 41 6 33 3 -8
10 -26 16 -40 l9 -25 13 35 13 35 1 -43 c1 -67 21 -40 21 29 0 45 -3 59 -15
59 -8 0 -18 -15 -23 -32 -10 -33 -11 -32 -27 17 -2 8 -11 15 -20 15 -12 0 -15
-13 -15 -59z"/>
<path d="M562 1459 c-213 -37 -392 -227 -424 -447 -23 -155 32 -320 145 -434
164 -166 402 -205 616 -102 78 38 188 151 228 234 163 341 -65 732 -440 755
-39 2 -96 0 -125 -6z m229 -25 c166 -49 294 -171 350 -335 28 -83 30 -209 4
-296 l-18 -63 -63 0 c-62 0 -74 5 -55 25 5 6 16 34 26 64 27 84 18 201 -24
285 -36 74 -97 139 -162 175 l-44 25 35 -41 c19 -23 41 -42 49 -42 7 -1 11 -7
7 -16 -4 -10 1 -15 14 -15 12 0 17 -5 14 -14 -3 -8 4 -16 18 -20 17 -4 20 -8
10 -15 -10 -6 -8 -10 10 -15 22 -7 22 -8 4 -15 -19 -7 -18 -8 5 -14 18 -5 21
-9 10 -16 -11 -7 -10 -11 5 -20 17 -9 17 -10 -6 -11 l-25 -1 25 -14 25 -14
-25 -1 c-25 -2 -24 -2 5 -15 l30 -14 -30 -2 -30 -2 28 -4 c38 -6 34 -23 -5
-24 -28 -2 -29 -2 -8 -6 41 -8 48 -23 10 -24 l-35 -1 35 -13 35 -13 -33 -1
c-36 -1 -35 -20 1 -22 14 -1 9 -4 -13 -9 -31 -6 -32 -8 -8 -9 40 -2 45 -21 6
-22 -23 -1 -26 -3 -10 -6 26 -5 30 -23 5 -23 -17 -1 -17 -1 0 -14 14 -11 15
-15 5 -20 -10 -5 -10 -7 0 -12 8 -4 12 -37 12 -112 0 -139 -2 -141 -124 -144
l-91 -2 80 -5 c147 -11 50 -21 -195 -21 -149 0 -241 4 -245 10 -4 6 19 10 62
10 69 0 106 11 84 24 -6 4 -11 2 -11 -3 0 -18 -161 -14 -188 5 -20 14 -22 23
-22 108 0 63 5 103 15 122 13 26 13 29 -2 35 -15 5 -14 6 3 14 18 7 17 8 -6
15 l-25 8 28 1 c41 2 32 21 -10 22 l-38 1 33 8 c45 11 52 20 14 20 -39 0 -42
17 -4 23 25 4 25 4 -5 6 -18 0 -33 6 -33 11 0 6 15 11 33 12 l32 1 -32 4 c-40
5 -44 22 -5 24 l27 2 -27 4 c-34 5 -37 22 -5 24 l22 2 -22 4 c-29 6 -30 23 -1
23 21 0 21 0 2 15 -17 13 -17 14 -1 15 9 0 17 5 17 11 0 5 -6 7 -12 4 -7 -4
-5 0 4 8 10 8 15 17 11 20 -3 4 -1 13 5 20 7 8 9 16 6 20 -3 3 4 10 15 17 12
6 19 15 16 20 -3 5 3 13 12 19 10 6 15 11 12 11 -4 0 13 20 38 45 50 51 44 58
-13 17 -131 -95 -200 -262 -167 -403 15 -66 16 -79 2 -56 -5 9 -16 17 -23 17
-20 0 -37 -25 -30 -43 6 -15 15 -16 48 -2 13 6 23 3 32 -10 23 -31 16 -36 -48
-33 l-63 3 -17 60 c-49 178 0 365 131 495 107 106 208 148 357 149 46 1 103
-6 135 -15z m-531 -754 c0 -47 -10 -51 -28 -12 -25 51 -25 52 2 52 24 0 26 -4
26 -40z m42 -12 l1 -53 7 55 c7 54 7 53 8 -25 l1 -80 -27 30 c-24 26 -27 37
-24 78 3 32 9 47 18 47 10 0 14 -15 16 -52z m808 43 c0 -4 -9 -17 -20 -29 -11
-12 -20 -26 -20 -32 0 -15 -26 -41 -34 -33 -3 4 -6 1 -6 -6 0 -11 -29 -48 -30
-39 -9 78 -11 120 -7 132 4 10 22 15 61 15 31 0 56 -4 56 -8z m-270 -241 c-8
-5 -91 -10 -185 -10 -93 0 -177 5 -185 10 -10 6 52 10 185 10 133 0 195 -4
185 -10z m-126 -31 c-29 -5 -78 -5 -110 0 -54 8 -49 9 51 9 95 0 103 -2 59 -9z"/>
<path d="M595 1415 c-6 -8 -23 -16 -38 -17 -30 -3 -52 -21 -43 -37 3 -5 23 -7
43 -6 21 2 43 4 50 4 6 1 9 10 6 21 -3 11 0 20 6 20 6 0 11 -9 11 -20 0 -18 7
-20 54 -20 45 0 54 3 59 20 4 15 0 20 -13 20 -10 0 -21 -8 -23 -17 -3 -13 -5
-11 -7 7 l-2 25 -8 -25 c-5 -15 -8 -18 -9 -9 -1 23 -31 33 -32 11 0 -10 -5 -6
-11 11 -11 30 -28 35 -43 12z"/>
<path d="M763 1374 c-12 -32 40 -46 56 -15 9 15 7 20 -12 25 -33 9 -37 8 -44
-10z"/>
<path d="M852 1370 c-25 -23 -27 -35 -11 -46 12 -7 31 19 36 49 4 22 2 21 -25
-3z m8 -24 c0 -3 -4 -8 -10 -11 -5 -3 -10 -1 -10 4 0 6 5 11 10 11 6 0 10 -2
10 -4z"/>
<path d="M495 1363 c8 -27 -10 -31 -24 -5 -8 13 -10 14 -11 2 0 -25 16 -41 33
-34 19 7 21 22 6 44 -8 12 -9 10 -4 -7z"/>
<path d="M390 1350 c0 -5 5 -10 10 -10 6 0 10 5 10 10 0 6 -4 10 -10 10 -5 0
-10 -4 -10 -10z"/>
<path d="M906 1329 c-17 -24 -11 -49 11 -49 9 0 13 -6 10 -14 -6 -15 18 -31
42 -27 8 1 10 -2 5 -10 -4 -8 -3 -10 4 -5 7 4 12 2 12 -3 0 -8 7 -7 19 1 11 7
18 15 15 19 -2 4 2 9 8 12 7 2 9 8 5 13 -4 5 -12 2 -17 -6 -6 -8 -10 -11 -10
-6 0 5 -7 2 -16 -5 -14 -11 -16 -10 -13 6 5 32 -9 47 -32 35 -15 -8 -19 -7
-19 4 0 8 -6 16 -12 19 -10 4 -10 7 0 18 10 11 12 10 12 -4 0 -19 15 -23 26
-6 6 10 -11 28 -28 29 -4 0 -14 -10 -22 -21z m58 -65 c5 -14 4 -15 -9 -4 -17
14 -19 20 -6 20 5 0 12 -7 15 -16z m46 -24 c0 -5 -5 -10 -11 -10 -5 0 -7 5 -4
10 3 6 8 10 11 10 2 0 4 -4 4 -10z"/>
<path d="M429 1326 c8 -10 9 -16 1 -21 -5 -3 -13 1 -16 9 -3 9 -10 16 -15 16
-6 0 -5 -9 1 -20 9 -16 8 -18 -5 -14 -8 4 -15 11 -15 16 0 6 -6 5 -15 -2 -17
-14 -20 -36 -5 -45 16 -10 90 43 84 60 -4 8 -11 15 -16 15 -6 0 -6 -6 1 -14z"/>
<path d="M312 1268 c-9 -9 -7 -17 5 -32 10 -12 11 -15 3 -8 -18 15 -38 16 -22
0 7 -7 8 -17 1 -30 -5 -10 -6 -18 -2 -18 4 0 1 -4 -7 -10 -8 -5 -11 -12 -7
-16 9 -9 37 15 37 32 0 8 5 14 10 14 6 0 10 6 10 14 0 8 4 16 9 18 5 2 1 13
-8 25 -14 16 -21 19 -29 11z"/>
<path d="M267 1214 c-8 -8 1 -24 13 -24 4 0 10 7 14 15 5 15 -14 21 -27 9z"/>
<path d="M1020 1205 c-9 -11 -8 -20 6 -45 10 -16 22 -30 27 -30 4 0 6 -4 3 -9
-3 -4 5 -6 19 -4 27 6 24 33 -4 33 -14 0 -14 -2 -1 -10 8 -5 10 -10 4 -10 -18
0 -24 13 -13 27 9 10 7 19 -5 38 -19 29 -20 29 -36 10z"/>
<path d="M206 1134 c-15 -14 -15 -19 -3 -38 18 -27 47 -33 63 -12 12 17 8 56
-6 56 -5 0 -15 3 -23 6 -8 3 -22 -2 -31 -12z m34 -4 c0 -5 -7 -10 -16 -10 -8
0 -12 5 -9 10 3 6 10 10 16 10 5 0 9 -4 9 -10z m20 -32 c0 -15 -23 -20 -36 -7
-11 12 -9 14 11 14 14 0 25 -3 25 -7z"/>
<path d="M1060 1096 c0 -1 5 -17 11 -35 17 -50 56 -38 43 14 -4 18 -13 25 -30
25 -13 0 -24 -2 -24 -4z"/>
<path d="M196 1054 c-9 -22 -8 -24 11 -24 14 0 13 -4 -7 -22 l-23 -22 34 -12
c31 -11 31 -13 9 -14 -27 -1 -67 -26 -58 -36 13 -13 78 -22 85 -11 3 6 1 7 -5
3 -7 -4 -12 -2 -12 3 0 6 4 11 8 11 10 0 9 71 -1 88 -5 6 -6 16 -2 21 3 6 -3
15 -14 20 -15 8 -20 7 -25 -5z m24 -130 c0 -2 -9 -4 -20 -4 -11 0 -20 4 -20 9
0 5 9 7 20 4 11 -3 20 -7 20 -9z"/>
<path d="M1089 1006 c-1 -9 -1 -25 -1 -36 0 -41 3 -48 22 -53 19 -5 21 -2 18
46 -2 40 -7 53 -20 55 -11 2 -18 -3 -19 -12z"/>
<path d="M1086 902 c-14 -14 -5 -50 14 -55 11 -3 20 -1 20 3 0 5 -8 11 -17 13
-15 4 -14 5 3 6 25 1 28 28 3 34 -10 3 -20 2 -23 -1z"/>
<path d="M177 894 c-17 -18 -5 -34 25 -34 30 0 31 -1 12 -15 -10 -8 -14 -14
-9 -15 43 0 47 63 5 68 -14 2 -29 0 -33 -4z"/>
<path d="M640 863 c0 -4 5 -15 10 -23 8 -13 10 -13 10 2 0 9 -4 20 -10 23 -5
3 -10 3 -10 -2z"/>
<path d="M1067 833 c-9 -9 -9 -43 1 -44 4 0 19 -2 35 -4 15 -2 27 0 27 5 0 10
-26 20 -42 16 -7 -1 -9 -1 -4 2 4 2 2 9 -5 14 -10 7 -8 8 9 5 12 -3 20 -1 16
4 -6 11 -28 12 -37 2z"/>
<path d="M606 801 c1 -18 -4 -32 -12 -35 -8 -3 -11 -13 -8 -23 4 -14 0 -12
-15 6 -21 23 -21 23 -21 2 0 -12 5 -21 10 -21 6 0 9 -5 8 -11 -2 -6 3 -14 11
-17 8 -3 11 0 7 7 -8 13 6 15 20 2 15 -14 62 -22 68 -12 7 10 31 9 42 -2 30
-29 57 72 29 109 -14 19 -14 19 -15 -1 0 -12 5 -26 12 -33 9 -9 9 -12 0 -12
-6 0 -15 7 -20 16 -7 13 -11 11 -23 -13 -18 -36 -67 -43 -64 -9 1 18 -20 76
-28 76 -2 0 -2 -13 -1 -29z m134 -51 c12 -8 11 -10 -7 -10 -13 0 -23 5 -23 10
0 13 11 13 30 0z m-70 -40 c0 -5 -2 -10 -4 -10 -3 0 -8 5 -11 10 -3 6 -1 10 4
10 6 0 11 -4 11 -10z"/>
<path d="M632 820 c3 -8 17 -15 31 -15 33 1 34 -3 5 -15 -22 -8 -22 -9 5 -9
28 -1 32 5 21 33 -5 13 -9 14 -20 5 -11 -9 -18 -8 -31 2 -14 12 -16 12 -11 -1z"/>
<path d="M611 668 c-2 -32 -24 -69 -38 -64 -8 3 -11 1 -8 -4 3 -6 15 -10 26
-10 11 0 17 4 14 10 -3 5 -1 19 5 30 6 12 9 29 7 38 -4 16 -5 16 -6 0z"/>
<path d="M470 630 c0 -5 5 -10 10 -10 6 0 10 5 10 10 0 6 -4 10 -10 10 -5 0
-10 -4 -10 -10z"/>
<path d="M700 616 c0 -12 -5 -16 -15 -12 -20 7 -19 -8 0 -24 9 -7 13 -20 10
-29 -5 -13 -4 -13 6 -4 10 10 9 15 -1 28 -10 12 -10 15 3 15 37 0 77 -14 77
-26 0 -11 20 -14 90 -14 87 0 90 1 90 23 0 22 -2 22 -116 22 -103 1 -118 3
-130 20 -13 18 -14 18 -14 1z"/>
<path d="M350 574 c0 -24 2 -24 95 -24 79 0 95 3 95 16 0 9 5 12 11 8 7 -4 10
-1 7 7 -4 11 -29 14 -106 15 -101 1 -102 1 -102 -22z"/>
<path d="M620 584 c0 -14 3 -15 18 -3 9 7 19 15 21 16 2 2 -5 3 -17 3 -14 0
-22 -6 -22 -16z"/>
<path d="M745 530 c-3 -5 -15 -10 -26 -10 -10 0 -19 -4 -19 -10 0 -17 36 -11
55 10 10 11 13 20 7 20 -6 0 -14 -4 -17 -10z"/>
<path d="M570 510 c0 -5 11 -10 25 -10 14 0 25 5 25 10 0 6 -11 10 -25 10 -14
0 -25 -4 -25 -10z"/>
<path d="M1047 543 c-18 -5 -18 -5 0 -18 10 -7 15 -17 11 -21 -4 -4 -16 -1
-25 7 -15 11 -16 11 -5 -1 6 -8 12 -18 12 -23 0 -5 -6 -5 -12 1 -9 7 -17 5
-28 -6 -13 -14 -12 -15 3 -9 9 3 19 1 23 -5 4 -6 3 -8 -4 -4 -6 3 -14 2 -17
-4 -5 -8 -11 -7 -21 1 -24 20 -41 -5 -24 -36 7 -14 17 -25 21 -25 4 0 20 17
35 38 16 20 39 49 52 64 13 14 21 31 18 37 -7 11 -9 12 -39 4z m28 -13 c3 -5
1 -10 -4 -10 -6 0 -11 5 -11 10 0 6 2 10 4 10 3 0 8 -4 11 -10z m-79 -97 c-6
-6 -36 9 -36 18 0 5 9 4 20 -3 10 -7 18 -14 16 -15z"/>
<path d="M230 516 c0 -8 15 -26 33 -40 17 -15 37 -31 44 -36 16 -13 40 17 25
32 -8 8 -16 7 -28 -3 -16 -12 -17 -12 -11 5 7 17 6 17 -10 5 -15 -12 -16 -12
-10 4 3 9 4 24 1 32 -8 19 -44 20 -44 1z m35 -5 c3 -5 1 -12 -5 -16 -5 -3 -10
1 -10 9 0 18 6 21 15 7z"/>
<path d="M347 443 c-19 -18 -3 -36 43 -48 3 -1 18 -7 35 -14 20 -8 31 -9 33
-2 2 6 8 11 13 11 4 0 5 -7 2 -17 -4 -11 -3 -14 5 -9 19 12 14 24 -17 39 -20
10 -34 11 -46 4 -15 -8 -17 -7 -11 8 5 15 4 16 -9 5 -21 -17 -31 -5 -14 17 11
14 8 14 -10 -2 -21 -17 -24 -18 -18 -2 7 18 5 21 -6 10z"/>
<path d="M882 419 c-13 -20 -9 -39 9 -39 6 0 7 9 4 21 -6 18 -5 19 14 7 27
-17 50 2 26 22 -13 11 -14 10 -9 -4 8 -20 -12 -21 -23 -1 -7 12 -11 11 -21 -6z"/>
<path d="M854 398 c6 -21 -5 -23 -22 -6 -9 10 -16 8 -29 -5 -25 -25 -5 -40 35
-26 35 12 37 16 21 39 -9 13 -10 12 -5 -2z m-24 -18 c0 -5 -2 -10 -4 -10 -3 0
-8 5 -11 10 -3 6 -1 10 4 10 6 0 11 -4 11 -10z"/>
<path d="M496 374 c-8 -20 -8 -21 27 -29 23 -6 27 -4 27 14 0 12 -6 21 -15 21
-8 0 -15 -4 -15 -10 0 -5 -4 -10 -10 -10 -5 0 -7 7 -4 15 4 8 4 15 1 15 -3 0
-8 -7 -11 -16z"/>
<path d="M573 379 c-8 -8 -9 -18 -2 -31 10 -19 39 -25 39 -8 0 6 -7 10 -15 10
-8 0 -15 7 -15 16 0 13 3 14 13 5 8 -6 17 -8 20 -4 4 3 7 -3 7 -15 0 -18 6
-22 35 -22 28 0 35 4 35 20 0 11 -4 20 -10 20 -5 0 -10 -7 -10 -15 0 -8 -4
-15 -10 -15 -5 0 -7 7 -4 15 4 8 1 15 -5 15 -6 0 -10 -3 -10 -7 4 -24 -3 -25
-14 -3 -14 28 -37 36 -54 19z"/>
<path d="M730 371 c0 -25 14 -34 39 -26 13 4 17 12 14 25 -3 11 -9 20 -14 20
-5 0 -6 -7 -3 -15 4 -10 0 -15 -11 -15 -11 0 -15 5 -11 15 3 8 1 15 -4 15 -6
0 -10 -9 -10 -19z"/>
</g>
</svg>
