<?xml version="1.0" standalone="no"?>
<!DOCTYPE svg PUBLIC "-//W3C//DTD SVG 20010904//EN"
 "http://www.w3.org/TR/2001/REC-SVG-20010904/DTD/svg10.dtd">
<svg version="1.0" xmlns="http://www.w3.org/2000/svg"
 width="306.000000pt" height="180.000000pt" viewBox="0 0 306.000000 180.000000"
 preserveAspectRatio="xMidYMid meet">

<g transform="translate(0.000000,180.000000) scale(0.100000,-0.100000)"
fill="#000000" stroke="none">
<path d="M17 1782 c-24 -27 -21 -39 4 -16 21 18 62 19 1501 22 l1479 2 30 -29
c16 -16 29 -24 29 -17 0 7 -10 22 -23 34 l-23 22 -1491 0 c-1431 0 -1491 -1
-1506 -18z"/>
<path d="M630 1433 c-14 -3 -27 -9 -30 -13 -3 -5 -19 -11 -35 -14 -16 -3 -31
-10 -33 -16 -2 -5 -8 -8 -12 -5 -5 3 -18 -3 -30 -15 -11 -11 -23 -20 -27 -20
-10 0 -98 -88 -98 -98 -2 -22 -18 -52 -25 -47 -7 4 -27 -34 -21 -43 1 -1 -6
-16 -14 -33 -32 -60 -28 -255 5 -309 17 -28 20 -2 4 36 -22 52 -21 187 2 257
33 103 108 200 189 248 22 12 42 25 45 28 3 4 12 7 20 8 8 1 42 9 75 18 105
30 240 5 339 -62 22 -15 44 -32 48 -38 5 -7 8 -7 8 0 0 6 6 1 13 -11 26 -45
75 -103 81 -97 3 3 6 -1 6 -10 0 -10 0 -19 0 -22 0 -3 9 -25 20 -50 11 -25 19
-47 19 -50 0 -3 3 -20 6 -38 4 -17 1 -63 -6 -102 -6 -38 -12 -77 -13 -85 -3
-22 -47 -104 -60 -112 -6 -5 -7 -8 -1 -8 6 0 -1 -7 -15 -15 -18 -10 -20 -14
-8 -15 24 0 65 58 90 126 27 77 34 168 18 246 -13 67 -55 168 -71 168 -5 0 -9
6 -9 13 0 19 -91 103 -107 99 -7 -2 -12 1 -11 5 2 4 -2 10 -7 12 -5 2 -22 11
-36 22 -14 10 -37 20 -50 23 -13 2 -37 9 -52 15 -28 11 -167 13 -217 4z m455
-153 c10 -11 16 -20 13 -20 -3 0 -13 9 -23 20 -10 11 -16 20 -13 20 3 0 13 -9
23 -20z"/>
<path d="M625 1372 c-28 -11 -62 -25 -75 -32 -48 -26 -123 -106 -153 -165 -30
-57 -32 -66 -32 -170 0 -101 3 -114 28 -163 70 -134 208 -222 348 -222 62 0
166 33 214 68 37 27 39 29 38 87 l0 60 4 -52 c2 -29 8 -53 12 -53 4 0 7 24 6
53 -2 41 -1 43 2 8 4 -42 5 -42 23 -26 14 12 17 25 13 46 -4 19 -1 29 6 29 8
0 10 -8 6 -20 -12 -37 4 -21 25 26 48 104 45 232 -5 334 -32 63 -109 135 -185
173 -82 41 -195 48 -275 19z m200 -4 c114 -23 233 -129 269 -240 18 -57 21
-175 5 -230 -10 -37 -12 -38 -54 -38 -25 0 -45 1 -45 3 0 1 7 20 15 42 23 64
19 161 -9 220 -13 28 -33 60 -45 72 -30 32 -91 77 -96 71 -6 -6 55 -68 67 -68
6 0 8 -7 4 -15 -3 -10 1 -15 11 -15 9 0 14 -3 10 -6 -3 -3 3 -16 14 -27 14
-16 16 -23 7 -29 -9 -5 -7 -8 7 -9 l20 0 -20 -9 c-17 -7 -17 -9 -2 -9 20 -1
18 -23 -3 -33 -12 -5 -10 -7 5 -8 l20 -1 -20 -9 c-17 -7 -17 -9 -2 -9 25 -1
21 -21 -5 -22 -22 -1 -22 -1 2 -9 l25 -8 -25 -2 c-18 -2 -20 -4 -7 -7 25 -7
21 -33 -5 -34 -18 -1 -19 -2 -5 -6 18 -5 20 -32 2 -45 -6 -5 -5 -8 3 -8 8 0
12 -23 12 -79 0 -74 -2 -81 -26 -100 -82 -65 -239 -84 -346 -42 -94 37 -106
51 -106 124 0 34 5 72 11 85 9 18 8 25 -3 32 -13 8 -13 10 0 10 13 0 13 1 0
10 -13 8 -12 10 5 11 18 1 18 2 2 6 -14 4 -16 8 -6 19 9 11 7 14 -12 15 l-24
1 25 8 25 8 -25 2 c-20 2 -21 3 -6 7 14 4 16 7 6 13 -20 12 -21 40 -2 41 14 0
13 2 -3 9 l-20 9 20 0 c15 1 17 3 7 10 -17 11 -17 22 0 32 7 5 14 13 14 19 1
5 2 14 3 18 1 8 20 31 75 90 44 47 16 39 -41 -12 -72 -65 -107 -147 -101 -235
3 -36 13 -81 22 -99 l17 -33 -47 3 c-45 3 -48 5 -61 43 -10 27 -13 66 -10 120
9 167 113 295 277 341 59 16 103 17 175 2z m-398 -550 c-3 -8 -6 -5 -6 6 -1
11 2 17 5 13 3 -3 4 -12 1 -19z m20 -25 c-3 -10 -5 -2 -5 17 0 19 2 27 5 18 2
-10 2 -26 0 -35z m20 -15 c-2 -13 -4 -3 -4 22 0 25 2 35 4 23 2 -13 2 -33 0
-45z m20 -20 c-2 -18 -4 -6 -4 27 0 33 2 48 4 33 2 -15 2 -42 0 -60z m550 35
c-3 -10 -5 -2 -5 17 0 19 2 27 5 18 2 -10 2 -26 0 -35z"/>
<path d="M745 1347 c-4 -10 -5 -21 -1 -24 10 -10 18 4 13 24 -4 17 -4 17 -12
0z"/>
<path d="M634 1331 c1 -14 8 -27 14 -29 16 -5 15 10 -3 34 -14 18 -15 18 -11
-5z"/>
<path d="M677 1330 c3 -11 7 -20 9 -20 2 0 4 9 4 20 0 11 -4 20 -9 20 -5 0 -7
-9 -4 -20z"/>
<path d="M776 1335 c-3 -8 -1 -15 4 -15 6 0 10 7 10 15 0 8 -2 15 -4 15 -2 0
-6 -7 -10 -15z"/>
<path d="M806 1334 c-9 -23 -1 -28 21 -15 14 8 14 10 3 11 -13 0 -13 1 0 10
13 8 13 10 -1 10 -9 0 -20 -7 -23 -16z"/>
<path d="M607 1310 c3 -11 8 -20 12 -20 4 0 7 9 7 20 0 11 -6 20 -12 20 -7 0
-10 -8 -7 -20z"/>
<path d="M882 1301 c-1 -18 1 -22 7 -12 5 7 14 17 21 21 8 5 6 9 -7 12 -15 4
-19 -1 -21 -21z"/>
<path d="M560 1301 c0 -26 19 -37 33 -21 9 10 9 11 0 6 -12 -6 -18 5 -14 27 0
4 -3 7 -9 7 -5 0 -10 -9 -10 -19z"/>
<path d="M914 1285 c-10 -8 -14 -15 -8 -15 5 0 15 5 21 11 9 9 11 6 7 -12 -5
-19 -4 -21 5 -9 13 18 14 40 3 40 -5 0 -17 -7 -28 -15z"/>
<path d="M522 1265 c1 -14 6 -25 11 -25 5 0 6 7 3 16 -5 12 -2 15 10 10 14 -5
15 -4 4 9 -19 22 -30 18 -28 -10z"/>
<path d="M964 1254 c-10 -8 -13 -12 -5 -8 11 5 13 3 8 -9 -4 -11 -1 -17 8 -17
8 0 15 -5 15 -11 0 -8 5 -8 15 1 8 7 12 17 9 22 -4 6 -10 5 -15 -3 -9 -15 -13
-6 -10 24 3 21 0 21 -25 1z"/>
<path d="M500 1240 c6 -11 13 -20 15 -20 2 0 3 9 2 20 -1 11 -7 20 -14 20 -11
0 -11 -5 -3 -20z"/>
<path d="M475 1220 c3 -6 -1 -10 -9 -10 -18 0 -21 -16 -6 -25 17 -11 1 -23
-23 -19 l-22 5 23 -13 c19 -9 25 -9 33 3 5 8 7 20 4 27 -2 6 2 12 10 12 20 0
19 16 -1 24 -8 3 -12 2 -9 -4z"/>
<path d="M1012 1198 c-19 -19 -14 -29 8 -16 20 13 27 28 12 28 -4 0 -13 -5
-20 -12z"/>
<path d="M1025 1167 c-10 -8 -14 -17 -9 -20 6 -3 15 3 22 14 14 23 12 24 -13
6z"/>
<path d="M420 1140 c20 -13 33 -13 25 0 -3 6 -14 10 -23 10 -15 0 -15 -2 -2
-10z"/>
<path d="M1030 1122 c0 -10 36 -9 46 1 4 4 -5 7 -19 7 -15 0 -27 -4 -27 -8z"/>
<path d="M1046 1103 c-11 -11 -6 -23 8 -23 8 0 17 4 20 9 7 10 -19 23 -28 14z"/>
<path d="M410 1090 c19 -13 30 -13 30 0 0 6 -10 10 -22 10 -19 0 -20 -2 -8
-10z"/>
<path d="M1050 1060 c0 -5 5 -10 11 -10 5 0 7 5 4 10 -3 6 -8 10 -11 10 -2 0
-4 -4 -4 -10z"/>
<path d="M406 1045 c-19 -15 -19 -15 1 -15 11 0 23 7 27 15 7 19 -3 19 -28 0z"/>
<path d="M1065 1038 l-20 -21 23 12 c12 6 22 16 22 21 0 13 -2 12 -25 -12z"/>
<path d="M397 1014 c-16 -16 -7 -44 14 -44 15 0 20 5 17 22 -3 22 -19 33 -31
22z m23 -24 c0 -5 -4 -10 -10 -10 -5 0 -10 5 -10 10 0 6 5 10 10 10 6 0 10 -4
10 -10z"/>
<path d="M1050 991 c0 -25 18 -37 33 -22 8 8 6 11 -6 11 -9 0 -17 5 -17 11 0
6 9 8 20 4 11 -4 20 -2 20 4 0 6 -11 11 -25 11 -18 0 -25 -5 -25 -19z"/>
<path d="M416 951 c-4 -5 0 -11 6 -14 7 -2 10 -8 6 -12 -4 -4 -16 -2 -25 6
-16 13 -17 12 -4 -3 20 -26 41 -22 41 7 0 25 -14 34 -24 16z"/>
<path d="M1043 934 c-3 -9 0 -20 8 -25 22 -14 36 -10 17 5 -24 18 -23 29 2 21
11 -4 20 -2 20 4 0 17 -40 13 -47 -5z"/>
<path d="M702 898 c1 -34 -10 -48 -22 -28 -6 8 -10 11 -10 5 0 -11 20 -44 20
-33 0 4 12 3 26 -2 17 -7 31 -7 38 -1 7 6 18 6 26 1 8 -5 18 -6 22 -4 12 8 10
34 -3 34 -6 0 -8 -7 -5 -16 3 -8 2 -12 -4 -9 -6 3 -10 16 -11 28 0 15 -2 17
-6 7 -4 -8 -12 -20 -19 -27 -18 -18 -34 6 -30 44 3 20 0 30 -9 30 -8 0 -13
-11 -13 -29z"/>
<path d="M755 910 c-3 -5 1 -10 9 -10 9 0 16 5 16 10 0 6 -4 10 -9 10 -6 0
-13 -4 -16 -10z"/>
<path d="M801 904 c0 -11 3 -14 6 -6 3 7 2 16 -1 19 -3 4 -6 -2 -5 -13z"/>
<path d="M600 779 c0 -5 5 -7 10 -4 6 3 10 8 10 11 0 2 -4 4 -10 4 -5 0 -10
-5 -10 -11z"/>
<path d="M663 757 c-3 -4 -2 -11 1 -14 3 -4 6 -2 6 3 0 16 39 14 42 -2 2 -11
6 -10 15 4 11 18 9 20 -23 19 -20 -1 -38 -5 -41 -10z"/>
<path d="M750 760 c0 -5 9 -8 20 -7 21 1 18 10 -5 13 -8 1 -15 -2 -15 -6z"/>
<path d="M800 760 c0 -5 5 -10 11 -10 5 0 7 5 4 10 -3 6 -8 10 -11 10 -2 0 -4
-4 -4 -10z"/>
<path d="M520 745 c0 -12 14 -15 65 -15 51 0 65 3 65 15 0 12 -14 15 -65 15
-51 0 -65 -3 -65 -15z"/>
<path d="M832 748 c3 -8 28 -14 66 -16 51 -2 62 0 62 13 0 12 -13 15 -66 15
-48 0 -65 -3 -62 -12z"/>
<path d="M661 714 c0 -11 3 -14 6 -6 3 7 2 16 -1 19 -3 4 -6 -2 -5 -13z"/>
<path d="M727 698 c2 -5 22 -8 44 -8 21 0 39 3 39 8 0 4 -20 7 -44 7 -24 0
-42 -3 -39 -7z"/>
<path d="M688 693 c7 -3 16 -2 19 1 4 3 -2 6 -13 5 -11 0 -14 -3 -6 -6z"/>
<path d="M1200 1230 c0 -7 287 -10 841 -10 557 0 838 3 834 10 -9 14 -1675 14
-1675 0z"/>
<path d="M1483 1148 c-2 -5 1 -9 6 -9 6 -1 17 -2 24 -3 8 -1 12 -21 12 -64 0
-43 4 -62 13 -62 8 0 12 19 12 61 0 52 3 62 20 66 11 3 20 9 20 13 0 11 -100
8 -107 -2z"/>
<path d="M1610 1085 c0 -43 4 -75 10 -75 6 0 10 26 10 58 l1 57 32 -57 c44
-80 57 -76 57 17 0 43 -4 75 -10 75 -5 0 -10 -26 -10 -57 l-1 -58 -31 58 c-43
80 -58 76 -58 -18z"/>
<path d="M1768 1152 c-15 -3 -18 -15 -18 -73 0 -39 4 -69 10 -69 6 0 10 10 10
23 0 17 8 25 32 32 39 12 57 38 42 62 -12 19 -49 31 -76 25z m47 -42 c0 -18
-6 -26 -22 -28 -18 -3 -23 1 -23 21 0 28 9 39 30 35 9 -2 15 -14 15 -28z"/>
<path d="M2130 1152 c0 -30 43 -142 54 -142 14 0 56 98 56 131 0 35 -19 11
-37 -47 l-17 -56 -16 58 c-9 32 -22 60 -28 62 -7 2 -12 -1 -12 -6z"/>
<path d="M2271 1088 c-13 -38 -20 -72 -18 -75 9 -8 27 7 27 23 0 23 51 18 57
-6 3 -11 12 -20 19 -20 8 0 14 1 14 3 0 1 -11 33 -23 71 -31 93 -47 94 -76 4z
m49 0 c0 -10 -7 -18 -16 -18 -11 0 -14 5 -10 16 3 9 6 23 6 32 0 15 2 15 10 2
5 -8 10 -23 10 -32z"/>
<path d="M2430 1152 c-51 -16 -68 -84 -30 -122 43 -43 110 -10 110 53 0 45
-42 81 -80 69z m25 -18 c45 -18 37 -104 -10 -104 -41 0 -54 56 -22 98 11 14
10 14 32 6z"/>
<path d="M1877 1143 c-18 -17 -6 -53 24 -68 36 -19 33 -40 -4 -40 -16 1 -27
-5 -27 -12 0 -16 52 -17 68 -1 20 20 14 42 -20 70 -26 22 -30 30 -19 37 8 5
20 7 28 4 7 -3 13 0 13 6 0 12 -52 15 -63 4z"/>
<path d="M1990 1123 c-25 -32 -20 -69 12 -95 22 -19 78 -25 78 -8 0 6 -13 10
-28 10 -35 0 -52 16 -52 52 0 32 37 62 64 52 9 -3 16 -1 16 5 0 6 -15 11 -34
11 -26 0 -40 -7 -56 -27z"/>
<path d="M1430 831 c0 -68 0 -69 29 -73 16 -2 37 -1 47 3 17 6 17 8 3 14 -10
3 -25 5 -34 3 -12 -2 -19 5 -21 20 -3 19 1 22 26 22 17 0 30 5 30 10 0 6 -13
10 -28 10 -21 0 -28 5 -29 20 -1 16 4 20 28 20 16 0 29 5 29 10 0 6 -18 10
-40 10 l-40 0 0 -69z"/>
<path d="M1970 824 c0 -56 3 -75 13 -71 6 2 12 15 12 28 0 19 6 25 28 27 35 4
54 40 38 71 -9 16 -21 21 -51 21 l-40 0 0 -76z m65 31 c0 -12 -8 -21 -20 -23
-16 -2 -20 3 -20 23 0 20 4 25 20 23 12 -2 20 -11 20 -23z"/>
<path d="M2200 880 c-8 -5 -10 -10 -5 -10 6 0 5 -4 -2 -8 -15 -9 -1 -91 18
-103 20 -13 29 -11 29 6 0 8 -4 15 -10 15 -15 0 -12 57 3 63 8 4 9 8 1 14 -6
4 -13 13 -15 20 -3 8 -9 9 -19 3z"/>
<path d="M2268 868 c-10 -29 4 -99 22 -108 13 -7 21 -6 26 2 4 6 2 14 -4 16
-16 5 -15 59 0 64 9 3 8 9 -4 21 -20 20 -34 22 -40 5z"/>
<path d="M1530 853 c0 -5 7 -16 15 -27 12 -16 12 -22 -2 -42 -20 -31 -10 -43
13 -16 l17 20 18 -21 c24 -30 35 -15 13 17 -15 25 -15 28 0 45 9 9 16 21 16
24 0 14 -23 7 -36 -10 -13 -17 -15 -17 -25 0 -10 17 -29 24 -29 10z"/>
<path d="M1650 850 c-11 -7 -7 -10 18 -10 40 0 42 -16 2 -23 -23 -5 -30 -12
-30 -31 0 -21 5 -24 40 -28 l40 -4 0 41 c0 58 -30 81 -70 55z m50 -54 c0 -18
-27 -29 -36 -14 -4 5 0 14 7 19 20 13 29 11 29 -5z"/>
<path d="M1750 803 c0 -29 5 -53 10 -53 6 0 10 15 10 34 0 36 26 70 34 45 3
-8 6 -27 8 -43 5 -48 26 -43 30 6 2 30 7 43 18 43 11 0 16 -13 18 -43 2 -28 7
-42 15 -39 7 2 12 9 11 15 -1 7 -2 28 -2 47 -2 40 -24 55 -53 37 -10 -6 -21
-8 -24 -3 -3 5 -21 9 -40 8 l-35 -1 0 -53z"/>
<path d="M2100 850 c-12 -8 -9 -10 13 -10 15 0 27 -4 27 -10 0 -5 -8 -10 -19
-10 -10 0 -24 -7 -32 -16 -20 -24 1 -49 42 -48 32 0 34 3 37 36 5 53 -30 82
-68 58z m40 -54 c0 -8 -4 -17 -9 -21 -12 -7 -24 12 -16 25 9 15 25 12 25 -4z"/>
<path d="M2356 844 c-9 -8 -16 -28 -16 -44 0 -22 6 -30 28 -37 30 -11 52 -7
52 9 0 6 -7 8 -15 4 -18 -6 -45 2 -45 15 0 5 16 9 35 9 24 0 35 5 35 14 0 18
-27 46 -45 46 -7 0 -21 -7 -29 -16z m47 -18 c1 -5 -8 -11 -20 -12 -23 -4 -30
6 -16 20 9 9 33 4 36 -8z"/>
<path d="M2450 804 c0 -34 4 -53 10 -49 6 3 10 20 10 36 0 17 6 32 15 35 8 4
15 13 15 21 0 13 -3 13 -15 3 -10 -9 -15 -9 -15 -1 0 6 -4 11 -10 11 -5 0 -10
-25 -10 -56z"/>
<path d="M2522 808 c3 -61 21 -67 28 -11 7 52 34 52 38 1 4 -42 32 -55 32 -15
-1 60 -24 86 -61 67 -13 -7 -19 -7 -19 0 0 5 -5 10 -11 10 -6 0 -9 -21 -7 -52z"/>
<path d="M326 791 c-3 -5 0 -16 8 -24 8 -8 12 -18 8 -22 -4 -5 -1 -5 6 -1 9 6
9 12 1 29 -16 29 -16 30 -23 18z"/>
<path d="M360 734 c0 -6 11 -24 25 -40 14 -16 25 -24 25 -19 0 14 -49 72 -50
59z"/>
<path d="M425 720 c-3 -5 -2 -10 4 -10 5 0 13 5 16 10 3 6 2 10 -4 10 -5 0
-13 -4 -16 -10z"/>
<path d="M439 693 c-11 -15 -11 -16 1 -5 21 18 35 15 19 -5 -10 -11 -10 -14
-1 -9 7 4 12 2 12 -6 0 -10 3 -9 10 2 5 9 5 19 -2 27 -14 17 -23 16 -39 -4z"/>
<path d="M1165 690 c-4 -7 283 -10 855 -10 572 0 859 3 855 10 -9 14 -1701 14
-1710 0z"/>
<path d="M987 684 c-3 -3 -3 -13 1 -22 5 -15 4 -15 -11 -3 -9 7 -17 11 -17 8
0 -2 6 -10 14 -16 12 -10 17 -8 25 8 10 18 1 38 -12 25z"/>
<path d="M1047 661 c-14 -17 -28 -27 -31 -24 -3 4 -6 1 -6 -6 0 -7 -5 -9 -12
-5 -6 4 -8 3 -5 -3 4 -6 -4 -14 -18 -17 -14 -4 -25 -11 -25 -17 0 -6 -4 -7
-10 -4 -5 3 -10 1 -10 -5 0 -6 -4 -8 -10 -5 -5 3 -20 0 -32 -6 -30 -16 -45
-19 -151 -23 -90 -4 -130 -14 -61 -15 22 -1 50 -2 64 -3 43 -3 140 13 140 23
0 6 5 7 10 4 15 -9 129 58 169 99 19 20 30 36 24 36 -6 0 -22 -13 -36 -29z"/>
<path d="M489 653 c-13 -16 -12 -17 4 -4 9 7 17 15 17 17 0 8 -8 3 -21 -13z"/>
<path d="M430 650 c-11 -7 -8 -10 13 -15 15 -4 24 -12 20 -18 -3 -5 -1 -7 5
-3 5 3 13 0 15 -6 3 -7 6 -8 6 -2 2 20 -43 54 -59 44z"/>
<path d="M941 638 c-1 -23 -21 -34 -32 -17 -6 9 -9 10 -9 2 0 -20 21 -26 37
-10 8 8 13 21 10 29 -4 9 -6 8 -6 -4z"/>
<path d="M536 623 c-6 -14 -5 -15 5 -6 7 7 10 15 7 18 -3 3 -9 -2 -12 -12z"/>
<path d="M565 629 c-4 -6 -5 -12 -2 -15 2 -3 7 2 10 11 7 17 1 20 -8 4z"/>
<path d="M500 600 c0 -8 66 -41 107 -54 12 -4 24 -2 29 5 4 7 3 9 -4 5 -6 -3
-13 -2 -17 4 -4 6 -11 8 -16 4 -5 -3 -30 6 -54 20 -25 13 -45 21 -45 16z"/>
<path d="M642 590 c0 -14 2 -19 5 -12 2 6 2 18 0 25 -3 6 -5 1 -5 -13z"/>
<path d="M673 595 c-3 -9 -3 -18 -1 -21 3 -3 8 4 11 16 6 23 -1 27 -10 5z"/>
<path d="M767 603 c-9 -9 -9 -43 1 -43 4 0 8 11 8 25 2 27 1 29 -9 18z"/>
<path d="M820 603 c0 -5 5 -15 10 -23 7 -12 9 -10 7 8 -1 19 -17 33 -17 15z"/>
<path d="M742 580 c0 -14 2 -19 5 -12 2 6 2 18 0 25 -3 6 -5 1 -5 -13z"/>
<path d="M608 393 c12 -2 30 -2 40 0 9 3 -1 5 -23 4 -22 0 -30 -2 -17 -4z"/>
<path d="M693 383 c15 -2 25 -7 23 -11 -2 -4 19 -8 48 -9 l51 -2 -55 14 c-30
8 -64 14 -75 13 -11 -1 -8 -3 8 -5z"/>
<path d="M518 363 c7 -3 16 -2 19 1 4 3 -2 6 -13 5 -11 0 -14 -3 -6 -6z"/>
<path d="M588 363 c7 -3 16 -2 19 1 4 3 -2 6 -13 5 -11 0 -14 -3 -6 -6z"/>
<path d="M668 363 c7 -3 16 -2 19 1 4 3 -2 6 -13 5 -11 0 -14 -3 -6 -6z"/>
<path d="M820 353 c0 -5 -111 -7 -248 -6 -255 2 -292 0 -292 -18 0 -6 9 -8 23
-4 17 5 18 4 7 -4 -17 -12 -8 -21 90 -91 34 -25 118 -87 186 -137 l125 -93
972 1 c564 0 964 4 952 9 -11 5 -72 18 -135 30 -63 12 -158 31 -210 41 -52 11
-122 24 -155 29 -33 5 -163 30 -290 55 -126 25 -369 72 -540 105 -170 32 -326
62 -345 66 -19 4 -50 8 -67 8 -18 0 -33 3 -33 8 0 4 -9 8 -20 8 -11 0 -20 -3
-20 -7z m30 -23 c0 -5 -4 -10 -10 -10 -5 0 -10 5 -10 10 0 6 5 10 10 10 6 0
10 -4 10 -10z m65 0 c19 -8 19 -9 -2 -9 -12 -1 -25 4 -28 9 -7 12 2 12 30 0z
m50 -10 c-4 -6 6 -11 22 -11 18 -1 22 -3 10 -6 -24 -6 -50 4 -42 17 3 5 8 10
11 10 3 0 2 -4 -1 -10z m-58 -16 c-3 -3 -12 -4 -19 -1 -8 3 -5 6 6 6 11 1 17
-2 13 -5z"/>
<path d="M35 86 c-10 -7 -15 -18 -11 -24 10 -16 86 -16 86 1 0 8 2 9 8 1 5 -8
66 -12 180 -13 150 -2 172 0 172 13 0 11 -10 16 -32 17 -18 0 -44 2 -56 3 -13
2 -26 -3 -29 -11 -4 -11 -11 -9 -30 9 -20 19 -25 20 -34 8 -7 -13 -10 -13 -18
-1 -5 8 -11 9 -15 3 -3 -6 -44 -9 -96 -9 -66 2 -90 -1 -90 -10 0 -7 -7 -13
-15 -13 -18 0 -20 17 -2 23 6 2 9 7 6 11 -3 3 -14 0 -24 -8z"/>
</g>
</svg>
