<svg width="32" height="32" viewBox="0 0 32 32" fill="none" xmlns="http://www.w3.org/2000/svg">
  <!-- Owl Body -->
  <ellipse cx="16" cy="22" rx="9" ry="7" fill="#8B4513"/>
  
  <!-- Owl Head -->
  <circle cx="16" cy="14" r="8" fill="#D2B48C"/>
  
  <!-- Wings -->
  <ellipse cx="10" cy="20" rx="4" ry="6" fill="#8B4513"/>
  <ellipse cx="22" cy="20" rx="4" ry="6" fill="#8B4513"/>
  
  <!-- Eyes -->
  <circle cx="14" cy="12" r="3" fill="white"/>
  <circle cx="18" cy="12" r="3" fill="white"/>
  <circle cx="14" cy="12" r="2" fill="black"/>
  <circle cx="18" cy="12" r="2" fill="black"/>
  <circle cx="14.5" cy="11.5" r="0.5" fill="white"/>
  <circle cx="18.5" cy="11.5" r="0.5" fill="white"/>
  
  <!-- Beak -->
  <path d="M16 15L15 17L17 17L16 15Z" fill="#FF8C00"/>
  
  <!-- Feet -->
  <ellipse cx="14" cy="29" rx="1.5" ry="1" fill="#FF8C00"/>
  <ellipse cx="18" cy="29" rx="1.5" ry="1" fill="#FF8C00"/>
  
  <!-- Blush marks -->
  <circle cx="12" cy="16" r="1" fill="#FFB6C1" opacity="0.7"/>
  <circle cx="20" cy="16" r="1" fill="#FFB6C1" opacity="0.7"/>
  
  <!-- Graduation Cap -->
  <rect x="10" y="6" width="12" height="1.5" fill="black"/>
  <rect x="11" y="6" width="10" height="4" fill="black"/>
  <rect x="11" y="10" width="10" height="1" fill="black"/>
  
  <!-- Tassel -->
  <line x1="20" y1="7.5" x2="22" y2="6" stroke="#FFD700" stroke-width="0.5"/>
  <circle cx="22" cy="6" r="0.5" fill="#FF0000"/>
  
  <!-- Cap band -->
  <rect x="11" y="9" width="10" height="1" fill="#000080"/>
</svg>

